<?xml version="1.0" encoding="UTF-8"?><svg id="Layer_2" xmlns="http://www.w3.org/2000/svg" width="5910" height="3876" viewBox="0 0 5910 3876"><defs><style>.cls-1,.cls-2,.cls-3,.cls-4,.cls-5,.cls-6{fill:none;stroke:#000;stroke-linecap:round;stroke-miterlimit:10;}.cls-1,.cls-3,.cls-4,.cls-5{stroke-width:3px;}.cls-2{stroke-width:6px;}.cls-3{stroke-dasharray:6 6;}.cls-4{stroke-dasharray:5.33 5.33;}.cls-5{stroke-dasharray:5.82 5.82;}.cls-7{opacity:.06;}</style></defs><g id="Maps"><g id="Floor_2"><g id="Framing"><line class="cls-2" x1="3" y1="3" x2="3" y2="3"/><line class="cls-2" x1="5907" y1="3" x2="5907" y2="3"/><line class="cls-2" x1="5907" y1="3873" x2="5907" y2="3873"/></g><g id="Color" class="cls-7"><rect x="957" y="2613" width="81" height="54"/><rect x="138" y="2613" width="81" height="54"/><polygon points="3270 2451 3270 2586 2883 2586 2883 2532 2757 2532 2757 2586 2262 2586 2262 2451 3270 2451"/><rect x="1767" y="2667" width="1503" height="135"/><polygon points="2019 2451 2019 2586 1641 2586 1641 2802 1596 2802 1596 3549 1506 3549 1506 3396 1425 3396 1425 2910 1515 2910 1515 2451 2019 2451"/><polygon points="1452 3549 1452 3666 615 3666 615 3603 552 3603 552 3549 1452 3549"/><rect x="3" y="3549" width="495" height="117"/><rect x="3" y="3738" width="486" height="135"/><polygon points="606 3738 606 3873 2145 3873 2145 3549 1911 3549 1911 3666 1902 3666 1902 3738 606 3738"/><polygon points="3513 2451 3513 2649 3765 2649 3765 2640 4332 2640 4332 2586 4413 2586 4413 2595 4494 2595 4494 2451 3513 2451"/><rect x="4548" y="2451" width="144" height="144"/><polygon points="3387 2235 3522 2235 3522 1533 4224 1533 4224 1398 3396 1398 3396 1434 3522 1434 3522 1497 3396 1497 3396 1533 3387 1533 3387 2235"/><rect x="2703" y="1398" width="576" height="135"/><rect x="2703" y="1200" width="576" height="135"/><polygon points="4350 1398 4350 1533 4872 1533 4872 1200 4350 1200 4350 1335 4602 1335 4602 1398 4350 1398"/><polygon points="4296 1200 4296 1335 3387 1335 3387 480 3468 480 3468 417 3522 417 3522 354 3396 354 3396 318 4224 318 4224 453 3522 453 3522 1200 4296 1200"/><rect x="4350" y="318" width="522" height="135"/><rect x="4350" y="120" width="522" height="135"/><rect x="3333" y="120" width="963" height="135"/><rect x="2703" y="120" width="576" height="135"/><rect x="2703" y="318" width="576" height="135"/><polygon points="2433 417 2433 192 1965 192 1965 138 2505 138 2505 3 1920 3 1920 417 2433 417"/><polygon points="4792.47 3236.27 5167.68 3164.49 5151 2739 4773 2739 4792.47 3236.27"/><polygon points="4773 2595 5151 2595 5167.68 2169.51 4792.5 2097.74 4773 2595"/><polygon points="5313 2874 5871 2973 5907 2739 5907 2594.56 5868.31 2343.5 5756.09 2364.43 5758.4 2381.86 5313 2459.66 5313 2874"/></g><g id="Outline"><line class="cls-2" x1="1515" y1="2451" x2="1515" y2="2910"/><line class="cls-2" x1="1425" y1="2910" x2="1515" y2="2910"/><line class="cls-2" x1="1425" y1="3396" x2="1425" y2="2910"/><line class="cls-2" x1="1506" y1="3396" x2="1425" y2="3396"/><line class="cls-2" x1="552" y1="3549" x2="1506" y2="3549"/><line class="cls-2" x1="498" y1="3549" x2="498" y2="3540"/><line class="cls-2" x1="552" y1="3540" x2="498" y2="3540"/><line class="cls-2" x1="552" y1="3549" x2="552" y2="3540"/><line class="cls-2" x1="498" y1="3549" x2="3" y2="3549"/><line class="cls-2" x1="3" y1="3873" x2="3" y2="3549"/><line class="cls-2" x1="2145.23" y1="3873" x2="3" y2="3873"/><line class="cls-2" x1="2145.23" y1="3549" x2="2145.23" y2="3873"/><line class="cls-2" x1="1704" y1="3549" x2="2145.23" y2="3549"/><line class="cls-2" x1="1704" y1="2802" x2="1704" y2="3549"/><line class="cls-2" x1="1704" y1="2802" x2="4413" y2="2802"/><line class="cls-2" x1="4413" y1="2739" x2="4413" y2="2802"/><line class="cls-2" x1="4692" y1="2739" x2="4413" y2="2739"/><line class="cls-2" x1="1515" y1="2451" x2="3333" y2="2451"/><line class="cls-2" x1="3513" y1="2451" x2="4692" y2="2451"/><line class="cls-2" x1="3513" y1="2451" x2="3576" y2="2298"/><line class="cls-2" x1="3576" y1="2235" x2="3576" y2="2298"/><line class="cls-2" x1="3522" y1="2235" x2="3576" y2="2235"/><line class="cls-2" x1="3333" y1="2451" x2="3333" y2="1533"/><line class="cls-2" x1="3522" y1="2235" x2="3522" y2="1533"/><line class="cls-2" x1="3333" y1="1533" x2="2703" y2="1533"/><line class="cls-2" x1="2703" y1="1533" x2="2703" y2="1200"/><line class="cls-2" x1="3279" y1="1200" x2="2703" y2="1200"/><line class="cls-2" x1="3333" y1="453" x2="3333" y2="1191"/><line class="cls-2" x1="3522" y1="453" x2="3522" y2="1200"/><line class="cls-2" x1="3522" y1="1200" x2="4296" y2="1200"/><line class="cls-2" x1="4296" y1="1191" x2="4296" y2="1200"/><line class="cls-2" x1="4296" y1="1191" x2="4350" y2="1191"/><line class="cls-2" x1="4350" y1="1200" x2="4350" y2="1191"/><line class="cls-2" x1="4350" y1="1200" x2="4872" y2="1200"/><line class="cls-2" x1="4872" y1="1533" x2="4872" y2="1200"/><line class="cls-2" x1="3522" y1="1533" x2="4872" y2="1533"/><line class="cls-2" x1="3333" y1="453" x2="2703" y2="453"/><line class="cls-2" x1="2703" y1="318" x2="2703" y2="453"/><line class="cls-2" x1="2703" y1="255" x2="2703" y2="120"/><line class="cls-2" x1="3279" y1="120" x2="2703" y2="120"/><line class="cls-2" x1="3333" y1="120" x2="4296" y2="120"/><line class="cls-2" x1="4296" y1="111" x2="4296" y2="119.32"/><line class="cls-2" x1="4296" y1="111" x2="4350" y2="111"/><line class="cls-2" x1="4350" y1="119.32" x2="4350" y2="111"/><line class="cls-2" x1="4350" y1="120" x2="4872" y2="120"/><line class="cls-2" x1="4872.03" y1="453" x2="4872.07" y2="120"/><line class="cls-2" x1="3522" y1="453" x2="4872" y2="453"/><line class="cls-2" x1="2703" y1="318" x2="2559" y2="318"/><line class="cls-2" x1="2703" y1="255" x2="2559" y2="255"/><line class="cls-2" x1="2559" y1="417" x2="2559" y2="318"/><line class="cls-2" x1="2559" y1="255" x2="2559" y2="3"/><line class="cls-2" x1="2559" y1="417" x2="1920" y2="417"/><line class="cls-2" x1="2559" y1="3" x2="1920" y2="3"/><line class="cls-2" x1="1920" y1="3" x2="1920" y2="417"/><line class="cls-2" x1="138" y1="2064" x2="138" y2="2667"/><line class="cls-2" x1="1038" y1="2064" x2="138" y2="2064"/><line class="cls-2" x1="1038" y1="2667" x2="1038" y2="2064"/><line class="cls-2" x1="1506" y1="3396" x2="1506" y2="3549"/><line class="cls-2" x1="1038" y1="2667" x2="138" y2="2667"/><line class="cls-2" x1="3279" y1="111" x2="3279" y2="120"/><line class="cls-2" x1="3279" y1="111" x2="3333" y2="111"/><line class="cls-2" x1="3333" y1="120" x2="3333" y2="111"/><line class="cls-2" x1="3279" y1="1191" x2="3279" y2="1200"/><line class="cls-2" x1="3279" y1="1191" x2="3333" y2="1191"/><line class="cls-2" x1="4692" y1="2451" x2="4710" y2="2082"/><line class="cls-2" x1="5745" y1="2280" x2="4710" y2="2082"/><line class="cls-2" x1="5745.23" y1="3054" x2="4710.23" y2="3252"/><line class="cls-2" x1="5758.4" y1="2952" x2="5744.98" y2="3054"/><line class="cls-2" x1="4692" y1="2739" x2="4710" y2="3252"/><line class="cls-2" x1="5758.42" y1="2952" x2="5871" y2="2973"/><line class="cls-2" x1="5907" y1="2739" x2="5907" y2="2595"/><line class="cls-2" x1="5871" y1="2973" x2="5907" y2="2739"/><line class="cls-2" x1="5756.09" y1="2364.43" x2="5744.98" y2="2280"/><line class="cls-2" x1="5868.31" y1="2343.5" x2="5907" y2="2595"/><line class="cls-2" x1="5756.09" y1="2364.43" x2="5868.31" y2="2343.5"/></g><g id="Indoor"><line class="cls-1" x1="1641" y1="2694" x2="1641" y2="2802"/><line class="cls-1" x1="1515" y1="2802" x2="1641" y2="2802"/><line class="cls-1" x1="1596" y1="2847" x2="1596" y2="2802"/><line class="cls-1" x1="1515" y1="2910" x2="1596" y2="2910"/><line class="cls-1" x1="1596" y1="2919" x2="1596" y2="2865"/><line class="cls-1" x1="1425" y1="3153" x2="1596" y2="3153"/><line class="cls-1" x1="1596" y1="3162" x2="1596" y2="2964"/><line class="cls-1" x1="1506" y1="3549" x2="1596" y2="3549"/><line class="cls-1" x1="1596" y1="3207" x2="1596" y2="3522"/><line class="cls-1" x1="1515" y1="2667" x2="1596" y2="2667"/><line class="cls-1" x1="1614" y1="2667" x2="1641" y2="2667"/><line class="cls-1" x1="1767" y1="2802" x2="1767" y2="2703"/><line class="cls-1" x1="1767" y1="2685" x2="1767" y2="2667"/><line class="cls-1" x1="1830" y1="2802" x2="1830" y2="2667"/><line class="cls-1" x1="1767" y1="2667" x2="1848" y2="2667"/><line class="cls-1" x1="1992" y1="2667" x2="2037" y2="2667"/><line class="cls-1" x1="2136" y1="2802" x2="2136" y2="2667"/><line class="cls-1" x1="1515" y1="2586" x2="1596" y2="2586"/><line class="cls-1" x1="1992" y1="2586" x2="2145" y2="2586"/><line class="cls-1" x1="2019" y1="2451" x2="2019" y2="2586"/><line class="cls-1" x1="1641" y1="2451" x2="1641" y2="2559"/><line class="cls-1" x1="1704" y1="2451" x2="1704" y2="2586"/><line class="cls-1" x1="1722" y1="2586" x2="1686" y2="2586"/><line class="cls-1" x1="1740" y1="2586" x2="1803" y2="2586"/><line class="cls-1" x1="1767" y1="2550" x2="1767" y2="2451"/><line class="cls-1" x1="1830" y1="2550" x2="1830" y2="2451"/><line class="cls-1" x1="1821" y1="2586" x2="1857" y2="2586"/><line class="cls-1" x1="1875" y1="2586" x2="1920" y2="2586"/><line class="cls-1" x1="1893" y1="2451" x2="1893" y2="2586"/><line class="cls-1" x1="1938" y1="2586" x2="1974" y2="2586"/><line class="cls-1" x1="1956" y1="2451" x2="1956" y2="2586"/><line class="cls-1" x1="2325" y1="2802" x2="2325" y2="2667"/><line class="cls-1" x1="2361" y1="2667" x2="2550" y2="2667"/><line class="cls-1" x1="2514" y1="2802" x2="2514" y2="2667"/><line class="cls-1" x1="2586" y1="2451" x2="2586" y2="2586"/><line class="cls-1" x1="2739" y1="2586" x2="3036" y2="2586"/><line class="cls-1" x1="2757" y1="2586" x2="2757" y2="2451"/><line class="cls-1" x1="2568" y1="2667" x2="2721" y2="2667"/><line class="cls-1" x1="2703" y1="2802" x2="2703" y2="2667"/><line class="cls-1" x1="2757" y1="2532" x2="2766" y2="2532"/><line class="cls-1" x1="2784" y1="2532" x2="2883" y2="2532"/><line class="cls-1" x1="2883" y1="2451" x2="2883" y2="2586"/><line class="cls-1" x1="2883" y1="2667" x2="2883" y2="2802"/><line class="cls-1" x1="2739" y1="2667" x2="2919" y2="2667"/><line class="cls-1" x1="1515" y1="2667" x2="1515" y2="2640"/><line class="cls-1" x1="1515" y1="2577" x2="1515" y2="2604"/><line class="cls-1" x1="3270" y1="2451" x2="3270" y2="2595"/><line class="cls-1" x1="3333" y1="2451" x2="3333" y2="2460"/><line class="cls-1" x1="3513" y1="2802" x2="3513" y2="2793"/><line class="cls-1" x1="3513" y1="2586" x2="3513" y2="2649"/><line class="cls-1" x1="4017" y1="2793" x2="4017" y2="2802"/><line class="cls-1" x1="3891" y1="2793" x2="3891" y2="2802"/><line class="cls-1" x1="3765" y1="2793" x2="3765" y2="2802"/><line class="cls-1" x1="4143" y1="2793" x2="4143" y2="2802"/><line class="cls-1" x1="4269" y1="2793" x2="4269" y2="2802"/><line class="cls-1" x1="3513" y1="2649" x2="3765" y2="2649"/><line class="cls-1" x1="4413" y1="2586" x2="4413" y2="2595"/><line class="cls-1" x1="4440" y1="2595" x2="4413" y2="2595"/><line class="cls-1" x1="4386" y1="2586" x2="4413" y2="2586"/><line class="cls-1" x1="4467" y1="2595" x2="4512" y2="2595"/><line class="cls-1" x1="4494" y1="2451" x2="4494" y2="2595"/><line class="cls-1" x1="4692" y1="2514" x2="4692" y2="2613"/><line class="cls-1" x1="4530" y1="2595" x2="4692" y2="2595"/><line class="cls-1" x1="4548" y1="2451" x2="4548" y2="2613"/><line class="cls-1" x1="4548" y1="2739" x2="4548" y2="2721"/><line class="cls-1" x1="3639" y1="2802" x2="3639" y2="2793"/><line class="cls-1" x1="3387" y1="2442" x2="3387" y2="2460"/><line class="cls-1" x1="3387" y1="2370" x2="3387" y2="2379"/><line class="cls-1" x1="3387" y1="2298" x2="3387" y2="2307"/><line class="cls-1" x1="3387" y1="2235" x2="3522" y2="2235"/><line class="cls-1" x1="3270" y1="2802" x2="3270" y2="2658"/><line class="cls-1" x1="1596" y1="3180" x2="1596" y2="3189"/><line class="cls-1" x1="1596" y1="2937" x2="1596" y2="2946"/><line class="cls-1" x1="1596" y1="3234" x2="1605" y2="3234"/><line class="cls-1" x1="1695" y1="3234" x2="1704" y2="3234"/><line class="cls-1" x1="1641" y1="2631" x2="1641" y2="2676"/><line class="cls-1" x1="1641" y1="2577" x2="1641" y2="2613"/><line class="cls-1" x1="1614" y1="2586" x2="1668" y2="2586"/><line class="cls-1" x1="1767" y1="2586" x2="1767" y2="2577"/><line class="cls-1" x1="1830" y1="2586" x2="1830" y2="2577"/><line class="cls-1" x1="1893" y1="2667" x2="1893" y2="2802"/><line class="cls-1" x1="1866" y1="2667" x2="1974" y2="2667"/><line class="cls-1" x1="2019" y1="2802" x2="2019" y2="2667"/><line class="cls-1" x1="2055" y1="2667" x2="2145" y2="2667"/><line class="cls-1" x1="2163" y1="2667" x2="2343" y2="2667"/><line class="cls-1" x1="2568" y1="2586" x2="2721" y2="2586"/><line class="cls-1" x1="2136" y1="2451" x2="2136" y2="2460"/><line class="cls-1" x1="2136" y1="2586" x2="2136" y2="2595"/><line class="cls-1" x1="3063" y1="2451" x2="3063" y2="2586"/><line class="cls-1" x1="3054" y1="2586" x2="3225" y2="2586"/><line class="cls-1" x1="3063" y1="2667" x2="3063" y2="2802"/><line class="cls-1" x1="2937" y1="2667" x2="3081" y2="2667"/><line class="cls-1" x1="3099" y1="2667" x2="3270" y2="2667"/><line class="cls-1" x1="3243" y1="2586" x2="3270" y2="2586"/><line class="cls-1" x1="3387" y1="2793" x2="3387" y2="2802"/><line class="cls-1" x1="3513" y1="2451" x2="3387" y2="2451"/><line class="cls-1" x1="3513" y1="2451" x2="3513" y2="2496"/><line class="cls-1" x1="3864" y1="2640" x2="3765" y2="2640"/><line class="cls-1" x1="3963" y1="2640" x2="4332" y2="2640"/><line class="cls-1" x1="4332" y1="2586" x2="4332" y2="2640"/><line class="cls-1" x1="4359" y1="2586" x2="4332" y2="2586"/><line class="cls-1" x1="4692" y1="2739" x2="4692" y2="2721"/><line class="cls-1" x1="4692" y1="2595" x2="4692" y2="2613"/><line class="cls-1" x1="2262" y1="2595" x2="2262" y2="2451"/><line class="cls-1" x1="2262" y1="2559" x2="2271" y2="2559"/><line class="cls-1" x1="2253" y1="2586" x2="2271" y2="2586"/><line class="cls-1" x1="2289" y1="2586" x2="2334" y2="2586"/><line class="cls-1" x1="2442" y1="2559" x2="2487" y2="2559"/><line class="cls-1" x1="2325" y1="2451" x2="2325" y2="2586"/><line class="cls-1" x1="2388" y1="2451" x2="2388" y2="2586"/><line class="cls-1" x1="2361" y1="2586" x2="2415" y2="2586"/><line class="cls-1" x1="2370" y1="2559" x2="2370" y2="2568"/><line class="cls-1" x1="2370" y1="2586" x2="2370" y2="2577"/><line class="cls-1" x1="2406" y1="2559" x2="2406" y2="2568"/><line class="cls-1" x1="2406" y1="2586" x2="2406" y2="2577"/><line class="cls-1" x1="2451" y1="2586" x2="2451" y2="2451"/><line class="cls-1" x1="2442" y1="2586" x2="2487" y2="2586"/><line class="cls-1" x1="2379" y1="2523" x2="2397" y2="2523"/><line class="cls-1" x1="2379" y1="2541" x2="2397" y2="2541"/><line class="cls-1" x1="2505" y1="2559" x2="2514" y2="2559"/><line class="cls-1" x1="2505" y1="2586" x2="2550" y2="2586"/><line class="cls-1" x1="2514" y1="2451" x2="2514" y2="2586"/><line class="cls-1" x1="2064" y1="3702" x2="2064" y2="3666"/><line class="cls-1" x1="1902" y1="3666" x2="1965" y2="3666"/><line class="cls-1" x1="2145" y1="3666" x2="1983" y2="3666"/><line class="cls-1" x1="1902" y1="3873" x2="1902" y2="3711"/><line class="cls-1" x1="1902" y1="3693" x2="1902" y2="3666"/><line class="cls-1" x1="1686" y1="3873" x2="1686" y2="3738"/><line class="cls-1" x1="1587" y1="3720" x2="1587" y2="3738"/><line class="cls-1" x1="1587" y1="3666" x2="1587" y2="3684"/><line class="cls-1" x1="1551" y1="3738" x2="1839" y2="3738"/><line class="cls-1" x1="1587" y1="3666" x2="1425" y2="3666"/><line class="cls-1" x1="1236" y1="3873" x2="1236" y2="3738"/><line class="cls-1" x1="1533" y1="3738" x2="1299" y2="3738"/><line class="cls-1" x1="1317" y1="3873" x2="1317" y2="3738"/><line class="cls-1" x1="1146" y1="3738" x2="1281" y2="3738"/><line class="cls-1" x1="1209" y1="3666" x2="1245" y2="3666"/><line class="cls-1" x1="1227" y1="3549" x2="1227" y2="3666"/><line class="cls-1" x1="1353" y1="3666" x2="1407" y2="3666"/><line class="cls-1" x1="1353" y1="3621" x2="1452" y2="3621"/><line class="cls-1" x1="1362" y1="3666" x2="1362" y2="3657"/><line class="cls-1" x1="1362" y1="3621" x2="1362" y2="3630"/><line class="cls-1" x1="1326" y1="3549" x2="1326" y2="3666"/><line class="cls-1" x1="1263" y1="3666" x2="1335" y2="3666"/><line class="cls-1" x1="1326" y1="3621" x2="1335" y2="3621"/><line class="cls-1" x1="1452" y1="3549" x2="1452" y2="3666"/><line class="cls-1" x1="1191" y1="3666" x2="1047" y2="3666"/><line class="cls-1" x1="1092" y1="3549" x2="1092" y2="3666"/><line class="cls-1" x1="1128" y1="3738" x2="912" y2="3738"/><line class="cls-1" x1="894" y1="3738" x2="795" y2="3738"/><line class="cls-1" x1="822" y1="3873" x2="822" y2="3738"/><line class="cls-1" x1="660" y1="3666" x2="777" y2="3666"/><line class="cls-1" x1="615" y1="3549" x2="615" y2="3666"/><line class="cls-1" x1="642" y1="3666" x2="615" y2="3666"/><line class="cls-1" x1="714" y1="3738" x2="714" y2="3873"/><line class="cls-1" x1="777" y1="3738" x2="696" y2="3738"/><line class="cls-1" x1="678" y1="3738" x2="606" y2="3738"/><line class="cls-1" x1="660" y1="3873" x2="660" y2="3738"/><line class="cls-1" x1="606" y1="3801" x2="660" y2="3801"/><line class="cls-1" x1="606" y1="3837" x2="660" y2="3837"/><line class="cls-1" x1="606" y1="3828" x2="606" y2="3846"/><line class="cls-1" x1="606" y1="3873" x2="606" y2="3864"/><line class="cls-1" x1="606" y1="3810" x2="606" y2="3792"/><line class="cls-1" x1="606" y1="3738" x2="606" y2="3747"/><line class="cls-1" x1="489" y1="3873" x2="489" y2="3738"/><line class="cls-1" x1="174" y1="3873" x2="174" y2="3738"/><line class="cls-1" x1="219" y1="3738" x2="489" y2="3738"/><line class="cls-1" x1="120" y1="3738" x2="201" y2="3738"/><line class="cls-1" x1="3" y1="3738" x2="102" y2="3738"/><line class="cls-1" x1="75" y1="3666" x2="75" y2="3585"/><line class="cls-1" x1="138" y1="3549" x2="138" y2="3666"/><line class="cls-1" x1="102" y1="3666" x2="147" y2="3666"/><line class="cls-1" x1="39" y1="3666" x2="84" y2="3666"/><line class="cls-1" x1="21" y1="3666" x2="3" y2="3666"/><line class="cls-1" x1="39" y1="3630" x2="138" y2="3630"/><line class="cls-1" x1="165" y1="3666" x2="426" y2="3666"/><line class="cls-1" x1="372" y1="3648" x2="372" y2="3666"/><line class="cls-1" x1="444" y1="3666" x2="498" y2="3666"/><line class="cls-1" x1="498" y1="3549" x2="498" y2="3675"/><line class="cls-1" x1="552" y1="3549" x2="552" y2="3675"/><line class="cls-1" x1="552" y1="3666" x2="543" y2="3666"/><line class="cls-1" x1="498" y1="3666" x2="507" y2="3666"/><line class="cls-1" x1="552" y1="3603" x2="570" y2="3603"/><line class="cls-1" x1="597" y1="3603" x2="615" y2="3603"/><line class="cls-1" x1="552" y1="3648" x2="570" y2="3648"/><line class="cls-1" x1="597" y1="3648" x2="615" y2="3648"/><line class="cls-1" x1="3" y1="3630" x2="21" y2="3630"/><line class="cls-1" x1="372" y1="3549" x2="372" y2="3630"/><line class="cls-1" x1="678" y1="3549" x2="678" y2="3630"/><line class="cls-1" x1="678" y1="3666" x2="678" y2="3648"/><line class="cls-1" x1="741" y1="3549" x2="741" y2="3666"/><line class="cls-1" x1="795" y1="3666" x2="1029" y2="3666"/><line class="cls-1" x1="1101" y1="3873" x2="1101" y2="3738"/><line class="cls-1" x1="1857" y1="3738" x2="1902" y2="3738"/><line class="cls-1" x1="1902" y1="3756" x2="1965" y2="3756"/><line class="cls-1" x1="1983" y1="3756" x2="2145" y2="3756"/><line class="cls-1" x1="2064" y1="3756" x2="2064" y2="3720"/><line class="cls-1" x1="3387" y1="2217" x2="3387" y2="2244"/><line class="cls-1" x1="3378" y1="2181" x2="3522" y2="2181"/><line class="cls-1" x1="3387" y1="2199" x2="3387" y2="2091"/><line class="cls-1" x1="3387" y1="2073" x2="3387" y2="1812"/><line class="cls-1" x1="3522" y1="1911" x2="3387" y2="1911"/><line class="cls-1" x1="3387" y1="1794" x2="3387" y2="1767"/><line class="cls-1" x1="3522" y1="1785" x2="3387" y2="1785"/><line class="cls-1" x1="3387" y1="1749" x2="3387" y2="1560"/><line class="cls-1" x1="3333" y1="1533" x2="3342" y2="1533"/><line class="cls-1" x1="3378" y1="1533" x2="3522" y2="1533"/><line class="cls-1" x1="3387" y1="1542" x2="3387" y2="1533"/><line class="cls-1" x1="3387" y1="1659" x2="3522" y2="1659"/><line class="cls-1" x1="3333" y1="1533" x2="3333" y2="1524"/><line class="cls-1" x1="3396" y1="1533" x2="3396" y2="1479"/><line class="cls-1" x1="3522" y1="1533" x2="3522" y2="1479"/><line class="cls-1" x1="3396" y1="1497" x2="3432" y2="1497"/><line class="cls-1" x1="3450" y1="1497" x2="3522" y2="1497"/><line class="cls-1" x1="3396" y1="1452" x2="3396" y2="1398"/><line class="cls-1" x1="3711" y1="1533" x2="3711" y2="1398"/><line class="cls-1" x1="3387" y1="1335" x2="3387" y2="1227"/><line class="cls-1" x1="3405" y1="1335" x2="3387" y2="1335"/><line class="cls-1" x1="3468" y1="1497" x2="3468" y2="1479"/><line class="cls-1" x1="3396" y1="1398" x2="3495" y2="1398"/><line class="cls-1" x1="3396" y1="1434" x2="3522" y2="1434"/><line class="cls-1" x1="3522" y1="1398" x2="3522" y2="1452"/><line class="cls-1" x1="3513" y1="1398" x2="3567" y2="1398"/><line class="cls-1" x1="3585" y1="1398" x2="3612" y2="1398"/><line class="cls-1" x1="3594" y1="1533" x2="3594" y2="1398"/><line class="cls-1" x1="3549" y1="1443" x2="3594" y2="1443"/><line class="cls-1" x1="3648" y1="1398" x2="3648" y2="1533"/><line class="cls-1" x1="3630" y1="1398" x2="3666" y2="1398"/><line class="cls-1" x1="3522" y1="1182" x2="3378" y2="1182"/><line class="cls-1" x1="3450" y1="1335" x2="3450" y2="1182"/><line class="cls-1" x1="3486" y1="1182" x2="3486" y2="1200"/><line class="cls-1" x1="3450" y1="1200" x2="3459" y2="1200"/><line class="cls-1" x1="3477" y1="1200" x2="3495" y2="1200"/><line class="cls-1" x1="3522" y1="1200" x2="3513" y2="1200"/><line class="cls-1" x1="3432" y1="1335" x2="3567" y2="1335"/><line class="cls-1" x1="3657" y1="1335" x2="3657" y2="1200"/><line class="cls-1" x1="3585" y1="1335" x2="3792" y2="1335"/><line class="cls-1" x1="3693" y1="1398" x2="3738" y2="1398"/><line class="cls-1" x1="3846" y1="1335" x2="3846" y2="1200"/><line class="cls-1" x1="3810" y1="1335" x2="3873" y2="1335"/><line class="cls-1" x1="3891" y1="1335" x2="4062" y2="1335"/><line class="cls-1" x1="3918" y1="1200" x2="3918" y2="1335"/><line class="cls-1" x1="3756" y1="1398" x2="3936" y2="1398"/><line class="cls-1" x1="3981" y1="1533" x2="3981" y2="1398"/><line class="cls-1" x1="3963" y1="1398" x2="3999" y2="1398"/><line class="cls-1" x1="4017" y1="1398" x2="4224" y2="1398"/><line class="cls-1" x1="4224" y1="1425" x2="4224" y2="1398"/><line class="cls-1" x1="4224" y1="1533" x2="4224" y2="1443"/><line class="cls-1" x1="4107" y1="1335" x2="4107" y2="1200"/><line class="cls-1" x1="4080" y1="1335" x2="4179" y2="1335"/><line class="cls-1" x1="4197" y1="1335" x2="4251" y2="1335"/><line class="cls-1" x1="4224" y1="1200" x2="4224" y2="1335"/><line class="cls-1" x1="4269" y1="1335" x2="4314" y2="1335"/><line class="cls-1" x1="4296" y1="1200" x2="4296" y2="1335"/><line class="cls-1" x1="4350" y1="1200" x2="4350" y2="1335"/><line class="cls-1" x1="4332" y1="1335" x2="4368" y2="1335"/><line class="cls-1" x1="4350" y1="1533" x2="4350" y2="1443"/><line class="cls-1" x1="4350" y1="1425" x2="4350" y2="1398"/><line class="cls-1" x1="4503" y1="1398" x2="4350" y2="1398"/><line class="cls-1" x1="4476" y1="1335" x2="4476" y2="1200"/><line class="cls-1" x1="4386" y1="1335" x2="4503" y2="1335"/><line class="cls-1" x1="4521" y1="1335" x2="4611" y2="1335"/><line class="cls-1" x1="4602" y1="1200" x2="4602" y2="1353"/><line class="cls-1" x1="4602" y1="1533" x2="4602" y2="1380"/><line class="cls-1" x1="4521" y1="1398" x2="4611" y2="1398"/><line class="cls-1" x1="2703" y1="1398" x2="2766" y2="1398"/><line class="cls-1" x1="2703" y1="1335" x2="2766" y2="1335"/><line class="cls-1" x1="2784" y1="1335" x2="2910" y2="1335"/><line class="cls-1" x1="2829" y1="1335" x2="2829" y2="1200"/><line class="cls-1" x1="2829" y1="1416" x2="2829" y2="1398"/><line class="cls-1" x1="2784" y1="1398" x2="2865" y2="1398"/><line class="cls-1" x1="2937" y1="1398" x2="2991" y2="1398"/><line class="cls-1" x1="2955" y1="1533" x2="2955" y2="1398"/><line class="cls-1" x1="3063" y1="1398" x2="3162" y2="1398"/><line class="cls-1" x1="3090" y1="1533" x2="3090" y2="1398"/><line class="cls-1" x1="3090" y1="1335" x2="3090" y2="1200"/><line class="cls-1" x1="3000" y1="1335" x2="3108" y2="1335"/><line class="cls-1" x1="3180" y1="1335" x2="3243" y2="1335"/><line class="cls-1" x1="3207" y1="1200" x2="3207" y2="1353"/><line class="cls-1" x1="3207" y1="1533" x2="3207" y2="1380"/><line class="cls-1" x1="3180" y1="1398" x2="3243" y2="1398"/><line class="cls-1" x1="3279" y1="1533" x2="3279" y2="1398"/><line class="cls-1" x1="3261" y1="1398" x2="3279" y2="1398"/><line class="cls-1" x1="3279" y1="1335" x2="3279" y2="1200"/><line class="cls-1" x1="3261" y1="1335" x2="3297" y2="1335"/><line class="cls-1" x1="3333" y1="1191" x2="3333" y2="1335"/><line class="cls-1" x1="3315" y1="1335" x2="3333" y2="1335"/><line class="cls-1" x1="3333" y1="1182" x2="3342" y2="1182"/><line class="cls-1" x1="3387" y1="975" x2="3387" y2="480"/><line class="cls-1" x1="3333" y1="453" x2="3342" y2="453"/><line class="cls-1" x1="3378" y1="480" x2="3441" y2="480"/><line class="cls-1" x1="3387" y1="651" x2="3441" y2="651"/><line class="cls-1" x1="3387" y1="840" x2="3522" y2="840"/><line class="cls-1" x1="3144" y1="1335" x2="3144" y2="1200"/><line class="cls-1" x1="3126" y1="1335" x2="3162" y2="1335"/><line class="cls-1" x1="3018" y1="1533" x2="3018" y2="1398"/><line class="cls-1" x1="3009" y1="1398" x2="3045" y2="1398"/><line class="cls-1" x1="2955" y1="1335" x2="2955" y2="1200"/><line class="cls-1" x1="2937" y1="1335" x2="2982" y2="1335"/><line class="cls-1" x1="2892" y1="1533" x2="2892" y2="1398"/><line class="cls-1" x1="2883" y1="1398" x2="2910" y2="1398"/><line class="cls-1" x1="2829" y1="1533" x2="2829" y2="1434"/><line class="cls-1" x1="3387" y1="1128" x2="3522" y2="1128"/><line class="cls-1" x1="3387" y1="1146" x2="3387" y2="1119"/><line class="cls-1" x1="3387" y1="1011" x2="3522" y2="1011"/><line class="cls-1" x1="3387" y1="1101" x2="3387" y2="1002"/><line class="cls-1" x1="3468" y1="651" x2="3522" y2="651"/><line class="cls-1" x1="3468" y1="1452" x2="3468" y2="1434"/><line class="cls-1" x1="4269" y1="2739" x2="4266" y2="2739"/><line class="cls-3" x1="4260" y1="2739" x2="4023" y2="2739"/><polyline class="cls-1" points="4020 2739 4017 2739 4017 2742"/><line class="cls-4" x1="4017" y1="2747.33" x2="4017" y2="2787.33"/><polyline class="cls-1" points="4017 2790 4017 2793 4020 2793"/><line class="cls-3" x1="4026" y1="2793" x2="4263" y2="2793"/><line class="cls-1" x1="4266" y1="2793" x2="4269" y2="2793"/><line class="cls-1" x1="750" y1="2532" x2="750" y2="2613"/><line class="cls-1" x1="471" y1="2532" x2="471" y2="2613"/><line class="cls-1" x1="705" y1="2532" x2="705" y2="2613"/><line class="cls-1" x1="426" y1="2532" x2="426" y2="2613"/><line class="cls-1" x1="705" y1="2613" x2="750" y2="2613"/><line class="cls-1" x1="426" y1="2613" x2="471" y2="2613"/><line class="cls-1" x1="498" y1="2613" x2="678" y2="2613"/><line class="cls-1" x1="777" y1="2613" x2="1038" y2="2613"/><line class="cls-1" x1="399" y1="2613" x2="138" y2="2613"/><line class="cls-1" x1="219" y1="2667" x2="219" y2="2649"/><line class="cls-1" x1="219" y1="2613" x2="219" y2="2631"/><line class="cls-1" x1="957" y1="2667" x2="957" y2="2649"/><line class="cls-1" x1="957" y1="2613" x2="957" y2="2631"/><line class="cls-1" x1="192" y1="2532" x2="192" y2="2613"/><line class="cls-1" x1="984" y1="2532" x2="984" y2="2613"/><line class="cls-1" x1="3333" y1="453" x2="3333" y2="444"/><line class="cls-1" x1="3396" y1="372" x2="3396" y2="318"/><line class="cls-1" x1="3522" y1="453" x2="3522" y2="399"/><line class="cls-1" x1="3396" y1="318" x2="3423" y2="318"/><line class="cls-1" x1="3468" y1="417" x2="3522" y2="417"/><line class="cls-1" x1="3711" y1="453" x2="3711" y2="318"/><line class="cls-1" x1="3468" y1="426" x2="3468" y2="399"/><line class="cls-1" x1="3468" y1="372" x2="3468" y2="318"/><line class="cls-1" x1="3468" y1="318" x2="3495" y2="318"/><line class="cls-1" x1="3396" y1="354" x2="3522" y2="354"/><line class="cls-1" x1="3522" y1="318" x2="3522" y2="372"/><line class="cls-1" x1="3513" y1="318" x2="3567" y2="318"/><line class="cls-1" x1="3585" y1="318" x2="3612" y2="318"/><line class="cls-1" x1="3594" y1="453" x2="3594" y2="318"/><line class="cls-1" x1="3648" y1="318" x2="3648" y2="453"/><line class="cls-1" x1="3630" y1="318" x2="3675" y2="318"/><line class="cls-1" x1="3594" y1="120" x2="3594" y2="255"/><line class="cls-1" x1="3423" y1="255" x2="3675" y2="255"/><line class="cls-1" x1="3693" y1="318" x2="3738" y2="318"/><line class="cls-1" x1="3711" y1="255" x2="3711" y2="120"/><line class="cls-1" x1="3693" y1="255" x2="3792" y2="255"/><line class="cls-1" x1="3846" y1="255" x2="3846" y2="120"/><line class="cls-1" x1="3810" y1="255" x2="3882" y2="255"/><line class="cls-1" x1="3981" y1="453" x2="3981" y2="318"/><line class="cls-1" x1="3900" y1="318" x2="4062" y2="318"/><line class="cls-1" x1="3981" y1="255" x2="3981" y2="120"/><line class="cls-1" x1="3900" y1="255" x2="4062" y2="255"/><line class="cls-1" x1="4107" y1="453" x2="4107" y2="318"/><line class="cls-1" x1="4080" y1="318" x2="4224" y2="318"/><line class="cls-1" x1="4224" y1="345" x2="4224" y2="318"/><line class="cls-1" x1="4224" y1="453" x2="4224" y2="363"/><line class="cls-1" x1="4107" y1="255" x2="4107" y2="120"/><line class="cls-1" x1="4080" y1="255" x2="4179" y2="255"/><line class="cls-1" x1="4197" y1="255" x2="4251" y2="255"/><line class="cls-1" x1="4224" y1="120" x2="4224" y2="255"/><line class="cls-1" x1="4269" y1="255" x2="4314" y2="255"/><line class="cls-1" x1="4296" y1="120" x2="4296" y2="255"/><line class="cls-1" x1="4350" y1="120" x2="4350" y2="255"/><line class="cls-1" x1="4332" y1="255" x2="4431" y2="255"/><line class="cls-1" x1="4350" y1="453" x2="4350" y2="363"/><line class="cls-1" x1="4350" y1="345" x2="4350" y2="318"/><line class="cls-1" x1="4440" y1="318" x2="4350" y2="318"/><line class="cls-1" x1="4476" y1="453" x2="4476" y2="318"/><line class="cls-1" x1="4476" y1="255" x2="4476" y2="120"/><line class="cls-1" x1="4449" y1="255" x2="4503" y2="255"/><line class="cls-1" x1="4584" y1="255" x2="4629" y2="255"/><line class="cls-1" x1="4602" y1="120" x2="4602" y2="255"/><line class="cls-1" x1="4602" y1="453" x2="4602" y2="318"/><line class="cls-1" x1="4521" y1="318" x2="4566" y2="318"/><line class="cls-1" x1="2703" y1="318" x2="2766" y2="318"/><line class="cls-1" x1="2703" y1="255" x2="2766" y2="255"/><line class="cls-1" x1="2784" y1="255" x2="2910" y2="255"/><line class="cls-1" x1="2955" y1="120" x2="2955" y2="255"/><line class="cls-1" x1="2892" y1="255" x2="2892" y2="120"/><line class="cls-1" x1="2892" y1="453" x2="2892" y2="318"/><line class="cls-1" x1="2784" y1="318" x2="2910" y2="318"/><line class="cls-1" x1="2928" y1="318" x2="2982" y2="318"/><line class="cls-1" x1="2955" y1="453" x2="2955" y2="318"/><line class="cls-1" x1="3000" y1="318" x2="3162" y2="318"/><line class="cls-1" x1="3090" y1="453" x2="3090" y2="318"/><line class="cls-1" x1="3090" y1="255" x2="3090" y2="120"/><line class="cls-1" x1="2928" y1="255" x2="3027" y2="255"/><line class="cls-1" x1="3180" y1="255" x2="3243" y2="255"/><line class="cls-1" x1="3207" y1="120" x2="3207" y2="255"/><line class="cls-1" x1="3207" y1="453" x2="3207" y2="318"/><line class="cls-1" x1="3180" y1="318" x2="3243" y2="318"/><line class="cls-1" x1="3279" y1="453" x2="3279" y2="318"/><line class="cls-1" x1="3261" y1="318" x2="3279" y2="318"/><line class="cls-1" x1="3279" y1="255" x2="3279" y2="120"/><line class="cls-1" x1="3261" y1="255" x2="3297" y2="255"/><line class="cls-1" x1="3333" y1="120" x2="3333" y2="255"/><line class="cls-1" x1="3315" y1="255" x2="3405" y2="255"/><line class="cls-1" x1="3045" y1="255" x2="3162" y2="255"/><line class="cls-1" x1="3468" y1="480" x2="3468" y2="444"/><line class="cls-1" x1="3441" y1="318" x2="3468" y2="318"/><line class="cls-1" x1="3846" y1="453" x2="3846" y2="318"/><line class="cls-1" x1="3756" y1="318" x2="3882" y2="318"/><line class="cls-1" x1="4800" y1="219" x2="4800" y2="120"/><line class="cls-1" x1="4647" y1="255" x2="4773" y2="255"/><line class="cls-1" x1="4647" y1="318" x2="4773" y2="318"/><line class="cls-1" x1="4791" y1="318" x2="4872" y2="318"/><line class="cls-1" x1="4791" y1="255" x2="4872" y2="255"/><line class="cls-1" x1="3522" y1="480" x2="3468" y2="480"/><line class="cls-1" x1="3396" y1="480" x2="3396" y2="399"/><line class="cls-1" x1="4413" y1="453" x2="4413" y2="318"/><line class="cls-1" x1="4458" y1="318" x2="4503" y2="318"/><line class="cls-1" x1="4539" y1="453" x2="4539" y2="318"/><line class="cls-1" x1="4548" y1="255" x2="4548" y2="120"/><line class="cls-1" x1="4566" y1="255" x2="4521" y2="255"/><line class="cls-1" x1="4629" y1="318" x2="4584" y2="318"/><line class="cls-1" x1="4665" y1="453" x2="4665" y2="318"/><line class="cls-1" x1="4800" y1="255" x2="4800" y2="237"/><line class="cls-1" x1="2433" y1="417" x2="2433" y2="318"/><line class="cls-1" x1="2433" y1="291" x2="2370" y2="291"/><line class="cls-1" x1="2433" y1="282" x2="2433" y2="300"/><line class="cls-1" x1="2370" y1="417" x2="2370" y2="192"/><line class="cls-1" x1="2433" y1="264" x2="2433" y2="192"/><line class="cls-1" x1="2433" y1="192" x2="2361" y2="192"/><line class="cls-1" x1="2343" y1="192" x2="1947" y2="192"/><line class="cls-1" x1="1965" y1="246" x2="1965" y2="174"/><line class="cls-1" x1="1920" y1="246" x2="1929" y2="246"/><line class="cls-1" x1="1956" y1="246" x2="1965" y2="246"/><line class="cls-1" x1="1920" y1="399" x2="1920" y2="291"/><line class="cls-1" x1="1920" y1="246" x2="1920" y2="264"/><line class="cls-1" x1="1920" y1="336" x2="1929" y2="336"/><line class="cls-1" x1="1956" y1="336" x2="1965" y2="336"/><line class="cls-1" x1="1965" y1="417" x2="1965" y2="336"/><line class="cls-1" x1="2505" y1="147" x2="2505" y2="3"/><line class="cls-1" x1="2532" y1="147" x2="2559" y2="147"/><line class="cls-1" x1="2361" y1="138" x2="2505" y2="138"/><line class="cls-1" x1="2343" y1="138" x2="2244" y2="138"/><line class="cls-1" x1="2226" y1="138" x2="2118" y2="138"/><line class="cls-1" x1="2100" y1="138" x2="1947" y2="138"/><line class="cls-1" x1="2046" y1="3" x2="2046" y2="111"/><line class="cls-1" x1="2172" y1="3" x2="2172" y2="138"/><line class="cls-1" x1="2298" y1="3" x2="2298" y2="138"/><line class="cls-1" x1="2559" y1="318" x2="2559" y2="309"/><line class="cls-1" x1="2559" y1="255" x2="2559" y2="264"/><line class="cls-1" x1="2703" y1="255" x2="2703" y2="264"/><line class="cls-1" x1="2703" y1="318" x2="2703" y2="309"/><line class="cls-1" x1="1965" y1="129" x2="1965" y2="156"/><line class="cls-1" x1="1920" y1="138" x2="1938" y2="138"/><line class="cls-1" x1="1920" y1="129" x2="1965" y2="129"/><line class="cls-1" x1="1920" y1="192" x2="1938" y2="192"/><line class="cls-1" x1="4773" y1="2739" x2="5151" y2="2739"/><line class="cls-1" x1="5034" y1="2766" x2="4863" y2="2766"/><line class="cls-1" x1="4862.05" y1="2922.02" x2="4780.04" y2="2918.56"/><line class="cls-1" x1="4867.68" y1="3043.94" x2="4785.4" y2="3055.19"/><line class="cls-1" x1="5636.88" y1="2930.46" x2="5758.42" y2="2952"/><line class="cls-1" x1="5303.49" y1="2872.7" x2="5614.74" y2="2926.54"/><line class="cls-1" x1="5155.24" y1="2847.05" x2="5163.42" y2="2848.47"/><line class="cls-1" x1="5691.38" y1="3038.71" x2="5702.98" y2="2942.18"/><line class="cls-1" x1="5688.23" y1="3064.86" x2="5689.69" y2="3052.73"/><line class="cls-1" x1="5313" y1="2460" x2="5313" y2="2874.34"/><line class="cls-1" x1="4778.76" y1="2885.93" x2="4782.28" y2="2975.72"/><line class="cls-1" x1="4773" y1="2739" x2="4778.16" y2="2870.5"/><line class="cls-1" x1="4773" y1="2739" x2="4773" y2="2739"/><line class="cls-1" x1="5049" y1="3148.64" x2="4893.4" y2="3178.36"/><line class="cls-1" x1="4862.05" y1="2922.02" x2="4867.68" y2="3043.94"/><line class="cls-1" x1="5151" y1="2739" x2="5167.68" y2="3164.49"/><line class="cls-1" x1="4863" y1="2739" x2="4863" y2="2766"/><line class="cls-1" x1="4893.4" y1="3178.36" x2="4893.4" y2="3216.91"/><line class="cls-1" x1="4781.95" y1="2967.27" x2="4790.06" y2="2967.27"/><line class="cls-1" x1="4805.95" y1="2967.27" x2="4864.14" y2="2967.27"/><line class="cls-1" x1="4773" y1="2595" x2="5151" y2="2595"/><line class="cls-1" x1="5034" y1="2568" x2="4863" y2="2568"/><line class="cls-1" x1="4862.05" y1="2411.98" x2="4780.04" y2="2415.44"/><line class="cls-1" x1="4867.68" y1="2290.06" x2="4785.4" y2="2278.81"/><line class="cls-1" x1="5155.24" y1="2486.95" x2="5163.42" y2="2485.53"/><line class="cls-1" x1="4787.19" y1="2233.08" x2="4792.5" y2="2097.74"/><line class="cls-1" x1="4784.81" y1="2293.72" x2="4786.66" y2="2246.71"/><line class="cls-1" x1="4787.19" y1="3101.69" x2="4792.5" y2="3237.03"/><line class="cls-1" x1="4782.82" y1="2990.2" x2="4786.66" y2="3088.06"/><line class="cls-1" x1="4778.76" y1="2448.07" x2="4784.33" y2="2305.96"/><line class="cls-1" x1="4773" y1="2595" x2="4778.16" y2="2463.5"/><line class="cls-1" x1="4773" y1="2595" x2="4773" y2="2595"/><line class="cls-1" x1="5049" y1="2185.36" x2="4893.4" y2="2155.64"/><line class="cls-1" x1="4862.05" y1="2411.98" x2="4867.68" y2="2290.06"/><line class="cls-1" x1="5151" y1="2595" x2="5167.68" y2="2169.51"/><line class="cls-1" x1="4863" y1="2595" x2="4863" y2="2568"/><line class="cls-1" x1="4893.4" y1="2155.64" x2="4893.4" y2="2117.09"/><line class="cls-1" x1="4783.44" y1="2329.09" x2="4791.79" y2="2329.09"/><line class="cls-1" x1="4807.68" y1="2329.09" x2="4865.86" y2="2329.09"/><line class="cls-1" x1="5907" y1="2739" x2="5817" y2="2739"/><line class="cls-1" x1="5889" y1="2595" x2="5817" y2="2595"/><line class="cls-1" x1="5817" y1="2739" x2="5817" y2="2595"/><line class="cls-1" x1="5817" y1="2640" x2="5880" y2="2640"/><line class="cls-1" x1="5880" y1="2622" x2="5880" y2="2640"/><line class="cls-1" x1="5880" y1="2595" x2="5880" y2="2604"/><line class="cls-1" x1="5857.08" y1="2946.46" x2="5889" y2="2739"/><line class="cls-1" x1="5853.5" y1="2969.74" x2="5855.15" y2="2959.06"/><line class="cls-1" x1="5636.88" y1="2403.54" x2="5853.63" y2="2365.12"/><line class="cls-1" x1="5303.49" y1="2461.3" x2="5614.74" y2="2407.46"/><line class="cls-1" x1="5691.38" y1="2295.29" x2="5702.98" y2="2391.82"/><line class="cls-1" x1="5688.23" y1="2269.14" x2="5689.69" y2="2281.27"/><line class="cls-1" x1="5853.63" y1="2365.12" x2="5889" y2="2595"/><line class="cls-1" x1="5025" y1="2640" x2="5022" y2="2640"/><line class="cls-5" x1="5016.18" y1="2640" x2="4832.91" y2="2640"/><polyline class="cls-1" points="4830 2640 4827 2640 4827 2643"/><line class="cls-4" x1="4827" y1="2648.33" x2="4827" y2="2688.33"/><polyline class="cls-1" points="4827 2691 4827 2694 4830 2694"/><line class="cls-5" x1="4835.82" y1="2694" x2="5019.09" y2="2694"/><line class="cls-1" x1="5022" y1="2694" x2="5025" y2="2694"/><line class="cls-1" x1="4692" y1="2451" x2="4692" y2="2496"/><line class="cls-1" x1="1389" y1="3666" x2="1389" y2="3603"/><line class="cls-1" x1="3387" y1="1164" x2="3387" y2="1209"/><line class="cls-1" x1="2163" y1="2586" x2="2235" y2="2586"/><line class="cls-1" x1="2415" y1="2559" x2="2361" y2="2559"/><line class="cls-1" x1="2334" y1="2559" x2="2289" y2="2559"/><line class="cls-1" x1="1596" y1="3549" x2="1596" y2="3540"/><line class="cls-1" x1="1506" y1="3396" x2="1596" y2="3396"/><line class="cls-1" x1="1911" y1="3666" x2="1911" y2="3549"/><line class="cls-1" x1="3765" y1="2649" x2="3765" y2="2640"/><line class="cls-1" x1="3882" y1="2640" x2="3945" y2="2640"/><line class="cls-1" x1="5757.83" y1="2377.97" x2="5758.35" y2="2382.01"/><line class="cls-1" x1="5756.09" y1="2364.43" x2="5756.8" y2="2369.94"/></g><g id="Stairs"><line class="cls-6" x1="4026" y1="2794.12" x2="4026" y2="2739"/><line class="cls-6" x1="4035" y1="2794.12" x2="4035" y2="2739"/><line class="cls-6" x1="4044" y1="2794.12" x2="4044" y2="2739"/><line class="cls-6" x1="4053" y1="2794.12" x2="4053" y2="2739"/><line class="cls-6" x1="4062" y1="2794.12" x2="4062" y2="2739"/><line class="cls-6" x1="4071" y1="2794.12" x2="4071" y2="2739"/><line class="cls-6" x1="4080" y1="2794.12" x2="4080" y2="2739"/><line class="cls-6" x1="4089" y1="2794.12" x2="4089" y2="2739"/><line class="cls-6" x1="4098" y1="2794.12" x2="4098" y2="2739"/><line class="cls-6" x1="4107" y1="2794.12" x2="4107" y2="2739"/><line class="cls-6" x1="4116" y1="2794.12" x2="4116" y2="2739"/><line class="cls-6" x1="4125" y1="2794.12" x2="4125" y2="2739"/><line class="cls-6" x1="4161" y1="2794.12" x2="4161" y2="2739"/><line class="cls-6" x1="4170" y1="2794.12" x2="4170" y2="2739"/><line class="cls-6" x1="4179" y1="2794.12" x2="4179" y2="2739"/><line class="cls-6" x1="4188" y1="2794.12" x2="4188" y2="2739"/><line class="cls-6" x1="4197" y1="2794.12" x2="4197" y2="2739"/><line class="cls-6" x1="4206" y1="2794.12" x2="4206" y2="2739"/><line class="cls-6" x1="4215" y1="2794.12" x2="4215" y2="2739"/><line class="cls-6" x1="4224" y1="2794.12" x2="4224" y2="2739"/><line class="cls-6" x1="4233" y1="2794.12" x2="4233" y2="2739"/><line class="cls-6" x1="4242" y1="2794.12" x2="4242" y2="2739"/><line class="cls-6" x1="4251" y1="2794.12" x2="4251" y2="2739"/><line class="cls-6" x1="4260" y1="2794.12" x2="4260" y2="2739"/><line class="cls-6" x1="4269" y1="2794.12" x2="4269" y2="2739"/><line class="cls-6" x1="426" y1="2613" x2="399" y2="2613"/><line class="cls-6" x1="426" y1="2604" x2="399" y2="2604"/><line class="cls-6" x1="426" y1="2595" x2="399" y2="2595"/><line class="cls-6" x1="426" y1="2586" x2="399" y2="2586"/><line class="cls-6" x1="426" y1="2577" x2="399" y2="2577"/><line class="cls-6" x1="426" y1="2568" x2="399" y2="2568"/><line class="cls-6" x1="426" y1="2559" x2="399" y2="2559"/><line class="cls-6" x1="426" y1="2550" x2="399" y2="2550"/><line class="cls-6" x1="426" y1="2541" x2="399" y2="2541"/><line class="cls-6" x1="426" y1="2532" x2="399" y2="2532"/><line class="cls-6" x1="498" y1="2613" x2="471" y2="2613"/><line class="cls-6" x1="498" y1="2604" x2="471" y2="2604"/><line class="cls-6" x1="498" y1="2595" x2="471" y2="2595"/><line class="cls-6" x1="498" y1="2586" x2="471" y2="2586"/><line class="cls-6" x1="498" y1="2577" x2="471" y2="2577"/><line class="cls-6" x1="498" y1="2568" x2="471" y2="2568"/><line class="cls-6" x1="498" y1="2559" x2="471" y2="2559"/><line class="cls-6" x1="498" y1="2550" x2="471" y2="2550"/><line class="cls-6" x1="498" y1="2541" x2="471" y2="2541"/><line class="cls-6" x1="498" y1="2532" x2="471" y2="2532"/><line class="cls-6" x1="705" y1="2613" x2="678" y2="2613"/><line class="cls-6" x1="705" y1="2604" x2="678" y2="2604"/><line class="cls-6" x1="705" y1="2595" x2="678" y2="2595"/><line class="cls-6" x1="705" y1="2586" x2="678" y2="2586"/><line class="cls-6" x1="705" y1="2577" x2="678" y2="2577"/><line class="cls-6" x1="705" y1="2568" x2="678" y2="2568"/><line class="cls-6" x1="705" y1="2559" x2="678" y2="2559"/><line class="cls-6" x1="705" y1="2550" x2="678" y2="2550"/><line class="cls-6" x1="705" y1="2541" x2="678" y2="2541"/><line class="cls-6" x1="705" y1="2532" x2="678" y2="2532"/><line class="cls-6" x1="777" y1="2613" x2="750" y2="2613"/><line class="cls-6" x1="777" y1="2604" x2="750" y2="2604"/><line class="cls-6" x1="777" y1="2595" x2="750" y2="2595"/><line class="cls-6" x1="777" y1="2586" x2="750" y2="2586"/><line class="cls-6" x1="777" y1="2577" x2="750" y2="2577"/><line class="cls-6" x1="777" y1="2568" x2="750" y2="2568"/><line class="cls-6" x1="777" y1="2559" x2="750" y2="2559"/><line class="cls-6" x1="777" y1="2550" x2="750" y2="2550"/><line class="cls-6" x1="777" y1="2541" x2="750" y2="2541"/><line class="cls-6" x1="777" y1="2532" x2="750" y2="2532"/><line class="cls-6" x1="4836" y1="2694" x2="4836" y2="2640"/><line class="cls-6" x1="4845" y1="2694" x2="4845" y2="2640"/><line class="cls-6" x1="4854" y1="2694" x2="4854" y2="2640"/><line class="cls-6" x1="4863" y1="2694" x2="4863" y2="2640"/><line class="cls-6" x1="4872" y1="2694" x2="4872" y2="2640"/><line class="cls-6" x1="4881" y1="2694" x2="4881" y2="2640"/><line class="cls-6" x1="4890" y1="2694" x2="4890" y2="2640"/><line class="cls-6" x1="4899" y1="2694" x2="4899" y2="2640"/><line class="cls-6" x1="4908" y1="2694" x2="4908" y2="2640"/><line class="cls-6" x1="4917" y1="2694" x2="4917" y2="2640"/><line class="cls-6" x1="4926" y1="2694" x2="4926" y2="2640"/><line class="cls-6" x1="4935" y1="2694" x2="4935" y2="2640"/><line class="cls-6" x1="4944" y1="2694" x2="4944" y2="2640"/><line class="cls-6" x1="4953" y1="2694" x2="4953" y2="2640"/><line class="cls-6" x1="4962" y1="2694" x2="4962" y2="2640"/><line class="cls-6" x1="4971" y1="2694" x2="4971" y2="2640"/><line class="cls-6" x1="4980" y1="2694" x2="4980" y2="2640"/><line class="cls-6" x1="4989" y1="2694" x2="4989" y2="2640"/><line class="cls-6" x1="4998" y1="2694" x2="4998" y2="2640"/><line class="cls-6" x1="5007" y1="2694" x2="5007" y2="2640"/><line class="cls-6" x1="5016" y1="2694" x2="5016" y2="2640"/><line class="cls-6" x1="5025" y1="2694" x2="5025" y2="2640"/><line class="cls-6" x1="5159.25" y1="2949.29" x2="5389.98" y2="2887.66"/><line class="cls-6" x1="5159.51" y1="2956" x2="5297.38" y2="2919.18"/><line class="cls-6" x1="5158.61" y1="2942.98" x2="5294.2" y2="2906.76"/><line class="cls-6" x1="5297.38" y1="2919.18" x2="5294.2" y2="2906.76"/><line class="cls-6" x1="5159.25" y1="2384.72" x2="5389.98" y2="2446.36"/><line class="cls-6" x1="5159.51" y1="2378.01" x2="5297.38" y2="2414.84"/><line class="cls-6" x1="5158.61" y1="2391.03" x2="5294.2" y2="2427.25"/><line class="cls-6" x1="5297.38" y1="2414.84" x2="5294.2" y2="2427.25"/><line class="cls-6" x1="1596" y1="3513" x2="1704" y2="3513"/><line class="cls-6" x1="1596" y1="3504" x2="1704" y2="3504"/><line class="cls-6" x1="1596" y1="3495" x2="1704" y2="3495"/></g></g></g></svg>