<?xml version="1.0" encoding="UTF-8"?><svg id="Layer_2" xmlns="http://www.w3.org/2000/svg" width="5910.23" height="3876" viewBox="0 0 5910.23 3876"><defs><style>.cls-1{stroke-width:3px;}.cls-1,.cls-2{fill:none;stroke:#000;stroke-linecap:round;stroke-miterlimit:10;}.cls-2{stroke-width:6px;}.cls-3{opacity:.06;}</style></defs><g id="Maps"><g id="Floor_3"><g id="Framing"><line class="cls-2" x1="5907.23" y1="3" x2="5907.23" y2="3"/><line class="cls-2" x1="3.23" y1="3" x2="3.23" y2="3"/><line class="cls-2" x1="5907.23" y1="3873" x2="5907.23" y2="3873"/></g><g id="Color" class="cls-3"><polygon points="3279.23 120 2703.23 120 2703.23 453 3333.23 453 3333.23 318 2757.23 318 2757.23 255 3279.23 255 3279.23 120"/><polygon points="3396.23 417 3396.23 453 4224.23 453 4224.23 318 3396.23 318 3396.23 354 3522.23 354 3522.23 417 3396.23 417"/><rect x="4350.23" y="318" width="522" height="135"/><rect x="4350.23" y="120" width="522" height="135"/><rect x="3333.23" y="120" width="963" height="135"/><rect x="2703.23" y="1398" width="576" height="135"/><rect x="2703.23" y="1200" width="576" height="135"/><polygon points="3396.23 1497 3396.23 1533 4224.23 1533 4224.23 1398 3396.23 1398 3396.23 1434 3522.23 1434 3522.23 1497 3396.23 1497"/><polygon points="4350.23 1398 4350.23 1533 4872.23 1533 4872.23 1200 4350.23 1200 4350.23 1335 4602.23 1335 4602.23 1398 4350.23 1398"/><rect x="3333.23" y="1200" width="963" height="135"/><polygon points="4494.23 2451 4494.23 2595 4548.23 2595 4548.23 2667 4413.23 2667 4413.23 2802 1515.23 2802 1515.23 2667 3639.23 2667 3639.23 2451 4494.23 2451"/><polygon points="3270.23 2451 3270.23 2586 2883.23 2586 2883.23 2532 2757.23 2532 2757.23 2586 2262.23 2586 2262.23 2451 3270.23 2451"/><rect x="1515.23" y="2451" width="504" height="135"/><polygon points="2145.23 3549 2145.23 3873 3.23 3873 3.23 3738 1839.23 3738 1839.23 3549 2145.23 3549"/><polygon points="1452.23 3549 1452.23 3666 615.23 3666 615.23 3603 552.23 3603 552.23 3549 1452.23 3549"/><rect x="3.23" y="3549" width="495" height="117"/></g><g id="Outline"><line class="cls-2" x1="1515" y1="2451" x2="1515" y2="2802"/><line class="cls-2" x1="552.23" y1="3549" x2="2145.23" y2="3549"/><line class="cls-2" x1="498" y1="3549" x2="498.23" y2="3540"/><line class="cls-2" x1="552.23" y1="3540" x2="498.23" y2="3540"/><line class="cls-2" x1="552.23" y1="3549" x2="552.46" y2="3540"/><line class="cls-2" x1="498" y1="3549" x2="3" y2="3549"/><line class="cls-2" x1="3" y1="3873" x2="3" y2="3549"/><line class="cls-2" x1="2145.23" y1="3873" x2="3" y2="3873"/><line class="cls-2" x1="2145.23" y1="3549" x2="2145.23" y2="3873"/><line class="cls-2" x1="1515.23" y1="2802" x2="4413.23" y2="2802"/><line class="cls-2" x1="4413" y1="2667" x2="4413" y2="2802"/><line class="cls-2" x1="4548.23" y1="2667" x2="4413" y2="2667"/><line class="cls-2" x1="4548" y1="2451" x2="4548" y2="2667"/><line class="cls-2" x1="1515.23" y1="2451" x2="3387.23" y2="2451"/><line class="cls-2" x1="3513.23" y1="2451" x2="4548.23" y2="2451"/><line class="cls-2" x1="3513.23" y1="2451" x2="3576" y2="2298"/><line class="cls-2" x1="3576" y1="2235" x2="3576" y2="2298"/><line class="cls-2" x1="3522" y1="2235" x2="3576" y2="2235"/><line class="cls-2" x1="2703" y1="1200" x2="2703" y2="1533"/><line class="cls-2" x1="3279.23" y1="1200" x2="2703" y2="1200"/><line class="cls-2" x1="3333.23" y1="1200" x2="4296.23" y2="1200"/><line class="cls-2" x1="4296.23" y1="1191" x2="4296.23" y2="1200"/><line class="cls-2" x1="4296.23" y1="1191" x2="4350.23" y2="1191"/><line class="cls-2" x1="4350.23" y1="1200" x2="4350.23" y2="1191"/><line class="cls-2" x1="4350.23" y1="1200" x2="4872.23" y2="1200"/><line class="cls-2" x1="4872.23" y1="1533" x2="4872.23" y2="1200"/><line class="cls-2" x1="2703.23" y1="1533" x2="4872.23" y2="1533"/><line class="cls-2" x1="2703.23" y1="453" x2="2703.23" y2="120"/><line class="cls-2" x1="3279.23" y1="120" x2="2703" y2="120"/><line class="cls-2" x1="3333.23" y1="120" x2="4296.23" y2="120"/><line class="cls-2" x1="4296.23" y1="111" x2="4296.23" y2="119.32"/><line class="cls-2" x1="4296.23" y1="111" x2="4350.23" y2="111"/><line class="cls-2" x1="4350.23" y1="119.32" x2="4350.23" y2="111"/><line class="cls-2" x1="4350.23" y1="120" x2="4872.23" y2="120"/><line class="cls-2" x1="4872.94" y1="453" x2="4872.94" y2="120"/><line class="cls-2" x1="2703.23" y1="453" x2="4872.94" y2="453"/><line class="cls-2" x1="3279.23" y1="111" x2="3279.23" y2="120"/><line class="cls-2" x1="3279.23" y1="111" x2="3333.23" y2="111"/><line class="cls-2" x1="3333.23" y1="120" x2="3333.23" y2="111"/><line class="cls-2" x1="3279.23" y1="1191" x2="3279.23" y2="1200"/><line class="cls-2" x1="3279.23" y1="1191" x2="3333.23" y2="1191"/><line class="cls-2" x1="3333.23" y1="1200" x2="3333.23" y2="1191"/><line class="cls-2" x1="3522.23" y1="2235" x2="3387.23" y2="2235"/><line class="cls-2" x1="3387.23" y1="2451" x2="3387.23" y2="2235"/></g><g id="Indoor"><line class="cls-1" x1="1641.23" y1="2667" x2="1641.23" y2="2802"/><line class="cls-1" x1="1515.23" y1="2667" x2="1596.23" y2="2667"/><line class="cls-1" x1="1614.23" y1="2667" x2="1695.23" y2="2667"/><line class="cls-1" x1="1767.23" y1="2802" x2="1767.23" y2="2667"/><line class="cls-1" x1="1713.23" y1="2667" x2="1839.23" y2="2667"/><line class="cls-1" x1="2136.23" y1="2802" x2="2136.23" y2="2667"/><line class="cls-1" x1="1515.23" y1="2586" x2="1668.23" y2="2586"/><line class="cls-1" x1="1983.23" y1="2586" x2="2145.23" y2="2586"/><line class="cls-1" x1="2019.23" y1="2451" x2="2019.23" y2="2586"/><line class="cls-1" x1="1704.23" y1="2451" x2="1704.23" y2="2586"/><line class="cls-1" x1="1722.23" y1="2586" x2="1686.23" y2="2586"/><line class="cls-1" x1="1740.23" y1="2586" x2="1857.23" y2="2586"/><line class="cls-1" x1="1767.23" y1="2586" x2="1767.23" y2="2451"/><line class="cls-1" x1="1875.23" y1="2586" x2="1965.23" y2="2586"/><line class="cls-1" x1="1893.23" y1="2451" x2="1893.23" y2="2586"/><line class="cls-1" x1="2163.23" y1="2667" x2="2343.23" y2="2667"/><line class="cls-1" x1="2325.23" y1="2802" x2="2325.23" y2="2667"/><line class="cls-1" x1="2361.23" y1="2667" x2="2550.23" y2="2667"/><line class="cls-1" x1="2514.23" y1="2802" x2="2514.23" y2="2667"/><line class="cls-1" x1="2586.23" y1="2451" x2="2586.23" y2="2586"/><line class="cls-1" x1="2784.23" y1="2586" x2="3270.23" y2="2586"/><line class="cls-1" x1="2757.23" y1="2586" x2="2757.23" y2="2451"/><line class="cls-1" x1="2568.23" y1="2667" x2="2730.23" y2="2667"/><line class="cls-1" x1="2703.23" y1="2802" x2="2703.23" y2="2667"/><line class="cls-1" x1="2757.23" y1="2532" x2="2766.23" y2="2532"/><line class="cls-1" x1="2784.23" y1="2532" x2="2883.23" y2="2532"/><line class="cls-1" x1="2883.23" y1="2505" x2="2883.23" y2="2595"/><line class="cls-1" x1="2883.23" y1="2658" x2="2883.23" y2="2802"/><line class="cls-1" x1="2748.23" y1="2667" x2="2928.23" y2="2667"/><line class="cls-1" x1="3270.23" y1="2541" x2="3270.23" y2="2595"/><line class="cls-1" x1="3639.23" y1="2640" x2="3639.23" y2="2802"/><line class="cls-1" x1="3621.23" y1="2667" x2="3639.23" y2="2667"/><line class="cls-1" x1="4494.23" y1="2595" x2="4512.23" y2="2595"/><line class="cls-1" x1="4530.23" y1="2595" x2="4548.23" y2="2595"/><line class="cls-1" x1="3387.23" y1="2451" x2="3387.23" y2="2460"/><line class="cls-1" x1="3270.23" y1="2667" x2="3270.23" y2="2658"/><line class="cls-1" x1="2163.23" y1="2586" x2="2235.23" y2="2586"/><line class="cls-1" x1="1956.23" y1="2667" x2="1956.23" y2="2802"/><line class="cls-1" x1="1857.23" y1="2667" x2="1965.23" y2="2667"/><line class="cls-1" x1="1983.23" y1="2667" x2="2145.23" y2="2667"/><line class="cls-1" x1="2568.23" y1="2586" x2="2721.23" y2="2586"/><line class="cls-1" x1="2136.23" y1="2451" x2="2136.23" y2="2460"/><line class="cls-1" x1="2136.23" y1="2586" x2="2136.23" y2="2595"/><line class="cls-1" x1="3126.23" y1="2514" x2="3126.23" y2="2586"/><line class="cls-1" x1="3009.23" y1="2667" x2="3009.23" y2="2802"/><line class="cls-1" x1="2946.23" y1="2667" x2="3045.23" y2="2667"/><line class="cls-1" x1="3063.23" y1="2667" x2="3198.23" y2="2667"/><line class="cls-1" x1="3387.23" y1="2667" x2="3387.23" y2="2802"/><line class="cls-1" x1="3513.23" y1="2451" x2="3513.23" y2="2460"/><line class="cls-1" x1="2766.23" y1="2586" x2="2739.23" y2="2586"/><line class="cls-1" x1="2883.23" y1="2451" x2="2883.23" y2="2487"/><line class="cls-1" x1="3126.23" y1="2451" x2="3126.23" y2="2469"/><line class="cls-1" x1="3270.23" y1="2451" x2="3270.23" y2="2523"/><line class="cls-1" x1="3189.23" y1="2802" x2="3189.23" y2="2667"/><line class="cls-1" x1="3216.23" y1="2667" x2="3414.23" y2="2667"/><line class="cls-1" x1="3576.23" y1="2802" x2="3576.23" y2="2667"/><line class="cls-1" x1="3432.23" y1="2667" x2="3603.23" y2="2667"/><line class="cls-1" x1="3639.23" y1="2622" x2="3639.23" y2="2451"/><line class="cls-1" x1="2262.23" y1="2595" x2="2262.23" y2="2451"/><line class="cls-1" x1="2262.23" y1="2559" x2="2271.23" y2="2559"/><line class="cls-1" x1="2253.23" y1="2586" x2="2271.23" y2="2586"/><line class="cls-1" x1="2289.23" y1="2586" x2="2334.23" y2="2586"/><line class="cls-1" x1="2289.23" y1="2559" x2="2487.23" y2="2559"/><line class="cls-1" x1="2325.23" y1="2496" x2="2325.23" y2="2586"/><line class="cls-1" x1="2388.23" y1="2451" x2="2388.23" y2="2586"/><line class="cls-1" x1="2361.23" y1="2586" x2="2415.23" y2="2586"/><line class="cls-1" x1="2370.23" y1="2559" x2="2370.23" y2="2568"/><line class="cls-1" x1="2370.23" y1="2586" x2="2370.23" y2="2577"/><line class="cls-1" x1="2406.23" y1="2559" x2="2406.23" y2="2568"/><line class="cls-1" x1="2406.23" y1="2586" x2="2406.23" y2="2577"/><line class="cls-1" x1="2451.23" y1="2586" x2="2451.23" y2="2496"/><line class="cls-1" x1="2442.23" y1="2586" x2="2487.23" y2="2586"/><line class="cls-1" x1="2505.23" y1="2559" x2="2514.23" y2="2559"/><line class="cls-1" x1="2505.23" y1="2586" x2="2550.23" y2="2586"/><line class="cls-1" x1="2514.23" y1="2451" x2="2514.23" y2="2586"/><line class="cls-1" x1="4494.23" y1="2451" x2="4494.23" y2="2595"/><line class="cls-1" x1="1839.23" y1="3792" x2="1839.23" y2="3639"/><line class="cls-1" x1="1839.23" y1="3621" x2="1839.23" y2="3549"/><line class="cls-1" x1="1695.23" y1="3873" x2="1695.23" y2="3738"/><line class="cls-1" x1="1587.23" y1="3720" x2="1587.23" y2="3738"/><line class="cls-1" x1="1587.23" y1="3666" x2="1587.23" y2="3684"/><line class="cls-1" x1="1551.23" y1="3738" x2="1722.23" y2="3738"/><line class="cls-1" x1="1587.23" y1="3666" x2="1425.23" y2="3666"/><line class="cls-1" x1="1533.23" y1="3738" x2="1299.23" y2="3738"/><line class="cls-1" x1="1443.23" y1="3873" x2="1443.23" y2="3738"/><line class="cls-1" x1="1146.23" y1="3738" x2="1281.23" y2="3738"/><line class="cls-1" x1="1353.23" y1="3666" x2="1407.23" y2="3666"/><line class="cls-1" x1="1353.23" y1="3621" x2="1452.23" y2="3621"/><line class="cls-1" x1="1326.23" y1="3549" x2="1326.23" y2="3666"/><line class="cls-1" x1="1137.23" y1="3666" x2="1335.23" y2="3666"/><line class="cls-1" x1="1326.23" y1="3621" x2="1335.23" y2="3621"/><line class="cls-1" x1="1452.23" y1="3549" x2="1452.23" y2="3666"/><line class="cls-1" x1="1119.23" y1="3666" x2="1047.23" y2="3666"/><line class="cls-1" x1="1092.23" y1="3549" x2="1092.23" y2="3666"/><line class="cls-1" x1="1128.23" y1="3738" x2="912.23" y2="3738"/><line class="cls-1" x1="975.23" y1="3873" x2="975.23" y2="3738"/><line class="cls-1" x1="660.23" y1="3666" x2="777.23" y2="3666"/><line class="cls-1" x1="615.23" y1="3549" x2="615.23" y2="3666"/><line class="cls-1" x1="642.23" y1="3666" x2="615.23" y2="3666"/><line class="cls-1" x1="894.23" y1="3738" x2="552.23" y2="3738"/><line class="cls-1" x1="606.23" y1="3873" x2="606.23" y2="3783"/><line class="cls-1" x1="606.23" y1="3738" x2="606.23" y2="3765"/><line class="cls-1" x1="489.23" y1="3801" x2="489.23" y2="3738"/><line class="cls-1" x1="174.23" y1="3873" x2="174.23" y2="3738"/><line class="cls-1" x1="435.23" y1="3738" x2="534.23" y2="3738"/><line class="cls-1" x1="120.23" y1="3738" x2="417.23" y2="3738"/><line class="cls-1" x1="3.23" y1="3738" x2="102.23" y2="3738"/><line class="cls-1" x1="75.23" y1="3666" x2="75.23" y2="3585"/><line class="cls-1" x1="138.23" y1="3549" x2="138.23" y2="3666"/><line class="cls-1" x1="102.23" y1="3666" x2="147.23" y2="3666"/><line class="cls-1" x1="39.23" y1="3666" x2="84.23" y2="3666"/><line class="cls-1" x1="21.23" y1="3666" x2="3.23" y2="3666"/><line class="cls-1" x1="39.23" y1="3630" x2="138.23" y2="3630"/><line class="cls-1" x1="165.23" y1="3666" x2="462.23" y2="3666"/><line class="cls-1" x1="480.23" y1="3666" x2="498.23" y2="3666"/><line class="cls-1" x1="498.23" y1="3549" x2="498.23" y2="3675"/><line class="cls-1" x1="552.23" y1="3549" x2="552.23" y2="3675"/><line class="cls-1" x1="552.23" y1="3666" x2="543.23" y2="3666"/><line class="cls-1" x1="498.23" y1="3666" x2="507.23" y2="3666"/><line class="cls-1" x1="552.23" y1="3603" x2="570.23" y2="3603"/><line class="cls-1" x1="597.23" y1="3603" x2="615.23" y2="3603"/><line class="cls-1" x1="552.23" y1="3648" x2="570.23" y2="3648"/><line class="cls-1" x1="597.23" y1="3648" x2="615.23" y2="3648"/><line class="cls-1" x1="3.23" y1="3630" x2="21.23" y2="3630"/><line class="cls-1" x1="678.23" y1="3549" x2="678.23" y2="3630"/><line class="cls-1" x1="678.23" y1="3666" x2="678.23" y2="3648"/><line class="cls-1" x1="741.23" y1="3549" x2="741.23" y2="3666"/><line class="cls-1" x1="795.23" y1="3666" x2="1029.23" y2="3666"/><line class="cls-1" x1="1209.23" y1="3873" x2="1209.23" y2="3738"/><line class="cls-1" x1="1749.23" y1="3738" x2="1839.23" y2="3738"/><line class="cls-1" x1="489.23" y1="3873" x2="489.23" y2="3819"/><line class="cls-1" x1="1569.23" y1="3873" x2="1569.23" y2="3774"/><line class="cls-1" x1="1569.23" y1="3738" x2="1569.23" y2="3747"/><line class="cls-1" x1="1506.23" y1="3873" x2="1506.23" y2="3864"/><line class="cls-1" x1="1443.23" y1="3828" x2="1506.23" y2="3828"/><line class="cls-1" x1="1506.23" y1="3837" x2="1506.23" y2="3819"/><line class="cls-1" x1="1443.23" y1="3783" x2="1506.23" y2="3783"/><line class="cls-1" x1="1506.23" y1="3792" x2="1506.23" y2="3774"/><line class="cls-1" x1="1506.23" y1="3738" x2="1506.23" y2="3747"/><line class="cls-1" x1="1839.23" y1="3873" x2="1839.23" y2="3810"/><line class="cls-1" x1="3396.23" y1="1533" x2="3396.23" y2="1479"/><line class="cls-1" x1="3522.23" y1="1533" x2="3522.23" y2="1479"/><line class="cls-1" x1="3396.23" y1="1497" x2="3432.23" y2="1497"/><line class="cls-1" x1="3450.23" y1="1497" x2="3522.23" y2="1497"/><line class="cls-1" x1="3396.23" y1="1452" x2="3396.23" y2="1398"/><line class="cls-1" x1="3711.23" y1="1533" x2="3711.23" y2="1398"/><line class="cls-1" x1="3387.23" y1="1335" x2="3387.23" y2="1200"/><line class="cls-1" x1="3612.23" y1="1335" x2="3558.23" y2="1335"/><line class="cls-1" x1="3468.23" y1="1497" x2="3468.23" y2="1479"/><line class="cls-1" x1="3396.23" y1="1398" x2="3495.23" y2="1398"/><line class="cls-1" x1="3396.23" y1="1434" x2="3522.23" y2="1434"/><line class="cls-1" x1="3522.23" y1="1398" x2="3522.23" y2="1452"/><line class="cls-1" x1="3513.23" y1="1398" x2="3567.23" y2="1398"/><line class="cls-1" x1="3585.23" y1="1398" x2="3612.23" y2="1398"/><line class="cls-1" x1="3594.23" y1="1533" x2="3594.23" y2="1398"/><line class="cls-1" x1="3549.23" y1="1443" x2="3594.23" y2="1443"/><line class="cls-1" x1="3648.23" y1="1398" x2="3648.23" y2="1533"/><line class="cls-1" x1="3630.23" y1="1398" x2="3666.23" y2="1398"/><line class="cls-1" x1="3360.23" y1="1335" x2="3540.23" y2="1335"/><line class="cls-1" x1="3657.23" y1="1335" x2="3657.23" y2="1200"/><line class="cls-1" x1="3630.23" y1="1335" x2="3792.23" y2="1335"/><line class="cls-1" x1="3693.23" y1="1398" x2="3738.23" y2="1398"/><line class="cls-1" x1="3846.23" y1="1335" x2="3846.23" y2="1200"/><line class="cls-1" x1="3810.23" y1="1335" x2="3873.23" y2="1335"/><line class="cls-1" x1="3891.23" y1="1335" x2="4062.23" y2="1335"/><line class="cls-1" x1="3594.23" y1="1200" x2="3594.23" y2="1335"/><line class="cls-1" x1="3756.23" y1="1398" x2="3936.23" y2="1398"/><line class="cls-1" x1="3981.23" y1="1533" x2="3981.23" y2="1398"/><line class="cls-1" x1="3963.23" y1="1398" x2="3999.23" y2="1398"/><line class="cls-1" x1="4017.23" y1="1398" x2="4224.23" y2="1398"/><line class="cls-1" x1="4224.23" y1="1425" x2="4224.23" y2="1398"/><line class="cls-1" x1="4224.23" y1="1533" x2="4224.23" y2="1443"/><line class="cls-1" x1="4080.23" y1="1335" x2="4179.23" y2="1335"/><line class="cls-1" x1="4197.23" y1="1335" x2="4251.23" y2="1335"/><line class="cls-1" x1="4224.23" y1="1200" x2="4224.23" y2="1335"/><line class="cls-1" x1="4269.23" y1="1335" x2="4314.23" y2="1335"/><line class="cls-1" x1="4296.23" y1="1200" x2="4296.23" y2="1335"/><line class="cls-1" x1="4350.23" y1="1200" x2="4350.23" y2="1335"/><line class="cls-1" x1="4332.23" y1="1335" x2="4503.23" y2="1335"/><line class="cls-1" x1="4350.23" y1="1533" x2="4350.23" y2="1443"/><line class="cls-1" x1="4350.23" y1="1425" x2="4350.23" y2="1398"/><line class="cls-1" x1="4503.23" y1="1398" x2="4350.23" y2="1398"/><line class="cls-1" x1="4521.23" y1="1335" x2="4611.23" y2="1335"/><line class="cls-1" x1="4602.23" y1="1200" x2="4602.23" y2="1353"/><line class="cls-1" x1="4602.23" y1="1533" x2="4602.23" y2="1380"/><line class="cls-1" x1="4521.23" y1="1398" x2="4611.23" y2="1398"/><line class="cls-1" x1="2703.23" y1="1398" x2="2766.23" y2="1398"/><line class="cls-1" x1="2703.23" y1="1335" x2="2766.23" y2="1335"/><line class="cls-1" x1="2784.23" y1="1335" x2="2910.23" y2="1335"/><line class="cls-1" x1="2784.23" y1="1398" x2="2865.23" y2="1398"/><line class="cls-1" x1="2955.23" y1="1533" x2="2955.23" y2="1398"/><line class="cls-1" x1="2937.23" y1="1398" x2="3162.23" y2="1398"/><line class="cls-1" x1="3000.23" y1="1335" x2="3162.23" y2="1335"/><line class="cls-1" x1="3207.23" y1="1335" x2="3207.23" y2="1353"/><line class="cls-1" x1="3207.23" y1="1533" x2="3207.23" y2="1380"/><line class="cls-1" x1="3180.23" y1="1398" x2="3243.23" y2="1398"/><line class="cls-1" x1="3279.23" y1="1533" x2="3279.23" y2="1398"/><line class="cls-1" x1="3261.23" y1="1398" x2="3279.23" y2="1398"/><line class="cls-1" x1="3279.23" y1="1335" x2="3279.23" y2="1200"/><line class="cls-1" x1="3180.23" y1="1335" x2="3297.23" y2="1335"/><line class="cls-1" x1="3333.23" y1="1191" x2="3333.23" y2="1335"/><line class="cls-1" x1="3315.23" y1="1335" x2="3342.23" y2="1335"/><line class="cls-1" x1="2955.23" y1="1335" x2="2955.23" y2="1200"/><line class="cls-1" x1="2937.23" y1="1335" x2="2982.23" y2="1335"/><line class="cls-1" x1="2892.23" y1="1533" x2="2892.23" y2="1398"/><line class="cls-1" x1="2883.23" y1="1398" x2="2910.23" y2="1398"/><line class="cls-1" x1="4044.23" y1="1533" x2="4044.23" y2="1380"/><line class="cls-1" x1="4044.23" y1="1353" x2="4044.23" y2="1335"/><line class="cls-1" x1="3981.23" y1="1335" x2="3981.23" y2="1200"/><line class="cls-1" x1="3467.83" y1="1452" x2="3467.83" y2="1434"/><line class="cls-1" x1="1389.23" y1="3666" x2="1389.23" y2="3603"/><line class="cls-1" x1="3333.23" y1="453" x2="3333.23" y2="417"/><line class="cls-1" x1="3396.23" y1="372" x2="3396.23" y2="318"/><line class="cls-1" x1="3396.23" y1="318" x2="3423.23" y2="318"/><line class="cls-1" x1="3432.23" y1="417" x2="3522.23" y2="417"/><line class="cls-1" x1="3711.23" y1="453" x2="3711.23" y2="318"/><line class="cls-1" x1="3468.23" y1="426" x2="3468.23" y2="399"/><line class="cls-1" x1="3468.23" y1="372" x2="3468.23" y2="318"/><line class="cls-1" x1="3468.23" y1="318" x2="3495.23" y2="318"/><line class="cls-1" x1="3396.23" y1="354" x2="3522.23" y2="354"/><line class="cls-1" x1="3522.23" y1="318" x2="3522.23" y2="453"/><line class="cls-1" x1="3513.23" y1="318" x2="3567.23" y2="318"/><line class="cls-1" x1="3585.23" y1="318" x2="3612.23" y2="318"/><line class="cls-1" x1="3594.23" y1="453" x2="3594.23" y2="318"/><line class="cls-1" x1="3648.23" y1="318" x2="3648.23" y2="453"/><line class="cls-1" x1="3630.23" y1="318" x2="3675.23" y2="318"/><line class="cls-1" x1="3522.23" y1="120" x2="3522.23" y2="255"/><line class="cls-1" x1="3387.23" y1="255" x2="3675.23" y2="255"/><line class="cls-1" x1="3693.23" y1="318" x2="3738.23" y2="318"/><line class="cls-1" x1="3711.23" y1="255" x2="3711.23" y2="120"/><line class="cls-1" x1="3693.23" y1="255" x2="3810.23" y2="255"/><line class="cls-1" x1="3792.23" y1="219" x2="3792.23" y2="120"/><line class="cls-1" x1="3981.23" y1="453" x2="3981.23" y2="318"/><line class="cls-1" x1="3900.23" y1="318" x2="3945.23" y2="318"/><line class="cls-1" x1="3981.23" y1="255" x2="3981.23" y2="120"/><line class="cls-1" x1="3828.23" y1="255" x2="4062.23" y2="255"/><line class="cls-1" x1="4107.23" y1="453" x2="4107.23" y2="318"/><line class="cls-1" x1="4080.23" y1="318" x2="4224.23" y2="318"/><line class="cls-1" x1="4224.23" y1="345" x2="4224.23" y2="318"/><line class="cls-1" x1="4224.23" y1="453" x2="4224.23" y2="363"/><line class="cls-1" x1="4107.23" y1="255" x2="4107.23" y2="120"/><line class="cls-1" x1="4080.23" y1="255" x2="4179.23" y2="255"/><line class="cls-1" x1="4197.23" y1="255" x2="4251.23" y2="255"/><line class="cls-1" x1="4224.23" y1="120" x2="4224.23" y2="255"/><line class="cls-1" x1="4269.23" y1="255" x2="4314.23" y2="255"/><line class="cls-1" x1="4296.23" y1="120" x2="4296.23" y2="255"/><line class="cls-1" x1="4350.23" y1="120" x2="4350.23" y2="255"/><line class="cls-1" x1="4332.23" y1="255" x2="4431.23" y2="255"/><line class="cls-1" x1="4350.23" y1="453" x2="4350.23" y2="363"/><line class="cls-1" x1="4350.23" y1="345" x2="4350.23" y2="318"/><line class="cls-1" x1="4476.23" y1="453" x2="4476.23" y2="318"/><line class="cls-1" x1="4584.23" y1="255" x2="4629.23" y2="255"/><line class="cls-1" x1="4602.23" y1="120" x2="4602.23" y2="255"/><line class="cls-1" x1="4602.23" y1="453" x2="4602.23" y2="318"/><line class="cls-1" x1="2703.23" y1="318" x2="2766.23" y2="318"/><line class="cls-1" x1="2703.23" y1="255" x2="2766.23" y2="255"/><line class="cls-1" x1="2784.23" y1="255" x2="2910.23" y2="255"/><line class="cls-1" x1="2955.23" y1="120" x2="2955.23" y2="255"/><line class="cls-1" x1="2892.23" y1="255" x2="2892.23" y2="120"/><line class="cls-1" x1="2784.23" y1="318" x2="2847.23" y2="318"/><line class="cls-1" x1="2874.23" y1="318" x2="2982.23" y2="318"/><line class="cls-1" x1="2955.23" y1="453" x2="2955.23" y2="318"/><line class="cls-1" x1="3063.23" y1="318" x2="3162.23" y2="318"/><line class="cls-1" x1="3090.23" y1="453" x2="3090.23" y2="318"/><line class="cls-1" x1="3090.23" y1="255" x2="3090.23" y2="120"/><line class="cls-1" x1="2928.23" y1="255" x2="3027.23" y2="255"/><line class="cls-1" x1="3180.23" y1="255" x2="3243.23" y2="255"/><line class="cls-1" x1="3207.23" y1="120" x2="3207.23" y2="273"/><line class="cls-1" x1="3207.23" y1="453" x2="3207.23" y2="300"/><line class="cls-1" x1="3180.23" y1="318" x2="3243.23" y2="318"/><line class="cls-1" x1="3279.23" y1="453" x2="3279.23" y2="318"/><line class="cls-1" x1="3261.23" y1="318" x2="3333.23" y2="318"/><line class="cls-1" x1="3279.23" y1="255" x2="3279.23" y2="120"/><line class="cls-1" x1="3261.23" y1="255" x2="3297.23" y2="255"/><line class="cls-1" x1="3333.23" y1="120" x2="3333.23" y2="255"/><line class="cls-1" x1="3315.23" y1="255" x2="3369.23" y2="255"/><line class="cls-1" x1="3045.23" y1="255" x2="3162.23" y2="255"/><line class="cls-1" x1="3468.23" y1="453" x2="3468.23" y2="444"/><line class="cls-1" x1="3441.23" y1="318" x2="3468.23" y2="318"/><line class="cls-1" x1="3855.23" y1="453" x2="3855.23" y2="318"/><line class="cls-1" x1="3756.23" y1="318" x2="3882.23" y2="318"/><line class="cls-1" x1="4800.23" y1="219" x2="4800.23" y2="120"/><line class="cls-1" x1="4647.23" y1="255" x2="4773.23" y2="255"/><line class="cls-1" x1="4647.23" y1="318" x2="4674.23" y2="318"/><line class="cls-1" x1="4791.23" y1="318" x2="4872.23" y2="318"/><line class="cls-1" x1="4791.23" y1="255" x2="4872.23" y2="255"/><line class="cls-1" x1="3396.23" y1="453" x2="3396.23" y2="399"/><line class="cls-1" x1="4350.23" y1="318" x2="4566.23" y2="318"/><line class="cls-1" x1="4548.23" y1="255" x2="4548.23" y2="120"/><line class="cls-1" x1="4566.23" y1="255" x2="4449.23" y2="255"/><line class="cls-1" x1="4629.23" y1="318" x2="4584.23" y2="318"/><line class="cls-1" x1="4665.23" y1="453" x2="4665.23" y2="318"/><line class="cls-1" x1="4800.23" y1="255" x2="4800.23" y2="237"/><line class="cls-1" x1="2829.23" y1="453" x2="2829.23" y2="318"/><line class="cls-1" x1="2829.23" y1="255" x2="2829.23" y2="228"/><line class="cls-1" x1="2829.23" y1="210" x2="2829.23" y2="120"/><line class="cls-1" x1="2757.23" y1="318" x2="2757.23" y2="300"/><line class="cls-1" x1="2757.23" y1="255" x2="2757.23" y2="273"/><line class="cls-1" x1="3027.23" y1="453" x2="3027.23" y2="318"/><line class="cls-1" x1="3000.23" y1="318" x2="3045.23" y2="318"/><line class="cls-1" x1="3333.23" y1="399" x2="3333.23" y2="318"/><line class="cls-1" x1="3396.23" y1="417" x2="3414.23" y2="417"/><line class="cls-1" x1="3792.23" y1="255" x2="3792.23" y2="237"/><line class="cls-1" x1="3918.23" y1="453" x2="3918.23" y2="318"/><line class="cls-1" x1="4044.23" y1="453" x2="4044.23" y2="318"/><line class="cls-1" x1="3963.23" y1="318" x2="4008.23" y2="318"/><line class="cls-1" x1="4026.23" y1="318" x2="4062.23" y2="318"/><line class="cls-1" x1="4476.23" y1="255" x2="4476.23" y2="246"/><line class="cls-1" x1="4476.23" y1="228" x2="4476.23" y2="120"/><line class="cls-1" x1="4728.23" y1="453" x2="4728.23" y2="318"/><line class="cls-1" x1="4728.23" y1="255" x2="4728.23" y2="120"/><line class="cls-1" x1="4692.23" y1="318" x2="4773.23" y2="318"/><line class="cls-1" x1="3387.23" y1="2451" x2="3414.23" y2="2451"/><line class="cls-1" x1="3513.23" y1="2451" x2="3486.23" y2="2451"/><line class="cls-1" x1="3468.23" y1="2451" x2="3432.23" y2="2451"/></g></g></g></svg>