<?xml version="1.0" encoding="UTF-8"?><svg id="Layer_2" xmlns="http://www.w3.org/2000/svg" width="5910.01" height="3876" viewBox="0 0 5910.01 3876"><defs><style>.cls-1,.cls-2,.cls-3{fill:none;stroke:#000;stroke-linecap:round;stroke-miterlimit:10;}.cls-1,.cls-3{stroke-width:3px;}.cls-2{stroke-width:6px;}.cls-4{opacity:.06;}.cls-3{stroke-dasharray:6;}</style></defs><g id="Maps"><g id="Floor_4"><g id="Framing"><line class="cls-2" x1="3" y1="3873" x2="3" y2="3873"/><line class="cls-2" x1="3" y1="3" x2="3" y2="3"/><line class="cls-2" x1="5907" y1="3" x2="5907" y2="3"/><line class="cls-2" x1="5907.01" y1="3873" x2="5907.01" y2="3873"/></g><g id="Color" class="cls-4"><rect x="1515" y="2451" width="504" height="135"/><polygon points="1515 2667 1515 2802 4413 2802 4413 2667 4548 2667 4548 2595 4494 2595 4494 2451 3765 2451 3765 2667 1515 2667"/><polygon points="3135 2451 3135 2586 2883 2586 2883 2532 2757 2532 2757 2586 2262 2586 2262 2451 3135 2451"/></g><g id="Outline"><line class="cls-2" x1="1515" y1="2451" x2="1515" y2="2802"/><line class="cls-2" x1="1515" y1="2802" x2="4413" y2="2802"/><line class="cls-2" x1="4413" y1="2667" x2="4413" y2="2802"/><line class="cls-2" x1="4548" y1="2667" x2="4413" y2="2667"/><line class="cls-2" x1="4548" y1="2451" x2="4548" y2="2667"/><line class="cls-2" x1="1515" y1="2451" x2="3387" y2="2451"/><line class="cls-2" x1="3513" y1="2451" x2="4548" y2="2451"/><line class="cls-2" x1="3513" y1="2451" x2="3576" y2="2298"/><line class="cls-2" x1="3576" y1="2235" x2="3576" y2="2298"/><line class="cls-2" x1="3576" y1="2235" x2="3387" y2="2235"/><line class="cls-2" x1="3387" y1="2451" x2="3387" y2="2235"/></g><g id="Indoor"><line class="cls-1" x1="1641" y1="2667" x2="1641" y2="2802"/><line class="cls-1" x1="1515" y1="2667" x2="1596" y2="2667"/><line class="cls-1" x1="1614" y1="2667" x2="1668" y2="2667"/><line class="cls-1" x1="1767" y1="2802" x2="1767" y2="2667"/><line class="cls-1" x1="1686" y1="2667" x2="1785" y2="2667"/><line class="cls-1" x1="1992" y1="2667" x2="2037" y2="2667"/><line class="cls-1" x1="2199" y1="2802" x2="2199" y2="2667"/><line class="cls-1" x1="1992" y1="2586" x2="2145" y2="2586"/><line class="cls-1" x1="2019" y1="2451" x2="2019" y2="2586"/><line class="cls-1" x1="1704" y1="2451" x2="1704" y2="2586"/><line class="cls-1" x1="1722" y1="2586" x2="1686" y2="2586"/><line class="cls-1" x1="1740" y1="2586" x2="1785" y2="2586"/><line class="cls-1" x1="1767" y1="2586" x2="1767" y2="2451"/><line class="cls-1" x1="1830" y1="2586" x2="1830" y2="2451"/><line class="cls-1" x1="1803" y1="2586" x2="1866" y2="2586"/><line class="cls-1" x1="1893" y1="2451" x2="1893" y2="2586"/><line class="cls-1" x1="1884" y1="2586" x2="1974" y2="2586"/><line class="cls-1" x1="1956" y1="2550" x2="1956" y2="2586"/><line class="cls-1" x1="2253" y1="2667" x2="2388" y2="2667"/><line class="cls-1" x1="2388" y1="2802" x2="2388" y2="2640"/><line class="cls-1" x1="2262" y1="2595" x2="2262" y2="2451"/><line class="cls-1" x1="2262" y1="2559" x2="2271" y2="2559"/><line class="cls-1" x1="2253" y1="2586" x2="2271" y2="2586"/><line class="cls-1" x1="2289" y1="2586" x2="2334" y2="2586"/><line class="cls-1" x1="2352" y1="2559" x2="2388" y2="2559"/><line class="cls-1" x1="2325" y1="2451" x2="2325" y2="2586"/><line class="cls-1" x1="2388" y1="2451" x2="2388" y2="2613"/><line class="cls-1" x1="2352" y1="2586" x2="2388" y2="2586"/><line class="cls-1" x1="4494" y1="2595" x2="4512" y2="2595"/><line class="cls-1" x1="4530" y1="2595" x2="4548" y2="2595"/><line class="cls-1" x1="2163" y1="2586" x2="2235" y2="2586"/><line class="cls-1" x1="1515" y1="2586" x2="1668" y2="2586"/><line class="cls-1" x1="1893" y1="2667" x2="1893" y2="2802"/><line class="cls-1" x1="1803" y1="2667" x2="1974" y2="2667"/><line class="cls-1" x1="2019" y1="2802" x2="2019" y2="2667"/><line class="cls-1" x1="2055" y1="2667" x2="2235" y2="2667"/><line class="cls-1" x1="2136" y1="2451" x2="2136" y2="2460"/><line class="cls-1" x1="2136" y1="2586" x2="2136" y2="2595"/><line class="cls-1" x1="1956" y1="2451" x2="1956" y2="2532"/><line class="cls-1" x1="2334" y1="2559" x2="2289" y2="2559"/><line class="cls-1" x1="3135" y1="2496" x2="3135" y2="2631"/><line class="cls-1" x1="3135" y1="2649" x2="3135" y2="2802"/><line class="cls-1" x1="3261" y1="2451" x2="3261" y2="2460"/><line class="cls-1" x1="3351" y1="2802" x2="3387" y2="2802"/><line class="cls-1" x1="3414" y1="2802" x2="3450" y2="2802"/><line class="cls-1" x1="3639" y1="2451" x2="3639" y2="2460"/><line class="cls-1" x1="3765" y1="2640" x2="3765" y2="2802"/><line class="cls-1" x1="3765" y1="2496" x2="3765" y2="2613"/><line class="cls-1" x1="3387" y1="2451" x2="3387" y2="2460"/><line class="cls-3" x1="3513" y1="2451" x2="3513" y2="2460"/><line class="cls-1" x1="3387" y1="2451" x2="3414" y2="2451"/><line class="cls-1" x1="3513" y1="2451" x2="3486" y2="2451"/><line class="cls-1" x1="3432" y1="2451" x2="3468" y2="2451"/><line class="cls-1" x1="3144" y1="2586" x2="2919" y2="2586"/><line class="cls-1" x1="3117" y1="2667" x2="3315" y2="2667"/><line class="cls-1" x1="3333" y1="2667" x2="3441" y2="2667"/><line class="cls-1" x1="3459" y1="2667" x2="3567" y2="2667"/><line class="cls-1" x1="3585" y1="2667" x2="3765" y2="2667"/><line class="cls-1" x1="3387" y1="2802" x2="3387" y2="2667"/><line class="cls-1" x1="3513" y1="2802" x2="3513" y2="2667"/><line class="cls-1" x1="3135" y1="2451" x2="3135" y2="2478"/><line class="cls-1" x1="3765" y1="2451" x2="3765" y2="2478"/><line class="cls-1" x1="3765" y1="2586" x2="3756" y2="2586"/><line class="cls-1" x1="4494" y1="2451" x2="4494" y2="2595"/><line class="cls-1" x1="2757" y1="2586" x2="2757" y2="2532"/><line class="cls-1" x1="2757" y1="2532" x2="2766" y2="2532"/><line class="cls-1" x1="2784" y1="2532" x2="2883" y2="2532"/><line class="cls-1" x1="2883" y1="2532" x2="2883" y2="2604"/><line class="cls-1" x1="2784" y1="2586" x2="2901" y2="2586"/><line class="cls-1" x1="2883" y1="2649" x2="2883" y2="2667"/><line class="cls-1" x1="3099" y1="2667" x2="2919" y2="2667"/><line class="cls-1" x1="2757" y1="2586" x2="2766" y2="2586"/><line class="cls-1" x1="2901" y1="2667" x2="2883" y2="2667"/></g></g></g></svg>