<?xml version="1.0" encoding="UTF-8"?><svg id="Layer_2" xmlns="http://www.w3.org/2000/svg" width="5910.01" height="3876" viewBox="0 0 5910.01 3876"><defs><style>.cls-1,.cls-2{fill:none;stroke-miterlimit:10;}.cls-1,.cls-2,.cls-3{stroke:#000;stroke-linecap:round;}.cls-1,.cls-3{stroke-width:3px;}.cls-2{stroke-width:6px;}.cls-3{stroke-linejoin:round;}.cls-4{opacity:.06;}</style></defs><g id="Maps"><g id="Floor_5"><g id="Framing"><line class="cls-2" x1="5907.01" y1="3" x2="5907.01" y2="3"/><line class="cls-2" x1="3.01" y1="3" x2="3.01" y2="3"/><line class="cls-2" x1="3" y1="3873" x2="3" y2="3873"/><line class="cls-2" x1="5907" y1="3873" x2="5907" y2="3873"/></g><g id="Color" class="cls-4"><path d="M4395.01,2595v-9h-252v-36h351v-99h-2295v99h315v36h-747v-36h189v-99h-441v351h2898v-135h135v-72h-153ZM2883.01,2586h-126v-54h126v54Z"/></g><g id="Outline"><line class="cls-2" x1="1515.01" y1="2451" x2="1515.01" y2="2802"/><line class="cls-2" x1="1515.01" y1="2802" x2="4413.01" y2="2802"/><line class="cls-2" x1="4548.01" y1="2451" x2="4548.01" y2="2667"/><line class="cls-2" x1="1515.01" y1="2451" x2="4548.01" y2="2451"/><line class="cls-2" x1="4413.01" y1="2667" x2="4413.01" y2="2802"/><line class="cls-2" x1="4413.01" y1="2667" x2="4548.01" y2="2667"/></g><g id="Indoor"><line class="cls-1" x1="1983.01" y1="2586" x2="2514.01" y2="2586"/><line class="cls-1" x1="2019.01" y1="2523" x2="2019.01" y2="2586"/><line class="cls-1" x1="1704.01" y1="2451" x2="1704.01" y2="2550"/><line class="cls-1" x1="1641.01" y1="2559" x2="1641.01" y2="2451"/><line class="cls-1" x1="1515.01" y1="2586" x2="1965.01" y2="2586"/><line class="cls-1" x1="1893.01" y1="2451" x2="1893.01" y2="2550"/><line class="cls-1" x1="2784.01" y1="2586" x2="2883.01" y2="2586"/><line class="cls-1" x1="2757.01" y1="2586" x2="2757.01" y2="2532"/><line class="cls-1" x1="2757.01" y1="2532" x2="2766.01" y2="2532"/><line class="cls-1" x1="2784.01" y1="2532" x2="2883.01" y2="2532"/><line class="cls-1" x1="2883.01" y1="2532" x2="2883.01" y2="2586"/><line class="cls-1" x1="2136.01" y1="2532" x2="2136.01" y2="2586"/><line class="cls-1" x1="2766.01" y1="2586" x2="2757.01" y2="2586"/><line class="cls-1" x1="2262.01" y1="2550" x2="2262.01" y2="2451"/><line class="cls-1" x1="2199.01" y1="2550" x2="2280.01" y2="2550"/><line class="cls-1" x1="2298.01" y1="2550" x2="2406.01" y2="2550"/><line class="cls-1" x1="2325.01" y1="2514" x2="2325.01" y2="2550"/><line class="cls-1" x1="2388.01" y1="2451" x2="2388.01" y2="2550"/><line class="cls-1" x1="2451.01" y1="2550" x2="2451.01" y2="2451"/><line class="cls-1" x1="2487.01" y1="2550" x2="2514.01" y2="2550"/><line class="cls-1" x1="2514.01" y1="2451" x2="2514.01" y2="2559"/><line class="cls-1" x1="2514.01" y1="2577" x2="2514.01" y2="2802"/><line class="cls-1" x1="2136.01" y1="2532" x2="2127.01" y2="2532"/><line class="cls-1" x1="2109.01" y1="2532" x2="2019.01" y2="2532"/><line class="cls-1" x1="1956.01" y1="2451" x2="1956.01" y2="2469"/><line class="cls-1" x1="1956.01" y1="2487" x2="1956.01" y2="2550"/><line class="cls-1" x1="2199.01" y1="2451" x2="2199.01" y2="2469"/><line class="cls-1" x1="2199.01" y1="2487" x2="2199.01" y2="2550"/><line class="cls-1" x1="1956.01" y1="2550" x2="1830.01" y2="2550"/><line class="cls-1" x1="1677.01" y1="2550" x2="1641.01" y2="2550"/><line class="cls-1" x1="1695.01" y1="2550" x2="1812.01" y2="2550"/><line class="cls-1" x1="1767.01" y1="2550" x2="1767.01" y2="2559"/><line class="cls-1" x1="1767.01" y1="2586" x2="1767.01" y2="2577"/><line class="cls-1" x1="2325.01" y1="2451" x2="2325.01" y2="2496"/><line class="cls-1" x1="2424.01" y1="2550" x2="2469.01" y2="2550"/><line class="cls-1" x1="2388.01" y1="2523" x2="2406.01" y2="2523"/><line class="cls-1" x1="2424.01" y1="2523" x2="2451.01" y2="2523"/><line class="cls-1" x1="2388.01" y1="2496" x2="2406.01" y2="2496"/><line class="cls-1" x1="2424.01" y1="2496" x2="2451.01" y2="2496"/><line class="cls-1" x1="3891.01" y1="2586" x2="3891.01" y2="2802"/><line class="cls-1" x1="3387.01" y1="2586" x2="4395.01" y2="2586"/><line class="cls-1" x1="4413.01" y1="2451" x2="4413.01" y2="2550"/><line class="cls-1" x1="4377.01" y1="2550" x2="4422.01" y2="2550"/><line class="cls-1" x1="4440.01" y1="2550" x2="4494.01" y2="2550"/><line class="cls-1" x1="4413.01" y1="2595" x2="4512.01" y2="2595"/><line class="cls-1" x1="4494.01" y1="2451" x2="4494.01" y2="2568"/><line class="cls-1" x1="4143.01" y1="2586" x2="4143.01" y2="2577"/><line class="cls-1" x1="4143.01" y1="2559" x2="4143.01" y2="2451"/><line class="cls-1" x1="4269.01" y1="2451" x2="4269.01" y2="2550"/><line class="cls-1" x1="4413.01" y1="2667" x2="4422.01" y2="2667"/><line class="cls-1" x1="4548.01" y1="2595" x2="4530.01" y2="2595"/><line class="cls-1" x1="4494.01" y1="2595" x2="4494.01" y2="2586"/><line class="cls-1" x1="4413.01" y1="2667" x2="4395.01" y2="2667"/><line class="cls-1" x1="4395.01" y1="2622" x2="4395.01" y2="2595"/><line class="cls-1" x1="4395.01" y1="2667" x2="4395.01" y2="2640"/><rect class="cls-3" x="4395.01" y="2586" width="18" height="9"/><line class="cls-1" x1="4359.01" y1="2550" x2="4224.01" y2="2550"/><line class="cls-1" x1="4206.01" y1="2550" x2="4143.01" y2="2550"/><line class="cls-1" x1="3387.01" y1="2451" x2="3387.01" y2="2541"/><line class="cls-1" x1="3387.01" y1="2631" x2="3387.01" y2="2559"/><line class="cls-1" x1="4413.01" y1="2487" x2="4422.01" y2="2487"/><line class="cls-1" x1="4440.01" y1="2487" x2="4494.01" y2="2487"/><line class="cls-1" x1="4440.01" y1="2514" x2="4494.01" y2="2514"/><line class="cls-1" x1="3387.01" y1="2649" x2="3387.01" y2="2802"/></g></g></g></svg>