<?xml version="1.0" encoding="UTF-8"?><svg id="Layer_2" xmlns="http://www.w3.org/2000/svg" width="5316" height="2463.67" viewBox="0 0 5316 2463.67"><defs><style>.cls-1{stroke-width:3px;}.cls-1,.cls-2{fill:none;stroke:#000;stroke-linecap:round;stroke-miterlimit:10;}.cls-2{stroke-width:6px;}.cls-3{opacity:.06;}</style></defs><g id="Maps"><g id="Floor_4"><g id="Colors" class="cls-3"><polygon points="4890 2082 4890 2460 5025 2460 5025 2109 4953 2109 4953 2082 4890 2082"/><polygon points="4818 2028 4890 2028 4890 2019 5025 2019 5025 1641 4890 1641 4890 1632 4818 1632 4818 2028"/><path d="M5097,2460h135v-441l81-63-81-63,81-63-81-63,81-63-81-63V264s-378-.67-378,0v126h243v2070Z"/><polygon points="4890 1587 4980 1587 4980 1551 5025 1551 5025 1263 5034 1263 5034 588 4962 588 4962 1263 4890 1263 4890 1587"/><polygon points="4854 462 4854 525 4701 525 4701 426 4746 426 4746 462 4854 462"/><polygon points="4854 84 4854 210 3450 210 3450 84 3513 3 3576 84 4728 84 4791 3 4854 84"/><polygon points="3594 444 3594 525 3135 525 3135 390 3450 390 3450 444 3594 444"/><rect x="2433" y="390" width="630" height="135"/><rect x="2316" y="264" width="900" height="90"/><rect x="1983" y="390" width="333" height="135"/><polygon points="1983 264 1983 354 1191 354 1191 327 1074 327 1074 264 1983 264"/><rect x="1191" y="390" width="675" height="135"/><path d="M1074,390v90h-360V210h-180v243h-135V129h450v261c0,.67,225,0,225,0Z"/><rect x="606" y="309" width="36" height="171"/><polygon points="399 525 399 606 156 606 156 840 399 831 399 912 3 912 3 525 399 525"/><rect x="228" y="651" width="90" height="135"/><rect x="453" y="651" width="54" height="27"/><polygon points="453 912 453 1038 723 1038 723 1182 453 1182 453 1299 849 1299 849 912 453 912"/><rect x="453" y="1092" width="171" height="36"/><rect x="156" y="1299" width="243" height="81"/><rect x="3" y="1425" width="153" height="135"/><rect x="228" y="1425" width="90" height="135"/><rect x="156" y="1605" width="243" height="81"/><polygon points="453 1686 453 1812 723 1812 723 1956 453 1956 453 2073 849 2073 849 1686 453 1686"/><rect x="453" y="1866" width="153" height="36"/><rect x="156" y="2073" width="243" height="81"/><rect x="228" y="2199" width="90" height="135"/><polygon points="3 2199 3 2460 453 2460 453 2397 399 2397 399 2379 156 2379 156 2199 3 2199"/><rect x="453" y="2199" width="54" height="27"/></g><g id="Outline"><line class="cls-2" x1="4818" y1="1632.67" x2="4818" y2="2028"/><line class="cls-2" x1="4890" y1="2028" x2="4818" y2="2028"/><line class="cls-2" x1="4890" y1="2460.67" x2="4890" y2="2028"/><line class="cls-2" x1="5232" y1="2460.67" x2="4890" y2="2460.67"/><line class="cls-2" x1="5232" y1="264.67" x2="5232" y2="1641"/><line class="cls-2" x1="4890" y1="1632.67" x2="4818" y2="1632.67"/><line class="cls-2" x1="4890" y1="1263.67" x2="4890" y2="1632.67"/><line class="cls-2" x1="4962" y1="1263.67" x2="4890" y2="1263.67"/><line class="cls-2" x1="4962" y1="525.67" x2="4962" y2="1263.67"/><line class="cls-2" x1="4701" y1="525.67" x2="4962" y2="525.67"/><line class="cls-2" x1="4701" y1="273.67" x2="4701" y2="525.67"/><line class="cls-2" x1="3594" y1="273.67" x2="4701" y2="273.67"/><line class="cls-2" x1="3594" y1="525.67" x2="3594" y2="273.67"/><line class="cls-2" x1="453" y1="525.67" x2="3594" y2="525.67"/><line class="cls-2" x1="5232" y1="264.67" x2="4854" y2="264.67"/><line class="cls-2" x1="3576" y1="84.67" x2="4728" y2="84.67"/><line class="cls-2" x1="4854" y1="264.67" x2="4854" y2="84.67"/><line class="cls-2" x1="3450" y1="327.67" x2="3450" y2="84.67"/><line class="cls-2" x1="3216" y1="327.67" x2="3450" y2="327.67"/><line class="cls-2" x1="3216" y1="264.67" x2="3216" y2="327.67"/><line class="cls-2" x1="3216" y1="264.67" x2="1074" y2="264.67"/><line class="cls-2" x1="1074" y1="390.67" x2="1074" y2="264.67"/><line class="cls-2" x1="849" y1="390.67" x2="1074" y2="390.67"/><line class="cls-2" x1="399" y1="525.67" x2="399" y2="129.67"/><line class="cls-2" x1="849" y1="390.67" x2="849" y2="129.67"/><line class="cls-2" x1="399" y1="129.67" x2="849" y2="129.67"/><line class="cls-2" x1="399" y1="912.67" x2="3" y2="912.67"/><line class="cls-2" x1="3" y1="912.67" x2="3" y2="525.67"/><line class="cls-2" x1="3" y1="525.67" x2="399" y2="525.67"/><line class="cls-2" x1="453" y1="1299.67" x2="849" y2="1299.67"/><line class="cls-2" x1="849" y1="1299.67" x2="849" y2="912.67"/><line class="cls-2" x1="849" y1="912.67" x2="453" y2="912.67"/><line class="cls-2" x1="399" y1="1686.67" x2="3" y2="1686.67"/><line class="cls-2" x1="3" y1="1686.67" x2="3" y2="1299.67"/><line class="cls-2" x1="3" y1="1299.67" x2="399" y2="1299.67"/><line class="cls-2" x1="399" y1="912.67" x2="399" y2="1299.67"/><line class="cls-2" x1="453" y1="2073.67" x2="849" y2="2073.67"/><line class="cls-2" x1="849" y1="2073.67" x2="849" y2="1686.67"/><line class="cls-2" x1="849" y1="1686.67" x2="453" y2="1686.67"/><line class="cls-2" x1="453" y1="2460.67" x2="3" y2="2460.67"/><line class="cls-2" x1="3" y1="2460.67" x2="3" y2="2073.67"/><line class="cls-2" x1="3" y1="2073.67" x2="399" y2="2073.67"/><line class="cls-2" x1="399" y1="1686.67" x2="399" y2="2073.67"/><line class="cls-2" x1="453" y1="912" x2="453" y2="786"/><line class="cls-2" x1="453" y1="651" x2="453" y2="525"/><line class="cls-2" x1="507" y1="651" x2="507" y2="786"/><line class="cls-2" x1="453" y1="651" x2="507" y2="651"/><line class="cls-2" x1="453" y1="786" x2="507" y2="786"/><line class="cls-2" x1="453" y1="1686" x2="453" y2="1560"/><line class="cls-2" x1="453" y1="1425" x2="453" y2="1299"/><line class="cls-2" x1="507" y1="1425" x2="507" y2="1560"/><line class="cls-2" x1="453" y1="1425" x2="507" y2="1425"/><line class="cls-2" x1="453" y1="1560" x2="507" y2="1560"/><line class="cls-2" x1="453" y1="2460" x2="453" y2="2334"/><line class="cls-2" x1="453" y1="2199" x2="453" y2="2073"/><line class="cls-2" x1="507" y1="2199" x2="507" y2="2334"/><line class="cls-2" x1="453" y1="2199" x2="507" y2="2199"/><line class="cls-2" x1="453" y1="2334" x2="507" y2="2334"/><line class="cls-2" x1="5232" y1="1767" x2="5313" y2="1830"/><line class="cls-2" x1="5232" y1="1893" x2="5313" y2="1830"/><line class="cls-2" x1="5232" y1="1893" x2="5313" y2="1956"/><line class="cls-2" x1="5232" y1="2019" x2="5313" y2="1956"/><line class="cls-2" x1="5232" y1="1641" x2="5313" y2="1704"/><line class="cls-2" x1="5232" y1="1767" x2="5313" y2="1704"/><line class="cls-2" x1="5232" y1="2019" x2="5232" y2="2460"/><line class="cls-2" x1="3450" y1="84" x2="3513" y2="3"/><line class="cls-2" x1="3576" y1="84" x2="3513" y2="3"/><line class="cls-2" x1="4728" y1="84" x2="4791" y2="3"/><line class="cls-2" x1="4854" y1="84" x2="4791" y2="3"/></g><g id="Indoor"><line class="cls-1" x1="4890" y1="2019" x2="5025" y2="2019"/><line class="cls-1" x1="5025" y1="1983.67" x2="5025" y2="2055.67"/><line class="cls-1" x1="5025" y1="2073.67" x2="5025" y2="2136.67"/><line class="cls-1" x1="4890" y1="2082.67" x2="5025" y2="2082.67"/><line class="cls-1" x1="5025" y1="2154.67" x2="5025" y2="2163.67"/><line class="cls-1" x1="4818" y1="1686.67" x2="4818" y2="1974.67"/><line class="cls-1" x1="5097" y1="1911.67" x2="5097" y2="1839.67"/><line class="cls-1" x1="5097" y1="1893.67" x2="5232" y2="1893.67"/><line class="cls-1" x1="5097" y1="1821.67" x2="5097" y2="1668.67"/><line class="cls-1" x1="5133" y1="1767.67" x2="5232" y2="1767.67"/><line class="cls-1" x1="4890" y1="1587" x2="5025" y2="1587"/><line class="cls-1" x1="4890" y1="1641" x2="5052" y2="1641"/><line class="cls-1" x1="5025" y1="1614.67" x2="5025" y2="1704.67"/><line class="cls-1" x1="5025" y1="1524.67" x2="5025" y2="1506.67"/><line class="cls-1" x1="5025" y1="1488.67" x2="5025" y2="1416.67"/><line class="cls-1" x1="5025" y1="1398.67" x2="5025" y2="1290.67"/><line class="cls-1" x1="4962" y1="588.67" x2="5034" y2="588.67"/><line class="cls-1" x1="5034" y1="588.67" x2="5034" y2="615.67"/><line class="cls-1" x1="4962" y1="642.67" x2="5034" y2="642.67"/><line class="cls-1" x1="5034" y1="660.67" x2="5034" y2="633.67"/><line class="cls-1" x1="5034" y1="678.67" x2="5034" y2="786.67"/><line class="cls-1" x1="5034" y1="804.67" x2="5034" y2="903.67"/><line class="cls-1" x1="5034" y1="921.67" x2="5034" y2="1020.67"/><line class="cls-1" x1="4962" y1="1263.67" x2="5034" y2="1263.67"/><line class="cls-1" x1="5025" y1="1263.67" x2="5025" y2="1272.67"/><line class="cls-1" x1="4962" y1="1137.67" x2="5034" y2="1137.67"/><line class="cls-1" x1="4962" y1="1011.67" x2="5034" y2="1011.67"/><line class="cls-1" x1="4962" y1="894.67" x2="5034" y2="894.67"/><line class="cls-1" x1="4962" y1="768.67" x2="5034" y2="768.67"/><line class="cls-1" x1="4890" y1="1389.67" x2="5025" y2="1389.67"/><line class="cls-1" x1="4890" y1="1515.67" x2="5025" y2="1515.67"/><line class="cls-1" x1="4890" y1="1452.67" x2="5025" y2="1452.67"/><line class="cls-1" x1="4980" y1="1587" x2="4980" y2="1551.67"/><line class="cls-1" x1="5025" y1="1551.67" x2="4980" y2="1551.67"/><line class="cls-1" x1="5025" y1="1542.67" x2="5025" y2="1560.67"/><line class="cls-1" x1="5025" y1="1596" x2="5025" y2="1578"/><line class="cls-1" x1="5097" y1="1650.67" x2="5097" y2="1623.67"/><line class="cls-1" x1="5070" y1="1641" x2="5097" y2="1641"/><line class="cls-1" x1="5097" y1="1605.67" x2="5097" y2="1506.67"/><line class="cls-1" x1="5097" y1="1488.67" x2="5097" y2="1380.67"/><line class="cls-1" x1="5097" y1="1389.67" x2="5232" y2="1389.67"/><line class="cls-1" x1="5097" y1="1362.67" x2="5097" y2="1218.67"/><line class="cls-1" x1="5097" y1="1263.67" x2="5232" y2="1263.67"/><line class="cls-1" x1="5097" y1="1200.67" x2="5097" y2="1128.67"/><line class="cls-1" x1="5097" y1="1137.67" x2="5232" y2="1137.67"/><line class="cls-1" x1="5097" y1="1011.67" x2="5232" y2="1011.67"/><line class="cls-1" x1="5097" y1="858.67" x2="5097" y2="804.67"/><line class="cls-1" x1="5232" y1="831.67" x2="5097" y2="831.67"/><line class="cls-1" x1="5097" y1="660.67" x2="5097" y2="633.67"/><line class="cls-1" x1="5097" y1="642.67" x2="5232" y2="642.67"/><line class="cls-1" x1="5097" y1="615.67" x2="5097" y2="570.67"/><line class="cls-1" x1="5097" y1="462.67" x2="5232" y2="462.67"/><line class="cls-1" x1="5097" y1="417.67" x2="5097" y2="372.67"/><line class="cls-1" x1="5232" y1="390.67" x2="5079" y2="390.67"/><line class="cls-1" x1="4854" y1="264.67" x2="4854" y2="399.67"/><line class="cls-1" x1="4854" y1="525.67" x2="4854" y2="426.67"/><line class="cls-1" x1="4899" y1="390.67" x2="4917" y2="390.67"/><line class="cls-1" x1="4935" y1="390.67" x2="4989" y2="390.67"/><line class="cls-1" x1="4962" y1="264.67" x2="4962" y2="390.67"/><line class="cls-1" x1="4845" y1="462.67" x2="4962" y2="462.67"/><line class="cls-1" x1="4962" y1="525.67" x2="4962" y2="498.67"/><line class="cls-1" x1="4962" y1="462.67" x2="4962" y2="480.67"/><line class="cls-1" x1="4701" y1="390.67" x2="4764" y2="390.67"/><line class="cls-1" x1="4701" y1="273.67" x2="4737" y2="273.67"/><line class="cls-1" x1="4764" y1="390.67" x2="4764" y2="273.67"/><line class="cls-1" x1="4755" y1="273.67" x2="4764" y2="273.67"/><line class="cls-1" x1="4701" y1="426.67" x2="4746" y2="426.67"/><line class="cls-1" x1="4764" y1="390.67" x2="4764" y2="390.67"/><line class="cls-1" x1="4746" y1="435.67" x2="4746" y2="417.67"/><line class="cls-1" x1="4854" y1="210.67" x2="4755" y2="210.67"/><line class="cls-1" x1="4728" y1="84.67" x2="4728" y2="210.67"/><line class="cls-1" x1="4737" y1="210.67" x2="4665" y2="210.67"/><line class="cls-1" x1="4503" y1="210.67" x2="4404" y2="210.67"/><line class="cls-1" x1="4386" y1="210.67" x2="4287" y2="210.67"/><line class="cls-1" x1="4251" y1="210.67" x2="4161" y2="210.67"/><line class="cls-1" x1="4206" y1="84.67" x2="4206" y2="210.67"/><line class="cls-1" x1="4332" y1="84.67" x2="4332" y2="210.67"/><line class="cls-1" x1="4458" y1="84.67" x2="4458" y2="210.67"/><line class="cls-1" x1="4467" y1="273.67" x2="4431" y2="273.67"/><line class="cls-1" x1="4143" y1="273.67" x2="3909" y2="273.67"/><line class="cls-1" x1="3882" y1="273.67" x2="3846" y2="273.67"/><line class="cls-1" x1="4404" y1="273.67" x2="4170" y2="273.67"/><line class="cls-1" x1="3873" y1="210.67" x2="3783" y2="210.67"/><line class="cls-1" x1="3828" y1="210.67" x2="3828" y2="84.67"/><line class="cls-1" x1="3549" y1="210" x2="3450" y2="210.67"/><line class="cls-1" x1="3576" y1="199.79" x2="3576" y2="84"/><line class="cls-1" x1="3594" y1="273.67" x2="3567" y2="273.67"/><line class="cls-1" x1="3549" y1="273" x2="3522" y2="273.67"/><line class="cls-1" x1="3594" y1="390.67" x2="3522" y2="390.67"/><line class="cls-1" x1="3522" y1="273.67" x2="3522" y2="399.67"/><line class="cls-1" x1="3522" y1="417.67" x2="3522" y2="444.67"/><line class="cls-1" x1="3594" y1="444.67" x2="3513" y2="444.67"/><line class="cls-1" x1="3495" y1="444" x2="3450" y2="444.67"/><line class="cls-1" x1="3450" y1="390.67" x2="3450" y2="525.67"/><line class="cls-1" x1="1074" y1="390.67" x2="1074" y2="480.67"/><line class="cls-1" x1="1011" y1="390.67" x2="1011" y2="453.67"/><line class="cls-1" x1="894" y1="390.67" x2="894" y2="480.67"/><line class="cls-1" x1="849" y1="390.67" x2="849" y2="480.67"/><line class="cls-1" x1="984" y1="480.67" x2="1029" y2="480"/><line class="cls-1" x1="1047" y1="480.67" x2="1074" y2="480.67"/><line class="cls-1" x1="858" y1="480.67" x2="714" y2="480.67"/><line class="cls-1" x1="399" y1="453.67" x2="534" y2="453.67"/><line class="cls-1" x1="399" y1="390.67" x2="534" y2="390.67"/><line class="cls-1" x1="399" y1="327.67" x2="534" y2="327.67"/><line class="cls-1" x1="399" y1="264.67" x2="534" y2="264.67"/><line class="cls-1" x1="534" y1="453.67" x2="534" y2="435.67"/><line class="cls-1" x1="534" y1="417" x2="534" y2="363"/><line class="cls-1" x1="534" y1="345.67" x2="534" y2="309.67"/><line class="cls-1" x1="534" y1="291" x2="534" y2="237"/><line class="cls-1" x1="534" y1="219.67" x2="534" y2="129.67"/><line class="cls-1" x1="624" y1="129.67" x2="624" y2="210.67"/><line class="cls-1" x1="606" y1="210.67" x2="642" y2="210.67"/><line class="cls-1" x1="534" y1="210.67" x2="588" y2="210"/><line class="cls-1" x1="849" y1="390.67" x2="714" y2="390.67"/><line class="cls-1" x1="849" y1="264.67" x2="714" y2="264.67"/><line class="cls-1" x1="714" y1="480.67" x2="714" y2="435.67"/><line class="cls-1" x1="714" y1="417" x2="714" y2="363.67"/><line class="cls-1" x1="714" y1="291" x2="714" y2="237"/><line class="cls-1" x1="714" y1="219.67" x2="714" y2="129.67"/><line class="cls-1" x1="714" y1="210.67" x2="660" y2="210"/><line class="cls-1" x1="606" y1="336.67" x2="606" y2="453.67"/><line class="cls-1" x1="642" y1="309.67" x2="642" y2="480.67"/><line class="cls-1" x1="606" y1="309.67" x2="642" y2="309.67"/><line class="cls-1" x1="606" y1="480.67" x2="642" y2="480.67"/><line class="cls-1" x1="579" y1="444.67" x2="606" y2="444.67"/><line class="cls-1" x1="642" y1="444.67" x2="669" y2="444.67"/><line class="cls-1" x1="714" y1="444.67" x2="687" y2="444"/><line class="cls-1" x1="606" y1="480.67" x2="606" y2="471.67"/><line class="cls-1" x1="534" y1="444.67" x2="561" y2="444"/><line class="cls-1" x1="399" y1="525.67" x2="399" y2="606.67"/><line class="cls-1" x1="156" y1="525.67" x2="156" y2="615.67"/><line class="cls-1" x1="156" y1="633.67" x2="156" y2="678.67"/><line class="cls-1" x1="156" y1="696.67" x2="156" y2="741.67"/><line class="cls-1" x1="237" y1="525.67" x2="237" y2="606.67"/><line class="cls-1" x1="318" y1="525.67" x2="318" y2="606.67"/><line class="cls-1" x1="210" y1="606.67" x2="264" y2="606.67"/><line class="cls-1" x1="282" y1="606" x2="345" y2="606.67"/><line class="cls-1" x1="363" y1="606.67" x2="399" y2="606.67"/><line class="cls-1" x1="372" y1="606.67" x2="372" y2="615"/><line class="cls-1" x1="417" y1="651" x2="210" y2="651"/><line class="cls-1" x1="372" y1="642.67" x2="372" y2="651"/><line class="cls-1" x1="156" y1="606.67" x2="192" y2="606.67"/><line class="cls-1" x1="417" y1="741.67" x2="228" y2="741.67"/><line class="cls-1" x1="228" y1="651" x2="228" y2="669.67"/><line class="cls-1" x1="228" y1="696.67" x2="318" y2="696.67"/><line class="cls-1" x1="318" y1="651" x2="318" y2="795"/><line class="cls-1" x1="228" y1="687.67" x2="228" y2="705.67"/><line class="cls-1" x1="228" y1="759.67" x2="228" y2="723.67"/><line class="cls-1" x1="192" y1="651" x2="3" y2="651"/><line class="cls-1" x1="156" y1="714.67" x2="3" y2="714.67"/><line class="cls-1" x1="399" y1="912.67" x2="399" y2="822.67"/><line class="cls-1" x1="399" y1="741.67" x2="399" y2="804.67"/><line class="cls-1" x1="318" y1="786" x2="228" y2="786"/><line class="cls-1" x1="318" y1="822.67" x2="318" y2="840.67"/><line class="cls-1" x1="399" y1="831.67" x2="282" y2="831.67"/><line class="cls-1" x1="228" y1="786" x2="228" y2="777.67"/><line class="cls-1" x1="228" y1="831.67" x2="228" y2="912.67"/><line class="cls-1" x1="264" y1="831.67" x2="210" y2="831.67"/><line class="cls-1" x1="156" y1="759.67" x2="156" y2="795.67"/><line class="cls-1" x1="156" y1="813.67" x2="156" y2="912.67"/><line class="cls-1" x1="3" y1="831.67" x2="129" y2="831.67"/><line class="cls-1" x1="156" y1="786" x2="3" y2="786"/><line class="cls-1" x1="120" y1="786" x2="120" y2="795.67"/><line class="cls-1" x1="120" y1="831.67" x2="120" y2="813.67"/><line class="cls-1" x1="147" y1="831.67" x2="192" y2="831.67"/><line class="cls-1" x1="453" y1="912.67" x2="453" y2="1038.67"/><line class="cls-1" x1="534" y1="912.67" x2="534" y2="1038.67"/><line class="cls-1" x1="606" y1="912.67" x2="606" y2="1038.67"/><line class="cls-1" x1="678" y1="912.67" x2="678" y2="1038.67"/><line class="cls-1" x1="453" y1="1038.67" x2="498" y2="1038.67"/><line class="cls-1" x1="516" y1="1038.67" x2="552" y2="1038.67"/><line class="cls-1" x1="570" y1="1038" x2="642" y2="1038"/><line class="cls-1" x1="660" y1="1038.67" x2="696" y2="1038.67"/><line class="cls-1" x1="714" y1="1038.67" x2="849" y2="1038.67"/><line class="cls-1" x1="453" y1="1299.67" x2="453" y2="1182.67"/><line class="cls-1" x1="534" y1="1299.67" x2="534" y2="1182.67"/><line class="cls-1" x1="678" y1="1299.67" x2="678" y2="1182.67"/><line class="cls-1" x1="453" y1="1182.67" x2="498" y2="1182.67"/><line class="cls-1" x1="516" y1="1182.67" x2="552" y2="1182.67"/><line class="cls-1" x1="660" y1="1182.67" x2="696" y2="1182.67"/><line class="cls-1" x1="714" y1="1182.67" x2="849" y2="1182.67"/><line class="cls-1" x1="723" y1="1182.67" x2="723" y2="1155.67"/><line class="cls-1" x1="624" y1="1128.67" x2="453" y2="1128.67"/><line class="cls-1" x1="624" y1="1092.67" x2="624" y2="1128.67"/><line class="cls-1" x1="453" y1="1092.67" x2="453" y2="1128.67"/><line class="cls-1" x1="723" y1="1092.67" x2="723" y2="1137.67"/><line class="cls-1" x1="453" y1="1092.67" x2="462" y2="1092.67"/><line class="cls-1" x1="480" y1="1092.67" x2="579" y2="1092.67"/><line class="cls-1" x1="534" y1="1092.67" x2="534" y2="1128.67"/><line class="cls-1" x1="597" y1="1092.67" x2="624" y2="1092.67"/><line class="cls-1" x1="489" y1="1092.67" x2="489" y2="1083.67"/><line class="cls-1" x1="489" y1="1038.67" x2="489" y2="1047.67"/><line class="cls-1" x1="489" y1="1182.67" x2="489" y2="1173.67"/><line class="cls-1" x1="489" y1="1128.67" x2="489" y2="1137.67"/><line class="cls-1" x1="606" y1="1299.67" x2="606" y2="1182.67"/><line class="cls-1" x1="642" y1="1182" x2="570" y2="1182"/><line class="cls-1" x1="399" y1="1299.67" x2="399" y2="1380.67"/><line class="cls-1" x1="156" y1="1299.67" x2="156" y2="1380.67"/><line class="cls-1" x1="156" y1="1425" x2="156" y2="1443"/><line class="cls-1" x1="318" y1="1299.67" x2="318" y2="1380.67"/><line class="cls-1" x1="282" y1="1380" x2="345" y2="1380.67"/><line class="cls-1" x1="363" y1="1380.67" x2="399" y2="1380.67"/><line class="cls-1" x1="318" y1="1425" x2="228" y2="1425"/><line class="cls-1" x1="156" y1="1380.67" x2="192" y2="1380"/><line class="cls-1" x1="318" y1="1515" x2="228" y2="1515"/><line class="cls-1" x1="228" y1="1425" x2="228" y2="1434"/><line class="cls-1" x1="228" y1="1470" x2="318" y2="1470"/><line class="cls-1" x1="318" y1="1425" x2="318" y2="1560"/><line class="cls-1" x1="228" y1="1470" x2="228" y2="1479"/><line class="cls-1" x1="228" y1="1515" x2="228" y2="1497"/><line class="cls-1" x1="399" y1="1686.67" x2="399" y2="1605.67"/><line class="cls-1" x1="318" y1="1560" x2="228" y2="1560"/><line class="cls-1" x1="399" y1="1605.67" x2="363" y2="1605.67"/><line class="cls-1" x1="228" y1="1560" x2="228" y2="1542"/><line class="cls-1" x1="156" y1="1461" x2="156" y2="1515"/><line class="cls-1" x1="318" y1="1452" x2="399" y2="1452"/><line class="cls-1" x1="399" y1="1533" x2="318" y2="1533"/><line class="cls-1" x1="453" y1="1686.67" x2="453" y2="1812.67"/><line class="cls-1" x1="534" y1="1686.67" x2="534" y2="1812.67"/><line class="cls-1" x1="606" y1="1686.67" x2="606" y2="1812.67"/><line class="cls-1" x1="678" y1="1686.67" x2="678" y2="1812.67"/><line class="cls-1" x1="453" y1="1812.67" x2="498" y2="1812.67"/><line class="cls-1" x1="516" y1="1812.67" x2="552" y2="1812.67"/><line class="cls-1" x1="570" y1="1812" x2="642" y2="1812"/><line class="cls-1" x1="606" y1="2073.67" x2="606" y2="1956.67"/><line class="cls-1" x1="570" y1="1956" x2="642" y2="1956"/><line class="cls-1" x1="660" y1="1812.67" x2="696" y2="1812.67"/><line class="cls-1" x1="714" y1="1812.67" x2="849" y2="1812.67"/><line class="cls-1" x1="453" y1="2073.67" x2="453" y2="1956.67"/><line class="cls-1" x1="534" y1="2073.67" x2="534" y2="1956.67"/><line class="cls-1" x1="678" y1="2073.67" x2="678" y2="1956.67"/><line class="cls-1" x1="453" y1="1956.67" x2="498" y2="1956.67"/><line class="cls-1" x1="516" y1="1956.67" x2="552" y2="1956.67"/><line class="cls-1" x1="660" y1="1956.67" x2="696" y2="1956.67"/><line class="cls-1" x1="714" y1="1956.67" x2="849" y2="1956.67"/><line class="cls-1" x1="588" y1="1902.67" x2="453" y2="1902.67"/><line class="cls-1" x1="453" y1="1866.67" x2="453" y2="1902.67"/><line class="cls-1" x1="723" y1="1812.67" x2="723" y2="1839.67"/><line class="cls-1" x1="453" y1="1866.67" x2="462" y2="1866.67"/><line class="cls-1" x1="480" y1="1866.67" x2="606" y2="1866.67"/><line class="cls-1" x1="534" y1="1866.67" x2="534" y2="1902.67"/><line class="cls-1" x1="489" y1="1866.67" x2="489" y2="1857.67"/><line class="cls-1" x1="489" y1="1812.67" x2="489" y2="1821.67"/><line class="cls-1" x1="489" y1="1956.67" x2="489" y2="1947.67"/><line class="cls-1" x1="489" y1="1902.67" x2="489" y2="1911.67"/><line class="cls-1" x1="723" y1="1857.67" x2="723" y2="1956.67"/><line class="cls-1" x1="606" y1="1866.67" x2="606" y2="1902.67"/><line class="cls-1" x1="399" y1="2073.67" x2="399" y2="2154.67"/><line class="cls-1" x1="156" y1="2073.67" x2="156" y2="2154.67"/><line class="cls-1" x1="318" y1="2073.67" x2="318" y2="2154.67"/><line class="cls-1" x1="210" y1="2154" x2="264" y2="2154"/><line class="cls-1" x1="363" y1="2154" x2="399" y2="2154.67"/><line class="cls-1" x1="399" y1="2199" x2="228" y2="2199.67"/><line class="cls-1" x1="156" y1="2154.67" x2="192" y2="2154.67"/><line class="cls-1" x1="399" y1="2289" x2="228" y2="2289.67"/><line class="cls-1" x1="228" y1="2199.67" x2="228" y2="2226.67"/><line class="cls-1" x1="228" y1="2244.67" x2="318" y2="2244.67"/><line class="cls-1" x1="318" y1="2199.67" x2="318" y2="2334.67"/><line class="cls-1" x1="228" y1="2244.67" x2="228" y2="2253.67"/><line class="cls-1" x1="228" y1="2289.67" x2="228" y2="2271.67"/><line class="cls-1" x1="399" y1="2397.67" x2="399" y2="2379.67"/><line class="cls-1" x1="318" y1="2334" x2="228" y2="2334"/><line class="cls-1" x1="399" y1="2379.67" x2="363" y2="2379"/><line class="cls-1" x1="318" y1="2379.67" x2="318" y2="2460.67"/><line class="cls-1" x1="228" y1="2334.67" x2="228" y2="2307.67"/><line class="cls-1" x1="210" y1="2379" x2="345" y2="2379"/><line class="cls-1" x1="399" y1="2397.67" x2="453" y2="2397.67"/><line class="cls-1" x1="5025" y1="2179.79" x2="5025" y2="2424"/><line class="cls-1" x1="5097" y1="2280.67" x2="5232" y2="2280.67"/><line class="cls-1" x1="5097" y1="2262.67" x2="5097" y2="2298.67"/><line class="cls-1" x1="5097" y1="2316.67" x2="5097" y2="2424.67"/><line class="cls-1" x1="5097" y1="2181.67" x2="5097" y2="2244.67"/><line class="cls-1" x1="5097" y1="2163.67" x2="5097" y2="2136.67"/><line class="cls-1" x1="5097" y1="2154.67" x2="5115" y2="2154.67"/><line class="cls-1" x1="5097" y1="2118.67" x2="5097" y2="2010"/><line class="cls-1" x1="5097" y1="1938.67" x2="5097" y2="1992"/><line class="cls-1" x1="5097" y1="2019" x2="5115" y2="2019"/><line class="cls-1" x1="5133" y1="2019" x2="5232" y2="2019"/><line class="cls-1" x1="5025" y1="1956.67" x2="5025" y2="1839.67"/><line class="cls-1" x1="5025" y1="1821.67" x2="5025" y2="1722.67"/><line class="cls-1" x1="5034" y1="1137.67" x2="5034" y2="1038.67"/><line class="cls-1" x1="5097" y1="1074.67" x2="5232" y2="1074.67"/><line class="cls-1" x1="5097" y1="1101.67" x2="5097" y2="1038.67"/><line class="cls-1" x1="5097" y1="1020.67" x2="5097" y2="993.67"/><line class="cls-1" x1="5097" y1="876.67" x2="5097" y2="903.67"/><line class="cls-1" x1="5097" y1="768.67" x2="5232" y2="768.67"/><line class="cls-1" x1="5097" y1="786.67" x2="5097" y2="750.67"/><line class="cls-1" x1="4584" y1="84.67" x2="4584" y2="210.67"/><line class="cls-1" x1="4539" y1="210.67" x2="4629" y2="210.67"/><line class="cls-1" x1="4269" y1="84.67" x2="4269" y2="210.67"/><line class="cls-1" x1="4125" y1="210.67" x2="4035" y2="210.67"/><line class="cls-1" x1="3999" y1="210.67" x2="3909" y2="210.67"/><line class="cls-1" x1="3954" y1="84.67" x2="3954" y2="210.67"/><line class="cls-1" x1="4080" y1="84.67" x2="4080" y2="210.67"/><line class="cls-1" x1="4017" y1="84.67" x2="4017" y2="210.67"/><line class="cls-1" x1="3891" y1="84.67" x2="3891" y2="210.67"/><line class="cls-1" x1="3747" y1="210.67" x2="3657" y2="210.67"/><line class="cls-1" x1="3702" y1="210.67" x2="3702" y2="84.67"/><line class="cls-1" x1="3765" y1="84.67" x2="3765" y2="210.67"/><line class="cls-1" x1="3621" y1="210.67" x2="3567" y2="210.67"/><line class="cls-1" x1="3576" y1="210.67" x2="3576" y2="84.67"/><line class="cls-1" x1="3639" y1="84.67" x2="3639" y2="210.67"/><line class="cls-1" x1="606" y1="390.67" x2="642" y2="390.67"/><line class="cls-1" x1="318" y1="912.67" x2="318" y2="858.67"/><line class="cls-1" x1="849" y1="1110.67" x2="723" y2="1110.67"/><line class="cls-1" x1="723" y1="1038.67" x2="723" y2="1074.67"/><line class="cls-1" x1="3" y1="1425" x2="156" y2="1425"/><line class="cls-1" x1="156" y1="1686.67" x2="156" y2="1605.67"/><line class="cls-1" x1="156" y1="1605.67" x2="192" y2="1605"/><line class="cls-1" x1="156" y1="2379.67" x2="192" y2="2379.67"/><line class="cls-1" x1="3" y1="2199.67" x2="156" y2="2199.67"/><line class="cls-1" x1="156" y1="2334.67" x2="156" y2="2199.67"/><line class="cls-1" x1="156" y1="2379.67" x2="156" y2="2460.67"/><line class="cls-1" x1="4953" y1="2082.67" x2="4953" y2="2163.67"/><line class="cls-1" x1="5025" y1="2163.67" x2="4953" y2="2163"/><line class="cls-1" x1="5232" y1="2370.67" x2="5097" y2="2370.67"/><line class="cls-1" x1="5097" y1="2460.67" x2="5097" y2="2442.67"/><line class="cls-1" x1="5133" y1="2154.67" x2="5232" y2="2154.67"/><line class="cls-1" x1="4962" y1="1200.67" x2="5007" y2="1200.67"/><line class="cls-1" x1="5034" y1="1263.67" x2="5034" y2="1236.67"/><line class="cls-1" x1="5034" y1="1155.67" x2="5034" y2="1218.67"/><line class="cls-1" x1="5025" y1="1200.67" x2="5034" y2="1200.67"/><line class="cls-1" x1="5232" y1="948.67" x2="5097" y2="948.67"/><line class="cls-1" x1="5097" y1="975.67" x2="5097" y2="921.67"/><line class="cls-1" x1="5097" y1="894.67" x2="5232" y2="894.67"/><line class="cls-1" x1="5232" y1="705.67" x2="5097" y2="705.67"/><line class="cls-1" x1="5097" y1="732.67" x2="5097" y2="678.67"/><line class="cls-1" x1="5097" y1="588.67" x2="5232" y2="588.67"/><line class="cls-1" x1="5097" y1="525.67" x2="5232" y2="525.67"/><line class="cls-1" x1="5097" y1="543.67" x2="5097" y2="507.67"/><line class="cls-1" x1="5097" y1="480.67" x2="5097" y2="444.67"/><line class="cls-1" x1="4908" y1="264.67" x2="4908" y2="390.67"/><line class="cls-1" x1="4854" y1="390.67" x2="4881" y2="390.67"/><line class="cls-1" x1="5034" y1="390.67" x2="5034" y2="264.67"/><line class="cls-1" x1="5061" y1="390.67" x2="5007" y2="390.67"/><line class="cls-1" x1="5097" y1="264.67" x2="5097" y2="282.67"/><line class="cls-1" x1="5097" y1="300.67" x2="5097" y2="354.67"/><line class="cls-1" x1="4746" y1="462.67" x2="4746" y2="453.67"/><line class="cls-1" x1="4746" y1="399.67" x2="4746" y2="390.67"/><line class="cls-1" x1="4647" y1="210.67" x2="4647" y2="84.67"/><line class="cls-1" x1="4521" y1="210.67" x2="4521" y2="84.67"/><line class="cls-1" x1="4143" y1="84.67" x2="4143" y2="210.67"/><line class="cls-1" x1="948" y1="390.67" x2="948" y2="453.67"/><line class="cls-1" x1="966" y1="444.67" x2="948" y2="444.67"/><line class="cls-1" x1="1011" y1="444.67" x2="984" y2="444.67"/><line class="cls-1" x1="1011" y1="480.67" x2="1011" y2="471.67"/><line class="cls-1" x1="948" y1="480.67" x2="948" y2="471.67"/><line class="cls-1" x1="966" y1="480.67" x2="885" y2="480.67"/><line class="cls-1" x1="849" y1="327.67" x2="714" y2="327.67"/><line class="cls-1" x1="714" y1="345.67" x2="714" y2="309.67"/><line class="cls-1" x1="228" y1="1380.67" x2="228" y2="1299.67"/><line class="cls-1" x1="210" y1="1380" x2="264" y2="1380"/><line class="cls-1" x1="318" y1="1686.67" x2="318" y2="1605.67"/><line class="cls-1" x1="228" y1="1686.67" x2="228" y2="1605.67"/><line class="cls-1" x1="345" y1="1605.67" x2="282" y2="1605"/><line class="cls-1" x1="264" y1="1605" x2="210" y2="1605"/><line class="cls-1" x1="156" y1="1488" x2="3" y2="1488"/><line class="cls-1" x1="156" y1="1560" x2="3" y2="1560"/><line class="cls-1" x1="156" y1="1560" x2="156" y2="1533"/><line class="cls-1" x1="228" y1="2154.67" x2="228" y2="2073.67"/><line class="cls-1" x1="345" y1="2154" x2="282" y2="2154"/><line class="cls-1" x1="3180" y1="390" x2="3243" y2="390"/><line class="cls-1" x1="3432" y1="390" x2="3450" y2="390"/><line class="cls-1" x1="3225" y1="390" x2="3225" y2="525"/><line class="cls-1" x1="3162" y1="390" x2="3108" y2="389.55"/><line class="cls-1" x1="3135" y1="525" x2="3135" y2="390"/><line class="cls-1" x1="3063" y1="390" x2="3063" y2="525"/><line class="cls-1" x1="3090" y1="390" x2="3018" y2="390"/><line class="cls-1" x1="3000" y1="390" x2="3000" y2="525"/><line class="cls-1" x1="2982" y1="390" x2="2892" y2="390"/><line class="cls-1" x1="2937" y1="525" x2="2937" y2="390"/><line class="cls-1" x1="2730" y1="390" x2="2631" y2="390"/><line class="cls-1" x1="2685" y1="525" x2="2685" y2="390"/><line class="cls-1" x1="2613" y1="390" x2="2532" y2="390"/><line class="cls-1" x1="2559" y1="525" x2="2559" y2="390"/><line class="cls-1" x1="2748" y1="390" x2="2748" y2="525"/><line class="cls-1" x1="3216" y1="354" x2="3153" y2="354"/><line class="cls-1" x1="3135" y1="264" x2="3135" y2="354"/><line class="cls-1" x1="3117" y1="354" x2="3018" y2="354"/><line class="cls-1" x1="3063" y1="264" x2="3063" y2="354"/><line class="cls-1" x1="3000" y1="264" x2="3000" y2="354"/><line class="cls-1" x1="2982" y1="354" x2="2892" y2="354"/><line class="cls-1" x1="2937" y1="264" x2="2937" y2="354"/><line class="cls-1" x1="2874" y1="264" x2="2874" y2="354"/><line class="cls-1" x1="2748" y1="264" x2="2748" y2="354"/><line class="cls-1" x1="2730" y1="354" x2="2640" y2="354"/><line class="cls-1" x1="2685" y1="264" x2="2685" y2="354"/><line class="cls-1" x1="2622" y1="264" x2="2622" y2="354"/><line class="cls-1" x1="2604" y1="354" x2="2514" y2="354"/><line class="cls-1" x1="2559" y1="264" x2="2559" y2="354"/><line class="cls-1" x1="2496" y1="264" x2="2496" y2="354"/><line class="cls-1" x1="2478" y1="354" x2="2424" y2="354"/><line class="cls-1" x1="2433" y1="354" x2="2433" y2="264"/><line class="cls-1" x1="2370" y1="354" x2="2370" y2="264"/><line class="cls-1" x1="2433" y1="390" x2="2433" y2="525"/><line class="cls-1" x1="2460" y1="390" x2="2424" y2="390"/><line class="cls-1" x1="2433" y1="435" x2="2361" y2="435"/><line class="cls-1" x1="2361" y1="390" x2="2361" y2="435"/><line class="cls-1" x1="2397" y1="390" x2="2397" y2="435"/><line class="cls-1" x1="2361" y1="390" x2="2370" y2="390"/><line class="cls-1" x1="2388" y1="390" x2="2406" y2="390"/><line class="cls-1" x1="1677" y1="390" x2="1776" y2="390"/><line class="cls-1" x1="1731" y1="525" x2="1731" y2="390"/><line class="cls-1" x1="1686" y1="354" x2="1776" y2="354"/><line class="cls-1" x1="1731" y1="264" x2="1731" y2="354"/><line class="cls-1" x1="1812" y1="354" x2="1884" y2="354"/><line class="cls-1" x1="1866" y1="354" x2="1866" y2="264"/><line class="cls-1" x1="1794" y1="390" x2="1794" y2="525"/><line class="cls-1" x1="1866" y1="390" x2="1866" y2="525"/><line class="cls-1" x1="1812" y1="390" x2="1875" y2="390"/><line class="cls-1" x1="1866" y1="435" x2="1938" y2="435"/><line class="cls-1" x1="1938" y1="390" x2="1938" y2="435"/><line class="cls-1" x1="1902" y1="390" x2="1902" y2="435"/><line class="cls-1" x1="1938" y1="390" x2="1929" y2="390"/><line class="cls-1" x1="1911" y1="390" x2="1893" y2="390"/><line class="cls-1" x1="1668" y1="264" x2="1668" y2="354"/><line class="cls-1" x1="1650" y1="354" x2="1542" y2="354"/><line class="cls-1" x1="1596" y1="363" x2="1596" y2="264"/><line class="cls-1" x1="1524" y1="264" x2="1524" y2="354"/><line class="cls-1" x1="1506" y1="354" x2="1398" y2="354"/><line class="cls-1" x1="1452" y1="354" x2="1452" y2="264"/><line class="cls-1" x1="1380" y1="264" x2="1380" y2="354"/><line class="cls-1" x1="1362" y1="354" x2="1272" y2="354"/><line class="cls-1" x1="1308" y1="354" x2="1308" y2="264"/><line class="cls-1" x1="1254" y1="264" x2="1254" y2="354"/><line class="cls-1" x1="1191" y1="264" x2="1191" y2="363"/><line class="cls-1" x1="1191" y1="354" x2="1236" y2="354"/><line class="cls-1" x1="1506" y1="390" x2="1389" y2="390"/><line class="cls-1" x1="1452" y1="525" x2="1452" y2="390"/><line class="cls-1" x1="1596" y1="525" x2="1596" y2="381"/><line class="cls-1" x1="1371" y1="390" x2="1272" y2="390"/><line class="cls-1" x1="1308" y1="525" x2="1308" y2="390"/><line class="cls-1" x1="1524" y1="525" x2="1524" y2="390"/><line class="cls-1" x1="1254" y1="525" x2="1254" y2="390"/><line class="cls-1" x1="1236" y1="390" x2="1173" y2="390"/><line class="cls-1" x1="1191" y1="525" x2="1191" y2="381"/><line class="cls-1" x1="1137" y1="525" x2="1137" y2="390"/><line class="cls-1" x1="1155" y1="390" x2="1137" y2="390"/><line class="cls-1" x1="2856" y1="390" x2="2766" y2="390"/><line class="cls-1" x1="2811" y1="524.55" x2="2811" y2="389.55"/><line class="cls-1" x1="2856" y1="354" x2="2766" y2="354"/><line class="cls-1" x1="2811" y1="264" x2="2811" y2="353.55"/><line class="cls-1" x1="1983" y1="390" x2="1983" y2="525"/><line class="cls-1" x1="2316" y1="390" x2="2316" y2="525"/><line class="cls-1" x1="2055" y1="390" x2="2244" y2="390"/><line class="cls-1" x1="2316" y1="390" x2="2262" y2="390"/><line class="cls-1" x1="2037" y1="390" x2="1983" y2="390"/><line class="cls-1" x1="3387" y1="525" x2="3387" y2="390"/><line class="cls-1" x1="3351" y1="390" x2="3405" y2="390"/><line class="cls-1" x1="2352" y1="354" x2="2406" y2="354"/><line class="cls-1" x1="3216" y1="354" x2="3216" y2="327"/><line class="cls-1" x1="1191" y1="327" x2="1173" y2="327"/><line class="cls-1" x1="1137" y1="264" x2="1137" y2="327"/><line class="cls-1" x1="1110" y1="327" x2="1155" y2="327"/><line class="cls-1" x1="1542" y1="390" x2="1659" y2="390"/><line class="cls-1" x1="1074" y1="327" x2="1092" y2="327"/><line class="cls-1" x1="1794" y1="264" x2="1794" y2="354"/><line class="cls-1" x1="1920" y1="354" x2="1920" y2="264"/><line class="cls-1" x1="1983" y1="354" x2="1983" y2="264"/><line class="cls-1" x1="1956" y1="354" x2="1983" y2="354"/><line class="cls-1" x1="1938" y1="354" x2="1902" y2="354"/><line class="cls-1" x1="3279" y1="390" x2="3279" y2="525"/><line class="cls-1" x1="3261" y1="390" x2="3333" y2="390"/><line class="cls-1" x1="2316" y1="354" x2="2316" y2="264"/><line class="cls-1" x1="2334" y1="354" x2="2316" y2="354"/><line class="cls-1" x1="2874" y1="390" x2="2874" y2="525"/><line class="cls-1" x1="2496" y1="434.55" x2="2496" y2="525"/><line class="cls-1" x1="2478" y1="389.55" x2="2478" y2="434.55"/><line class="cls-1" x1="2514" y1="389.55" x2="2514" y2="434.55"/><line class="cls-1" x1="2478" y1="434.55" x2="2514" y2="434.55"/><line class="cls-1" x1="2478" y1="389.55" x2="2487" y2="389.55"/><line class="cls-1" x1="2514" y1="389.55" x2="2505" y2="389.55"/><line class="cls-1" x1="5097" y1="327" x2="5232" y2="327"/><line class="cls-1" x1="2280" y1="354" x2="2280" y2="291"/><line class="cls-1" x1="2280" y1="354" x2="2217" y2="354"/><line class="cls-1" x1="2217" y1="354" x2="2217" y2="291"/><line class="cls-1" x1="2280" y1="291" x2="2217" y2="291"/><line class="cls-1" x1="2181" y1="354" x2="2181" y2="291"/><line class="cls-1" x1="2181" y1="354" x2="2118" y2="354"/><line class="cls-1" x1="2118" y1="354" x2="2118" y2="291"/><line class="cls-1" x1="2181" y1="291" x2="2118" y2="291"/><line class="cls-1" x1="2082" y1="354" x2="2082" y2="291"/><line class="cls-1" x1="2082" y1="354" x2="2019" y2="354"/><line class="cls-1" x1="2019" y1="354" x2="2019" y2="291"/><line class="cls-1" x1="2082" y1="291" x2="2019" y2="291"/><line class="cls-1" x1="606" y1="309" x2="606" y2="318"/><line class="cls-1" x1="5025" y1="2370" x2="4890" y2="2370"/><line class="cls-1" x1="5025" y1="2460" x2="5025" y2="2442"/><line class="cls-1" x1="5097" y1="1767" x2="5115" y2="1767"/><line class="cls-1" x1="435" y1="651" x2="453" y2="651"/><line class="cls-1" x1="453" y1="748.59" x2="453" y2="729.19"/><line class="cls-1" x1="453" y1="651" x2="453" y2="676.59"/><line class="cls-1" x1="435" y1="741" x2="453" y2="741"/><line class="cls-1" x1="453" y1="676.59" x2="471" y2="676.59"/><line class="cls-1" x1="453" y1="730.59" x2="507" y2="730.59"/><line class="cls-1" x1="453" y1="784.59" x2="453" y2="766.59"/><line class="cls-1" x1="507" y1="676.59" x2="489" y2="676.59"/><line class="cls-1" x1="453" y1="1452" x2="444" y2="1452"/><line class="cls-1" x1="453" y1="1533" x2="444" y2="1533"/><line class="cls-1" x1="453" y1="1425" x2="453" y2="1479"/><line class="cls-1" x1="453" y1="1560" x2="453" y2="1506"/><line class="cls-1" x1="453" y1="1506" x2="471" y2="1506"/><line class="cls-1" x1="507" y1="1506" x2="489" y2="1506"/><line class="cls-1" x1="453" y1="1479" x2="471" y2="1479"/><line class="cls-1" x1="507" y1="1479" x2="489" y2="1479"/><line class="cls-1" x1="399" y1="1533" x2="399" y2="1560"/><line class="cls-1" x1="363" y1="1533" x2="363" y2="1560"/><line class="cls-1" x1="399" y1="1452" x2="399" y2="1425"/><line class="cls-1" x1="363" y1="1452" x2="363" y2="1425"/><line class="cls-1" x1="453" y1="2289" x2="444" y2="2289"/><line class="cls-1" x1="453" y1="2199" x2="444" y2="2199"/><line class="cls-1" x1="453" y1="2334" x2="453" y2="2316"/><line class="cls-1" x1="453" y1="2298" x2="453" y2="2262"/><line class="cls-1" x1="453" y1="2280" x2="507" y2="2280"/><line class="cls-1" x1="453" y1="2199" x2="453" y2="2244"/><line class="cls-1" x1="453" y1="2226" x2="471" y2="2226"/><line class="cls-1" x1="507" y1="2226" x2="489" y2="2226"/><line class="cls-1" x1="4989" y1="2082" x2="4989" y2="2109"/><line class="cls-1" x1="5025" y1="2109" x2="5016" y2="2109"/><line class="cls-1" x1="4998" y1="2109" x2="4980" y2="2109"/><line class="cls-1" x1="4953" y1="2109" x2="4962" y2="2109"/><line class="cls-1" x1="4890" y1="1641" x2="4890" y2="1632"/><line class="cls-1" x1="4890" y1="2028" x2="4890" y2="2019"/><line class="cls-1" x1="4827" y1="462" x2="4701" y2="462"/><line class="cls-1" x1="4791" y1="525" x2="4791" y2="498"/><line class="cls-1" x1="4791" y1="462" x2="4791" y2="480"/></g></g></g></svg>