<?xml version="1.0" encoding="UTF-8"?><svg id="Layer_2" xmlns="http://www.w3.org/2000/svg" width="5316" height="2463" viewBox="0 0 5316 2463"><defs><style>.cls-1,.cls-2,.cls-3{fill:none;stroke:#000;stroke-linecap:round;stroke-miterlimit:10;}.cls-1,.cls-3{stroke-width:3px;}.cls-2{stroke-width:6px;}.cls-4{opacity:.06;}.cls-3{stroke-dasharray:6;}</style></defs><g id="Maps"><g id="Floor_3"><g id="Colors" class="cls-4"><polygon points="4890 2460 5025 2460 5025 2109 4953 2109 4953 2082 4890 2082 4890 2460"/><polygon points="4818 2028 4890 2028 4890 2019 5025 2019 5025 1641 4890 1641 4890 1632 4818 1632 4818 2028"/><polygon points="4890 1587 4980 1587 4980 1551 5025 1551 5025 1263 4890 1263 4890 1587"/><polygon points="5097 2460 5232 2460 5232 2019 5313 1956 5232 1893 5313 1830 5232 1767 5313 1704 5232 1641 5232 264 4854 264 4854 390 5097 390 5097 2460"/><polygon points="4962 1137 5034 1137 5034 588 5007 588 5007 525 4962 525 4962 1137"/><rect x="4701" y="462" width="153" height="63"/><polygon points="4854 210 4854 84 4791 3 4728 84 3576 84 3513 3 3450 84 3450 210 4854 210"/><polygon points="3594 444 3594 525 3135 525 3135 390 3450 390 3450 444 3594 444"/><rect x="2433" y="390" width="630" height="135"/><rect x="2370" y="264" width="846" height="90"/><rect x="1983" y="390" width="333" height="135"/><rect x="1191" y="390" width="675" height="135"/><polygon points="1866 264 1866 354 1191 354 1191 327 1074 327 1074 264 1866 264"/><polygon points="1074 390 1074 480 714 480 714 210 534 210 534 453 399 453 399 129 849 129 849 390 1074 390"/><rect x="606" y="309" width="36" height="171"/><polygon points="399 525 399 606 156 606 156 831 399 831 399 912 3 912 3 525 399 525"/><rect x="228" y="651" width="90" height="135"/><rect x="453" y="651" width="54" height="27"/><polygon points="453 912 453 1038 723 1038 723 1182 453 1182 453 1299 849 1299 849 912 453 912"/><rect x="453" y="1092" width="171" height="36"/><rect x="156" y="1299" width="243" height="81"/><rect x="228" y="1425" width="90" height="135"/><polygon points="156 1425 3 1425 3 1686 399 1686 399 1605 156 1605 156 1425"/><polygon points="453 1686 453 1812 723 1812 723 1956 453 1956 453 2073 849 2073 849 1686 453 1686"/><rect x="453" y="1866" width="171" height="36"/><rect x="156" y="2073" width="243" height="81"/><rect x="453" y="2199" width="54" height="27"/><rect x="228" y="2199" width="90" height="135"/><rect x="3" y="2199" width="153" height="135"/><polygon points="156 2379 156 2460 453 2460 453 2397 399 2397 399 2379 156 2379"/></g><g id="Outline"><line class="cls-2" x1="4818" y1="1631.77" x2="4818" y2="2028"/><line class="cls-2" x1="4890" y1="2028" x2="4818" y2="2028"/><line class="cls-2" x1="4890" y1="2459.77" x2="4890" y2="2028"/><line class="cls-2" x1="5232" y1="2459.77" x2="4890" y2="2459.77"/><line class="cls-2" x1="5232" y1="263.77" x2="5232" y2="1641"/><line class="cls-2" x1="4890" y1="1631.77" x2="4818" y2="1631.77"/><line class="cls-2" x1="4890" y1="1262.77" x2="4890" y2="1631.77"/><line class="cls-2" x1="4962" y1="1262.77" x2="4890" y2="1262.77"/><line class="cls-2" x1="4962" y1="524.77" x2="4962" y2="1262.77"/><line class="cls-2" x1="4701" y1="524.77" x2="4962" y2="524.77"/><line class="cls-2" x1="4701" y1="272.77" x2="4701" y2="524.77"/><line class="cls-2" x1="3594" y1="272.77" x2="4701" y2="272.77"/><line class="cls-2" x1="3594" y1="524.77" x2="3594" y2="272.77"/><line class="cls-2" x1="453" y1="524.77" x2="3594" y2="524.77"/><line class="cls-2" x1="5232" y1="263.77" x2="4854" y2="263.77"/><line class="cls-2" x1="3576" y1="83.77" x2="4728" y2="83.77"/><line class="cls-2" x1="4854" y1="263.77" x2="4854" y2="83.77"/><line class="cls-2" x1="3450" y1="326.77" x2="3450" y2="83.77"/><line class="cls-2" x1="3216" y1="326.77" x2="3450" y2="326.77"/><line class="cls-2" x1="3216" y1="263.77" x2="3216" y2="326.77"/><line class="cls-2" x1="3216" y1="263.77" x2="1074" y2="263.77"/><line class="cls-2" x1="1074" y1="389.77" x2="1074" y2="263.77"/><line class="cls-2" x1="849" y1="389.77" x2="1074" y2="389.77"/><line class="cls-2" x1="399" y1="524.77" x2="399" y2="128.77"/><line class="cls-2" x1="849" y1="389.77" x2="849" y2="128.77"/><line class="cls-2" x1="399" y1="128.77" x2="849" y2="128.77"/><line class="cls-2" x1="399" y1="911.77" x2="3" y2="911.77"/><line class="cls-2" x1="3" y1="911.77" x2="3" y2="524.77"/><line class="cls-2" x1="3" y1="524.77" x2="399" y2="524.77"/><line class="cls-2" x1="453" y1="1298.77" x2="849" y2="1298.77"/><line class="cls-2" x1="849" y1="1298.77" x2="849" y2="911.77"/><line class="cls-2" x1="849" y1="911.77" x2="453" y2="911.77"/><line class="cls-2" x1="399" y1="1685.77" x2="3" y2="1685.77"/><line class="cls-2" x1="3" y1="1685.77" x2="3" y2="1298.77"/><line class="cls-2" x1="3" y1="1298.77" x2="399" y2="1298.77"/><line class="cls-2" x1="399" y1="911.77" x2="399" y2="1298.77"/><line class="cls-2" x1="453" y1="2072.77" x2="849" y2="2072.77"/><line class="cls-2" x1="849" y1="2072.77" x2="849" y2="1685.77"/><line class="cls-2" x1="849" y1="1685.77" x2="453" y2="1685.77"/><line class="cls-2" x1="453" y1="2459.77" x2="3" y2="2459.77"/><line class="cls-2" x1="3" y1="2459.77" x2="3" y2="2072.77"/><line class="cls-2" x1="3" y1="2072.77" x2="399" y2="2072.77"/><line class="cls-2" x1="399" y1="1685.77" x2="399" y2="2072.77"/><line class="cls-2" x1="453" y1="912" x2="453" y2="786"/><line class="cls-2" x1="453" y1="651" x2="453" y2="525"/><line class="cls-2" x1="507" y1="651" x2="507" y2="786"/><line class="cls-2" x1="453" y1="651" x2="507" y2="651"/><line class="cls-2" x1="453" y1="786" x2="507" y2="786"/><line class="cls-2" x1="453" y1="1686" x2="453" y2="1560"/><line class="cls-2" x1="453" y1="1425" x2="453" y2="1299"/><line class="cls-2" x1="507" y1="1425" x2="507" y2="1560"/><line class="cls-2" x1="453" y1="1425" x2="507" y2="1425"/><line class="cls-2" x1="453" y1="1560" x2="507" y2="1560"/><line class="cls-2" x1="453" y1="2460" x2="453" y2="2334"/><line class="cls-2" x1="453" y1="2199" x2="453" y2="2073"/><line class="cls-2" x1="507" y1="2199" x2="507" y2="2334"/><line class="cls-2" x1="453" y1="2199" x2="507" y2="2199"/><line class="cls-2" x1="453" y1="2334" x2="507" y2="2334"/><line class="cls-2" x1="5232" y1="1767" x2="5313" y2="1830"/><line class="cls-2" x1="5232" y1="1893" x2="5313" y2="1830"/><line class="cls-2" x1="5232" y1="1893" x2="5313" y2="1956"/><line class="cls-2" x1="5232" y1="2019" x2="5313" y2="1956"/><line class="cls-2" x1="5232" y1="1641" x2="5313" y2="1704"/><line class="cls-2" x1="5232" y1="1767" x2="5313" y2="1704"/><line class="cls-2" x1="5232" y1="2019" x2="5232" y2="2460"/><line class="cls-2" x1="3450" y1="84" x2="3513" y2="3"/><line class="cls-2" x1="3576" y1="84" x2="3513" y2="3"/><line class="cls-2" x1="4728" y1="84" x2="4791" y2="3"/><line class="cls-2" x1="4854" y1="84" x2="4791" y2="3"/></g><g id="Indoor"><line class="cls-1" x1="4890" y1="2019" x2="5043" y2="2019"/><line class="cls-1" x1="5025" y1="1982.77" x2="5025" y2="2054.77"/><line class="cls-1" x1="5025" y1="2072.77" x2="5025" y2="2117.77"/><line class="cls-1" x1="4890" y1="2081.77" x2="5025" y2="2081.77"/><line class="cls-1" x1="4890" y1="2153.77" x2="5025" y2="2153.77"/><line class="cls-1" x1="5025" y1="2135.77" x2="5025" y2="2162.77"/><line class="cls-1" x1="4818" y1="1685.77" x2="4818" y2="1973.77"/><line class="cls-1" x1="5097" y1="1910.77" x2="5097" y2="1848"/><line class="cls-1" x1="5097" y1="1892.77" x2="5232" y2="1892.77"/><line class="cls-1" x1="5097" y1="1812" x2="5097" y2="1748.77"/><line class="cls-1" x1="5097" y1="1766.77" x2="5232" y2="1766.77"/><line class="cls-1" x1="4890" y1="1587" x2="5025" y2="1587"/><line class="cls-1" x1="4890" y1="1641" x2="5025" y2="1641"/><line class="cls-1" x1="5025" y1="1613.77" x2="5025" y2="1703.77"/><line class="cls-1" x1="5025" y1="1523.77" x2="5025" y2="1505.77"/><line class="cls-1" x1="5025" y1="1487.77" x2="5025" y2="1415.77"/><line class="cls-1" x1="5025" y1="1397.77" x2="5025" y2="1379.77"/><line class="cls-1" x1="4962" y1="524.77" x2="5007" y2="524.77"/><line class="cls-1" x1="5007" y1="560.77" x2="5007" y2="524.77"/><line class="cls-1" x1="4962" y1="587.77" x2="5034" y2="587.77"/><line class="cls-1" x1="5034" y1="587.77" x2="5034" y2="614.77"/><line class="cls-1" x1="4962" y1="641.77" x2="5034" y2="641.77"/><line class="cls-1" x1="5034" y1="659.77" x2="5034" y2="632.77"/><line class="cls-1" x1="5034" y1="677.77" x2="5034" y2="785.77"/><line class="cls-1" x1="5034" y1="803.77" x2="5034" y2="902.77"/><line class="cls-1" x1="5034" y1="920.77" x2="5034" y2="1019.77"/><line class="cls-1" x1="4962" y1="1262.77" x2="5034" y2="1262.77"/><line class="cls-1" x1="5025" y1="1262.77" x2="5025" y2="1271.77"/><line class="cls-1" x1="4962" y1="1136.77" x2="5034" y2="1136.77"/><line class="cls-1" x1="4962" y1="1010.77" x2="5034" y2="1010.77"/><line class="cls-1" x1="4962" y1="893.77" x2="5034" y2="893.77"/><line class="cls-1" x1="4962" y1="767.77" x2="5034" y2="767.77"/><line class="cls-1" x1="4890" y1="1388.77" x2="5025" y2="1388.77"/><line class="cls-1" x1="4890" y1="1514.77" x2="5025" y2="1514.77"/><line class="cls-1" x1="4890" y1="1451.77" x2="5025" y2="1451.77"/><line class="cls-1" x1="4980" y1="1587" x2="4980" y2="1550.77"/><line class="cls-1" x1="5025" y1="1550.77" x2="4980" y2="1550.77"/><line class="cls-1" x1="5025" y1="1541.77" x2="5025" y2="1559.77"/><line class="cls-1" x1="5025" y1="1596" x2="5025" y2="1578"/><line class="cls-1" x1="5097" y1="1730.77" x2="5097" y2="1622.77"/><line class="cls-1" x1="5097" y1="1641" x2="5232" y2="1641"/><line class="cls-1" x1="5097" y1="1604.77" x2="5097" y2="1541.77"/><line class="cls-1" x1="5097" y1="1514.77" x2="5232" y2="1514.77"/><line class="cls-1" x1="5097" y1="1487.77" x2="5097" y2="1379.77"/><line class="cls-1" x1="5097" y1="1388.77" x2="5232" y2="1388.77"/><line class="cls-1" x1="5097" y1="1361.77" x2="5097" y2="1217.77"/><line class="cls-1" x1="5097" y1="1262.77" x2="5232" y2="1262.77"/><line class="cls-1" x1="5097" y1="1199.77" x2="5097" y2="1127.77"/><line class="cls-1" x1="5097" y1="1136.77" x2="5232" y2="1136.77"/><line class="cls-1" x1="5097" y1="1010.77" x2="5232" y2="1010.77"/><line class="cls-1" x1="5097" y1="857.77" x2="5097" y2="803.77"/><line class="cls-1" x1="5232" y1="839.77" x2="5097" y2="839.77"/><line class="cls-1" x1="5097" y1="659.77" x2="5097" y2="632.77"/><line class="cls-1" x1="5097" y1="641.77" x2="5232" y2="641.77"/><line class="cls-1" x1="5097" y1="614.77" x2="5097" y2="452.77"/><line class="cls-1" x1="5097" y1="461.77" x2="5232" y2="461.77"/><line class="cls-1" x1="5097" y1="398.77" x2="5097" y2="263.77"/><line class="cls-1" x1="5097" y1="389.77" x2="5079" y2="389.77"/><line class="cls-1" x1="4854" y1="263.77" x2="4854" y2="398.77"/><line class="cls-1" x1="4854" y1="524.77" x2="4854" y2="425.77"/><line class="cls-1" x1="4854" y1="389.77" x2="4926" y2="389.77"/><line class="cls-1" x1="4944" y1="389.77" x2="5061" y2="389.77"/><line class="cls-1" x1="4962" y1="263.77" x2="4962" y2="389.77"/><line class="cls-1" x1="4845" y1="461.77" x2="4962" y2="461.77"/><line class="cls-1" x1="4962" y1="524.77" x2="4962" y2="497.77"/><line class="cls-1" x1="4962" y1="461.77" x2="4962" y2="479.77"/><line class="cls-1" x1="4701" y1="389.77" x2="4764" y2="389.77"/><line class="cls-1" x1="4701" y1="272.77" x2="4737" y2="272.77"/><line class="cls-1" x1="4764" y1="389.77" x2="4764" y2="272.77"/><line class="cls-1" x1="4755" y1="272.77" x2="4764" y2="272.77"/><line class="cls-1" x1="4701" y1="425.77" x2="4746" y2="425.77"/><line class="cls-1" x1="4764" y1="389.77" x2="4764" y2="389.77"/><line class="cls-1" x1="4746" y1="425.77" x2="4746" y2="416.77"/><line class="cls-1" x1="4854" y1="209.77" x2="4755" y2="209.77"/><line class="cls-1" x1="4728" y1="83.77" x2="4728" y2="209.77"/><line class="cls-1" x1="4737" y1="210" x2="4665" y2="210"/><line class="cls-1" x1="4503" y1="209.77" x2="4413" y2="209.77"/><line class="cls-1" x1="4377" y1="209.77" x2="4287" y2="209.77"/><line class="cls-1" x1="4251" y1="209.77" x2="4161" y2="209.77"/><line class="cls-1" x1="4206" y1="83.77" x2="4206" y2="209.77"/><line class="cls-1" x1="4332" y1="83.77" x2="4332" y2="209.77"/><line class="cls-1" x1="4458" y1="83.77" x2="4458" y2="209.77"/><line class="cls-1" x1="4467" y1="272.77" x2="4431" y2="272.77"/><line class="cls-1" x1="4143" y1="272.77" x2="3909" y2="272.77"/><line class="cls-1" x1="3882" y1="272.77" x2="3846" y2="272.77"/><line class="cls-1" x1="4404" y1="272.77" x2="4170" y2="272.77"/><line class="cls-1" x1="3873" y1="209.77" x2="3783" y2="209.77"/><line class="cls-1" x1="3828" y1="209.77" x2="3828" y2="83.77"/><line class="cls-1" x1="3549" y1="210" x2="3450" y2="209.77"/><line class="cls-1" x1="3576" y1="198.89" x2="3576" y2="84"/><line class="cls-1" x1="3594" y1="272.77" x2="3567" y2="272.77"/><line class="cls-1" x1="3549" y1="273" x2="3522" y2="272.77"/><line class="cls-1" x1="3594" y1="389.77" x2="3522" y2="389.77"/><line class="cls-1" x1="3522" y1="272.77" x2="3522" y2="398.77"/><line class="cls-1" x1="3522" y1="416.77" x2="3522" y2="443.77"/><line class="cls-1" x1="3594" y1="443.77" x2="3513" y2="443.77"/><line class="cls-1" x1="3495" y1="444" x2="3450" y2="443.77"/><line class="cls-1" x1="3450" y1="390" x2="3450" y2="524.77"/><line class="cls-1" x1="1074" y1="389.77" x2="1074" y2="479.77"/><line class="cls-1" x1="1011" y1="389.77" x2="1011" y2="479.77"/><line class="cls-1" x1="894" y1="389.77" x2="894" y2="479.77"/><line class="cls-1" x1="849" y1="389.77" x2="849" y2="479.77"/><line class="cls-1" x1="885" y1="479.77" x2="939" y2="479.77"/><line class="cls-1" x1="966" y1="479.77" x2="1029" y2="480"/><line class="cls-1" x1="1047" y1="479.77" x2="1074" y2="479.77"/><line class="cls-1" x1="858" y1="479.77" x2="714" y2="479.77"/><line class="cls-1" x1="399" y1="452.77" x2="534" y2="452.77"/><line class="cls-1" x1="399" y1="389.77" x2="534" y2="389.77"/><line class="cls-1" x1="399" y1="326.77" x2="534" y2="326.77"/><line class="cls-1" x1="399" y1="263.77" x2="534" y2="263.77"/><line class="cls-1" x1="534" y1="452.77" x2="534" y2="434.77"/><line class="cls-1" x1="534" y1="417" x2="534" y2="363"/><line class="cls-1" x1="534" y1="344.77" x2="534" y2="308.77"/><line class="cls-1" x1="534" y1="291" x2="534" y2="237"/><line class="cls-1" x1="534" y1="218.77" x2="534" y2="128.77"/><line class="cls-1" x1="624" y1="128.77" x2="624" y2="209.77"/><line class="cls-1" x1="606" y1="209.77" x2="642" y2="209.77"/><line class="cls-1" x1="534" y1="209.77" x2="588" y2="210"/><line class="cls-1" x1="849" y1="389.77" x2="714" y2="389.77"/><line class="cls-1" x1="849" y1="263.77" x2="714" y2="263.77"/><line class="cls-1" x1="714" y1="479.77" x2="714" y2="434.77"/><line class="cls-1" x1="714" y1="291" x2="714" y2="237"/><line class="cls-1" x1="714" y1="218.77" x2="714" y2="128.77"/><line class="cls-1" x1="714" y1="209.77" x2="660" y2="210"/><line class="cls-1" x1="606" y1="335.77" x2="606" y2="452.77"/><line class="cls-1" x1="642" y1="308.77" x2="642" y2="479.77"/><line class="cls-1" x1="606" y1="308.77" x2="642" y2="308.77"/><line class="cls-1" x1="606" y1="479.77" x2="642" y2="479.77"/><line class="cls-1" x1="579" y1="443.77" x2="606" y2="443.77"/><line class="cls-1" x1="642" y1="443.77" x2="669" y2="443.77"/><line class="cls-1" x1="714" y1="443.77" x2="687" y2="444"/><line class="cls-1" x1="606" y1="479.77" x2="606" y2="470.77"/><line class="cls-1" x1="534" y1="443.77" x2="561" y2="444"/><line class="cls-1" x1="399" y1="524.77" x2="399" y2="605.77"/><line class="cls-1" x1="156" y1="524.77" x2="156" y2="614.77"/><line class="cls-1" x1="156" y1="632.77" x2="156" y2="677.77"/><line class="cls-1" x1="156" y1="695.77" x2="156" y2="740.77"/><line class="cls-1" x1="237" y1="524.77" x2="237" y2="605.77"/><line class="cls-1" x1="318" y1="524.77" x2="318" y2="605.77"/><line class="cls-1" x1="210" y1="605.77" x2="264" y2="605.77"/><line class="cls-1" x1="282" y1="605.77" x2="345" y2="605.77"/><line class="cls-1" x1="363" y1="605.77" x2="399" y2="605.77"/><line class="cls-1" x1="372" y1="605.77" x2="372" y2="615"/><line class="cls-1" x1="417" y1="651" x2="210" y2="651"/><line class="cls-1" x1="372" y1="641.77" x2="372" y2="651"/><line class="cls-1" x1="156" y1="605.77" x2="192" y2="605.77"/><line class="cls-1" x1="417" y1="740.77" x2="228" y2="740.77"/><line class="cls-1" x1="228" y1="651" x2="228" y2="668.77"/><line class="cls-1" x1="228" y1="695.77" x2="318" y2="695.77"/><line class="cls-1" x1="318" y1="651" x2="318" y2="795"/><line class="cls-1" x1="228" y1="686.77" x2="228" y2="704.77"/><line class="cls-1" x1="228" y1="758.77" x2="228" y2="722.77"/><line class="cls-1" x1="192" y1="651" x2="3" y2="651"/><line class="cls-1" x1="156" y1="713.77" x2="3" y2="713.77"/><line class="cls-1" x1="399" y1="911.77" x2="399" y2="821.77"/><line class="cls-1" x1="399" y1="740.77" x2="399" y2="803.77"/><line class="cls-1" x1="318" y1="786" x2="228" y2="786"/><line class="cls-1" x1="399" y1="830.77" x2="363" y2="830.77"/><line class="cls-1" x1="318" y1="821.77" x2="318" y2="839.77"/><line class="cls-1" x1="345" y1="830.77" x2="282" y2="830.77"/><line class="cls-1" x1="228" y1="786" x2="228" y2="776.77"/><line class="cls-1" x1="228" y1="830.77" x2="228" y2="911.77"/><line class="cls-1" x1="264" y1="830.77" x2="210" y2="830.77"/><line class="cls-1" x1="156" y1="758.77" x2="156" y2="794.77"/><line class="cls-1" x1="156" y1="812.77" x2="156" y2="911.77"/><line class="cls-1" x1="3" y1="830.77" x2="129" y2="830.77"/><line class="cls-1" x1="156" y1="786" x2="3" y2="786"/><line class="cls-1" x1="120" y1="786" x2="120" y2="794.77"/><line class="cls-1" x1="120" y1="830.77" x2="120" y2="812.77"/><line class="cls-1" x1="147" y1="830.77" x2="192" y2="830.77"/><line class="cls-1" x1="453" y1="911.77" x2="453" y2="1037.77"/><line class="cls-1" x1="534" y1="911.77" x2="534" y2="1037.77"/><line class="cls-1" x1="606" y1="911.77" x2="606" y2="1037.77"/><line class="cls-1" x1="678" y1="911.77" x2="678" y2="1037.77"/><line class="cls-1" x1="453" y1="1037.77" x2="498" y2="1037.77"/><line class="cls-1" x1="516" y1="1037.77" x2="552" y2="1037.77"/><line class="cls-1" x1="570" y1="1038" x2="642" y2="1038"/><line class="cls-1" x1="660" y1="1037.77" x2="696" y2="1037.77"/><line class="cls-1" x1="714" y1="1037.77" x2="849" y2="1037.77"/><line class="cls-1" x1="453" y1="1298.77" x2="453" y2="1181.77"/><line class="cls-1" x1="534" y1="1298.77" x2="534" y2="1181.77"/><line class="cls-1" x1="678" y1="1298.77" x2="678" y2="1181.77"/><line class="cls-1" x1="453" y1="1181.77" x2="498" y2="1181.77"/><line class="cls-1" x1="516" y1="1181.77" x2="552" y2="1181.77"/><line class="cls-1" x1="660" y1="1181.77" x2="696" y2="1181.77"/><line class="cls-1" x1="714" y1="1181.77" x2="849" y2="1181.77"/><line class="cls-1" x1="723" y1="1181.77" x2="723" y2="1154.77"/><line class="cls-1" x1="624" y1="1127.77" x2="453" y2="1127.77"/><line class="cls-1" x1="624" y1="1091.77" x2="624" y2="1127.77"/><line class="cls-1" x1="453" y1="1091.77" x2="453" y2="1127.77"/><line class="cls-1" x1="723" y1="1091.77" x2="723" y2="1136.77"/><line class="cls-1" x1="453" y1="1091.77" x2="462" y2="1091.77"/><line class="cls-1" x1="480" y1="1091.77" x2="579" y2="1091.77"/><line class="cls-1" x1="534" y1="1091.77" x2="534" y2="1127.77"/><line class="cls-1" x1="597" y1="1091.77" x2="624" y2="1091.77"/><line class="cls-1" x1="489" y1="1091.77" x2="489" y2="1082.77"/><line class="cls-1" x1="489" y1="1037.77" x2="489" y2="1046.77"/><line class="cls-1" x1="489" y1="1181.77" x2="489" y2="1172.77"/><line class="cls-1" x1="489" y1="1127.77" x2="489" y2="1136.77"/><line class="cls-1" x1="606" y1="1298.77" x2="606" y2="1181.77"/><line class="cls-1" x1="642" y1="1182" x2="570" y2="1182"/><line class="cls-1" x1="399" y1="1298.77" x2="399" y2="1379.77"/><line class="cls-1" x1="156" y1="1298.77" x2="156" y2="1379.77"/><line class="cls-1" x1="156" y1="1425" x2="156" y2="1451.77"/><line class="cls-1" x1="318" y1="1298.77" x2="318" y2="1379.77"/><line class="cls-1" x1="210" y1="1379.77" x2="345" y2="1379.77"/><line class="cls-1" x1="363" y1="1379.77" x2="399" y2="1379.77"/><line class="cls-1" x1="318" y1="1425" x2="228" y2="1425"/><line class="cls-1" x1="156" y1="1379.77" x2="192" y2="1379.77"/><line class="cls-1" x1="318" y1="1515" x2="228" y2="1515"/><line class="cls-1" x1="228" y1="1425" x2="228" y2="1434"/><line class="cls-1" x1="228" y1="1470" x2="318" y2="1470"/><line class="cls-1" x1="318" y1="1425" x2="318" y2="1560"/><line class="cls-1" x1="228" y1="1470" x2="228" y2="1479"/><line class="cls-1" x1="228" y1="1515" x2="228" y2="1497"/><line class="cls-1" x1="57" y1="1425" x2="3" y2="1425"/><line class="cls-1" x1="399" y1="1685.77" x2="399" y2="1604.77"/><line class="cls-1" x1="318" y1="1560" x2="228" y2="1560"/><line class="cls-1" x1="399" y1="1604.77" x2="210" y2="1604.77"/><line class="cls-1" x1="228" y1="1560" x2="228" y2="1542"/><line class="cls-1" x1="156" y1="1478.77" x2="156" y2="1631.77"/><line class="cls-1" x1="318" y1="1452" x2="399" y2="1452"/><line class="cls-1" x1="399" y1="1533" x2="318" y2="1533"/><line class="cls-1" x1="453" y1="1685.77" x2="453" y2="1811.77"/><line class="cls-1" x1="534" y1="1685.77" x2="534" y2="1811.77"/><line class="cls-1" x1="606" y1="1685.77" x2="606" y2="1811.77"/><line class="cls-1" x1="678" y1="1685.77" x2="678" y2="1781.11"/><line class="cls-1" x1="453" y1="1811.77" x2="498" y2="1811.77"/><line class="cls-1" x1="516" y1="1811.77" x2="552" y2="1811.77"/><line class="cls-1" x1="570" y1="1812" x2="642" y2="1812"/><line class="cls-1" x1="606" y1="2072.77" x2="606" y2="1955.77"/><line class="cls-1" x1="570" y1="1956" x2="642" y2="1956"/><line class="cls-1" x1="660" y1="1811.77" x2="696" y2="1811.77"/><line class="cls-1" x1="714" y1="1811.77" x2="849" y2="1811.77"/><line class="cls-1" x1="453" y1="2072.77" x2="453" y2="1955.77"/><line class="cls-1" x1="534" y1="2072.77" x2="534" y2="1955.77"/><line class="cls-1" x1="678" y1="2072.77" x2="678" y2="1955.77"/><line class="cls-1" x1="453" y1="1955.77" x2="498" y2="1955.77"/><line class="cls-1" x1="516" y1="1955.77" x2="552" y2="1955.77"/><line class="cls-1" x1="660" y1="1955.77" x2="696" y2="1955.77"/><line class="cls-1" x1="714" y1="1955.77" x2="849" y2="1955.77"/><line class="cls-1" x1="570" y1="1901.77" x2="453" y2="1901.77"/><line class="cls-1" x1="624" y1="1865.77" x2="624" y2="1901.77"/><line class="cls-1" x1="453" y1="1865.77" x2="453" y2="1901.77"/><line class="cls-1" x1="723" y1="1811.77" x2="723" y2="1838.77"/><line class="cls-1" x1="453" y1="1865.77" x2="462" y2="1865.77"/><line class="cls-1" x1="480" y1="1865.77" x2="624" y2="1865.77"/><line class="cls-1" x1="534" y1="1865.77" x2="534" y2="1901.77"/><line class="cls-1" x1="489" y1="1865.77" x2="489" y2="1856.77"/><line class="cls-1" x1="489" y1="1811.77" x2="489" y2="1820.77"/><line class="cls-1" x1="489" y1="1955.77" x2="489" y2="1946.77"/><line class="cls-1" x1="489" y1="1901.77" x2="489" y2="1910.77"/><line class="cls-1" x1="723" y1="1928.77" x2="723" y2="1955.77"/><line class="cls-1" x1="723" y1="1883.77" x2="849" y2="1883.77"/><line class="cls-1" x1="723" y1="1865.77" x2="723" y2="1901.77"/><line class="cls-1" x1="606" y1="1901.77" x2="624" y2="1901.77"/><line class="cls-1" x1="588" y1="1865.77" x2="588" y2="1901.77"/><line class="cls-1" x1="399" y1="2072.77" x2="399" y2="2153.77"/><line class="cls-1" x1="156" y1="2072.77" x2="156" y2="2153.77"/><line class="cls-1" x1="318" y1="2072.77" x2="318" y2="2153.77"/><line class="cls-1" x1="210" y1="2153.77" x2="345" y2="2153.77"/><line class="cls-1" x1="363" y1="2153.77" x2="399" y2="2153.77"/><line class="cls-1" x1="399" y1="2199" x2="228" y2="2199"/><line class="cls-1" x1="156" y1="2153.77" x2="192" y2="2153.77"/><line class="cls-1" x1="399" y1="2289" x2="228" y2="2289"/><line class="cls-1" x1="228" y1="2199" x2="228" y2="2226"/><line class="cls-1" x1="228" y1="2244" x2="318" y2="2244"/><line class="cls-1" x1="318" y1="2199" x2="318" y2="2334"/><line class="cls-1" x1="228" y1="2244" x2="228" y2="2253"/><line class="cls-1" x1="228" y1="2289" x2="228" y2="2271"/><line class="cls-1" x1="399" y1="2396.77" x2="399" y2="2378.77"/><line class="cls-1" x1="318" y1="2334" x2="228" y2="2334"/><line class="cls-1" x1="399" y1="2378.77" x2="363" y2="2378.77"/><line class="cls-1" x1="318" y1="2378.77" x2="318" y2="2459.77"/><line class="cls-1" x1="345" y1="2378.77" x2="282" y2="2378.77"/><line class="cls-1" x1="228" y1="2334" x2="228" y2="2307"/><line class="cls-1" x1="210" y1="2378.77" x2="264" y2="2378.77"/><line class="cls-1" x1="399" y1="2396.77" x2="453" y2="2396.77"/><line class="cls-1" x1="4890" y1="2216.77" x2="5025" y2="2216.77"/><line class="cls-1" x1="5025" y1="2180.77" x2="5025" y2="2243.77"/><line class="cls-1" x1="4890" y1="2279.77" x2="5025" y2="2279.77"/><line class="cls-1" x1="5025" y1="2261.77" x2="5025" y2="2297.77"/><line class="cls-1" x1="5025" y1="2315.77" x2="5025" y2="2459.77"/><line class="cls-1" x1="5097" y1="2279.77" x2="5232" y2="2279.77"/><line class="cls-1" x1="5097" y1="2261.77" x2="5097" y2="2297.77"/><line class="cls-1" x1="5097" y1="2315.77" x2="5097" y2="2459.77"/><line class="cls-1" x1="5097" y1="2180.77" x2="5097" y2="2243.77"/><line class="cls-1" x1="5097" y1="2162.77" x2="5097" y2="2135.77"/><line class="cls-1" x1="5097" y1="2153.77" x2="5232" y2="2153.77"/><line class="cls-1" x1="5097" y1="2117.77" x2="5097" y2="2063.77"/><line class="cls-1" x1="5232" y1="2081.77" x2="5133" y2="2081.77"/><line class="cls-1" x1="5097" y1="1937.77" x2="5097" y2="2045.77"/><line class="cls-1" x1="5097" y1="2019" x2="5115" y2="2019"/><line class="cls-1" x1="5133" y1="2019" x2="5232" y2="2019"/><line class="cls-1" x1="5097" y1="2081.77" x2="5115" y2="2081.77"/><line class="cls-1" x1="5025" y1="1955.77" x2="5025" y2="1838.77"/><line class="cls-1" x1="5025" y1="1892.77" x2="4818" y2="1892.77"/><line class="cls-1" x1="5025" y1="1820.77" x2="5025" y2="1721.77"/><line class="cls-1" x1="5025" y1="1766.77" x2="4962" y2="1766.77"/><line class="cls-1" x1="4818" y1="1766.77" x2="4935" y2="1766.77"/><line class="cls-1" x1="4962" y1="1820.77" x2="4962" y2="1766.77"/><line class="cls-1" x1="4962" y1="1838.77" x2="4962" y2="1856.77"/><line class="cls-1" x1="5025" y1="1856.77" x2="4962" y2="1856.77"/><line class="cls-1" x1="5097" y1="1577.77" x2="5115" y2="1577.77"/><line class="cls-1" x1="5133" y1="1577.77" x2="5232" y2="1577.77"/><line class="cls-1" x1="5097" y1="1523.77" x2="5097" y2="1505.77"/><line class="cls-1" x1="4890" y1="1316.77" x2="5025" y2="1316.77"/><line class="cls-1" x1="5025" y1="1289.77" x2="5025" y2="1361.77"/><line class="cls-1" x1="5034" y1="1136.77" x2="5034" y2="1037.77"/><line class="cls-1" x1="5097" y1="1055.77" x2="5232" y2="1055.77"/><line class="cls-1" x1="5097" y1="1100.77" x2="5097" y2="1037.77"/><line class="cls-1" x1="5097" y1="1019.77" x2="5097" y2="920.77"/><line class="cls-1" x1="5097" y1="875.77" x2="5097" y2="902.77"/><line class="cls-1" x1="5097" y1="767.77" x2="5232" y2="767.77"/><line class="cls-1" x1="5097" y1="785.77" x2="5097" y2="677.77"/><line class="cls-1" x1="5097" y1="425.77" x2="5232" y2="425.77"/><line class="cls-1" x1="5097" y1="434.77" x2="5097" y2="416.77"/><line class="cls-1" x1="5007" y1="587.77" x2="5007" y2="578.77"/><line class="cls-1" x1="4584" y1="83.77" x2="4584" y2="209.77"/><line class="cls-1" x1="4548" y1="209.77" x2="4629" y2="209.77"/><line class="cls-1" x1="4395" y1="83.77" x2="4395" y2="209.77"/><line class="cls-1" x1="4269" y1="83.77" x2="4269" y2="209.77"/><line class="cls-1" x1="4125" y1="209.77" x2="4035" y2="209.77"/><line class="cls-1" x1="3999" y1="209.77" x2="3909" y2="209.77"/><line class="cls-1" x1="3954" y1="83.77" x2="3954" y2="209.77"/><line class="cls-1" x1="4080" y1="83.77" x2="4080" y2="209.77"/><line class="cls-1" x1="4017" y1="83.77" x2="4017" y2="209.77"/><line class="cls-1" x1="3891" y1="83.77" x2="3891" y2="174"/><line class="cls-1" x1="3747" y1="209.77" x2="3657" y2="209.77"/><line class="cls-1" x1="3702" y1="209.77" x2="3702" y2="83.77"/><line class="cls-1" x1="3765" y1="83.77" x2="3765" y2="209.77"/><line class="cls-1" x1="3621" y1="209.77" x2="3567" y2="209.77"/><line class="cls-1" x1="3576" y1="209.77" x2="3576" y2="83.77"/><line class="cls-1" x1="3639" y1="83.77" x2="3639" y2="209.77"/><line class="cls-1" x1="561" y1="209.77" x2="606" y2="263.77"/><line class="cls-1" x1="606" y1="263.77" x2="606" y2="317.77"/><line class="cls-1" x1="606" y1="389.77" x2="642" y2="389.77"/><line class="cls-1" x1="156" y1="596.77" x2="147" y2="596.77"/><line class="cls-1" x1="129" y1="596.77" x2="3" y2="596.77"/><line class="cls-1" x1="120" y1="596.77" x2="120" y2="614.77"/><line class="cls-1" x1="120" y1="632.77" x2="120" y2="651"/><line class="cls-1" x1="318" y1="911.77" x2="318" y2="857.77"/><line class="cls-1" x1="849" y1="1109.77" x2="723" y2="1109.77"/><line class="cls-1" x1="723" y1="1037.77" x2="723" y2="1073.77"/><line class="cls-1" x1="75" y1="1425" x2="156" y2="1425"/><line class="cls-1" x1="156" y1="1685.77" x2="156" y2="1658.77"/><line class="cls-1" x1="156" y1="1604.77" x2="192" y2="1604.77"/><line class="cls-1" x1="678" y1="1811.77" x2="678" y2="1802.77"/><line class="cls-1" x1="246" y1="2459.77" x2="246" y2="2378.77"/><line class="cls-1" x1="156" y1="2378.77" x2="192" y2="2378.77"/><line class="cls-1" x1="3" y1="2199" x2="156" y2="2199"/><line class="cls-1" x1="3" y1="2334" x2="156" y2="2334"/><line class="cls-1" x1="156" y1="2289" x2="156" y2="2199"/><line class="cls-1" x1="156" y1="2334" x2="156" y2="2316"/><line class="cls-1" x1="156" y1="2378.77" x2="156" y2="2459.77"/><line class="cls-1" x1="4746" y1="389.77" x2="4746" y2="398.77"/><line class="cls-1" x1="3180" y1="390" x2="3234" y2="389.55"/><line class="cls-1" x1="3432" y1="390" x2="3450" y2="390"/><line class="cls-1" x1="3225" y1="390" x2="3225" y2="525"/><line class="cls-1" x1="3162" y1="390" x2="3108" y2="389.55"/><line class="cls-1" x1="3135" y1="525" x2="3135" y2="390"/><line class="cls-1" x1="3063" y1="390" x2="3063" y2="525"/><line class="cls-1" x1="3090" y1="390" x2="3018" y2="390"/><line class="cls-1" x1="3000" y1="390" x2="3000" y2="525"/><line class="cls-1" x1="2982" y1="390" x2="2883" y2="390"/><line class="cls-1" x1="2937" y1="525" x2="2937" y2="390"/><line class="cls-1" x1="2730" y1="390" x2="2640" y2="390"/><line class="cls-1" x1="2685" y1="525" x2="2685" y2="390"/><line class="cls-1" x1="2604" y1="390" x2="2532" y2="390"/><line class="cls-1" x1="2559" y1="525" x2="2559" y2="390"/><line class="cls-1" x1="2748" y1="390" x2="2748" y2="525"/><line class="cls-1" x1="2622" y1="390" x2="2622" y2="525"/><line class="cls-1" x1="3216" y1="354" x2="3180" y2="354"/><line class="cls-1" x1="3135" y1="264" x2="3135" y2="354"/><line class="cls-1" x1="3090" y1="354" x2="3018" y2="354"/><line class="cls-1" x1="3063" y1="264" x2="3063" y2="354"/><line class="cls-1" x1="3000" y1="264" x2="3000" y2="354"/><line class="cls-1" x1="2982" y1="354" x2="2892" y2="354"/><line class="cls-1" x1="2937" y1="264" x2="2937" y2="354"/><line class="cls-1" x1="2874" y1="264" x2="2874" y2="354"/><line class="cls-1" x1="2748" y1="264" x2="2748" y2="354"/><line class="cls-1" x1="2730" y1="354" x2="2640" y2="354"/><line class="cls-1" x1="2685" y1="264" x2="2685" y2="354"/><line class="cls-1" x1="2622" y1="264" x2="2622" y2="354"/><line class="cls-1" x1="2604" y1="354" x2="2514" y2="354"/><line class="cls-1" x1="2559" y1="264" x2="2559" y2="354"/><line class="cls-1" x1="2496" y1="264" x2="2496" y2="354"/><line class="cls-1" x1="2478" y1="354" x2="2424" y2="354"/><line class="cls-1" x1="2433" y1="363" x2="2433" y2="264"/><line class="cls-1" x1="2370" y1="354" x2="2370" y2="264"/><line class="cls-1" x1="2433" y1="390" x2="2433" y2="525"/><line class="cls-1" x1="2460" y1="390" x2="2424" y2="390"/><line class="cls-1" x1="2433" y1="435" x2="2361" y2="435"/><line class="cls-1" x1="2361" y1="390" x2="2361" y2="435"/><line class="cls-1" x1="2397" y1="390" x2="2397" y2="435"/><line class="cls-1" x1="2361" y1="390" x2="2370" y2="390"/><line class="cls-1" x1="2388" y1="390" x2="2406" y2="390"/><line class="cls-1" x1="1677" y1="390" x2="1776" y2="390"/><line class="cls-1" x1="1731" y1="525" x2="1731" y2="390"/><line class="cls-1" x1="1686" y1="354" x2="1785" y2="354"/><line class="cls-1" x1="1731" y1="264" x2="1731" y2="300"/><line class="cls-1" x1="1803" y1="354" x2="1866" y2="354"/><line class="cls-1" x1="1866" y1="354" x2="1866" y2="318"/><line class="cls-1" x1="1866" y1="300" x2="1866" y2="264"/><line class="cls-1" x1="1794" y1="390" x2="1794" y2="525"/><line class="cls-1" x1="1866" y1="390" x2="1866" y2="525"/><line class="cls-1" x1="1812" y1="390" x2="1875" y2="390"/><line class="cls-1" x1="1866" y1="435" x2="1938" y2="435"/><line class="cls-1" x1="1938" y1="390" x2="1938" y2="435"/><line class="cls-1" x1="1902" y1="390" x2="1902" y2="435"/><line class="cls-1" x1="1938" y1="390" x2="1929" y2="390"/><line class="cls-1" x1="1911" y1="390" x2="1893" y2="390"/><line class="cls-1" x1="1668" y1="264" x2="1668" y2="354"/><line class="cls-1" x1="1650" y1="354" x2="1542" y2="354"/><line class="cls-1" x1="1596" y1="363" x2="1596" y2="264"/><line class="cls-1" x1="1524" y1="264" x2="1524" y2="354"/><line class="cls-1" x1="1506" y1="354" x2="1398" y2="354"/><line class="cls-1" x1="1452" y1="354" x2="1452" y2="264"/><line class="cls-1" x1="1380" y1="264" x2="1380" y2="354"/><line class="cls-1" x1="1362" y1="354" x2="1272" y2="354"/><line class="cls-1" x1="1308" y1="354" x2="1308" y2="264"/><line class="cls-1" x1="1254" y1="264" x2="1254" y2="354"/><line class="cls-1" x1="1191" y1="264" x2="1191" y2="363"/><line class="cls-1" x1="1074" y1="327" x2="1092" y2="327"/><line class="cls-1" x1="1191" y1="354" x2="1236" y2="354"/><line class="cls-1" x1="1515" y1="390" x2="1398" y2="390"/><line class="cls-1" x1="1452" y1="525" x2="1452" y2="390"/><line class="cls-1" x1="1596" y1="525" x2="1596" y2="381"/><line class="cls-1" x1="1362" y1="390" x2="1272" y2="390"/><line class="cls-1" x1="1308" y1="525" x2="1308" y2="390"/><line class="cls-1" x1="1380" y1="525" x2="1380" y2="390"/><line class="cls-1" x1="1254" y1="525" x2="1254" y2="390"/><line class="cls-1" x1="1236" y1="390" x2="1173" y2="390"/><line class="cls-1" x1="1191" y1="525" x2="1191" y2="381"/><line class="cls-1" x1="1137" y1="525" x2="1137" y2="390"/><line class="cls-1" x1="1155" y1="390" x2="1137" y2="390"/><line class="cls-1" x1="2865" y1="390" x2="2766" y2="390"/><line class="cls-1" x1="2811" y1="524.55" x2="2811" y2="389.55"/><line class="cls-1" x1="2856" y1="354" x2="2766" y2="354"/><line class="cls-1" x1="2811" y1="264" x2="2811" y2="353.55"/><line class="cls-1" x1="1983" y1="390" x2="1983" y2="525"/><line class="cls-1" x1="2316" y1="390" x2="2316" y2="525"/><line class="cls-1" x1="2055" y1="390" x2="2244" y2="390"/><line class="cls-1" x1="2145" y1="525" x2="2145" y2="390"/><line class="cls-1" x1="2316" y1="390" x2="2262" y2="390"/><line class="cls-1" x1="2037" y1="390" x2="1983" y2="390"/><line class="cls-1" x1="3387" y1="525" x2="3387" y2="390"/><line class="cls-1" x1="3252" y1="390" x2="3405" y2="390"/><line class="cls-1" x1="3162" y1="354" x2="3108" y2="354"/><line class="cls-1" x1="2370" y1="354" x2="2406" y2="354"/><line class="cls-1" x1="3216" y1="354" x2="3216" y2="327"/><line class="cls-1" x1="1191" y1="327" x2="1173" y2="327"/><polyline class="cls-3" points="1884 354 1956 354 1983 327 1983 264"/><line class="cls-1" x1="1137" y1="264" x2="1137" y2="327"/><line class="cls-1" x1="1110" y1="327" x2="1155" y2="327"/><line class="cls-1" x1="1533" y1="390" x2="1659" y2="390"/><line class="cls-1" x1="1731" y1="354" x2="1731" y2="318"/><line class="cls-1" x1="2496" y1="434.55" x2="2496" y2="525"/><line class="cls-1" x1="2478" y1="389.55" x2="2478" y2="434.55"/><line class="cls-1" x1="2514" y1="389.55" x2="2514" y2="434.55"/><line class="cls-1" x1="2478" y1="434.55" x2="2514" y2="434.55"/><line class="cls-1" x1="2478" y1="389.55" x2="2487" y2="389.55"/><line class="cls-1" x1="2514" y1="389.55" x2="2505" y2="389.55"/><line class="cls-1" x1="5232" y1="2217" x2="5097" y2="2217"/><line class="cls-1" x1="4647" y1="84" x2="4647" y2="210"/><line class="cls-1" x1="849" y1="327" x2="714" y2="327"/><line class="cls-1" x1="714" y1="345" x2="714" y2="309"/><line class="cls-1" x1="714" y1="417" x2="714" y2="363"/><line class="cls-1" x1="435" y1="651" x2="453" y2="651"/><line class="cls-1" x1="453" y1="750" x2="453" y2="730.59"/><line class="cls-1" x1="453" y1="652.41" x2="453" y2="678"/><line class="cls-1" x1="435" y1="741" x2="453" y2="741"/><line class="cls-1" x1="453" y1="678" x2="471" y2="678"/><line class="cls-1" x1="453" y1="732" x2="507" y2="732"/><line class="cls-1" x1="453" y1="786" x2="453" y2="768"/><line class="cls-1" x1="507" y1="678" x2="489" y2="678"/><line class="cls-1" x1="453" y1="1452" x2="444" y2="1452"/><line class="cls-1" x1="453" y1="1533" x2="444" y2="1533"/><line class="cls-1" x1="453" y1="1425" x2="453" y2="1479"/><line class="cls-1" x1="453" y1="1560" x2="453" y2="1506"/><line class="cls-1" x1="453" y1="1506" x2="471" y2="1506"/><line class="cls-1" x1="507" y1="1506" x2="489" y2="1506"/><line class="cls-1" x1="453" y1="1479" x2="471" y2="1479"/><line class="cls-1" x1="507" y1="1479" x2="489" y2="1479"/><line class="cls-1" x1="453" y1="2289" x2="444" y2="2289"/><line class="cls-1" x1="453" y1="2199" x2="444" y2="2199"/><line class="cls-1" x1="453" y1="2334" x2="453" y2="2316"/><line class="cls-1" x1="453" y1="2298" x2="453" y2="2262"/><line class="cls-1" x1="453" y1="2280" x2="507" y2="2280"/><line class="cls-1" x1="453" y1="2199" x2="453" y2="2244"/><line class="cls-1" x1="453" y1="2226" x2="471" y2="2226"/><line class="cls-1" x1="507" y1="2226" x2="489" y2="2226"/><line class="cls-1" x1="4953" y1="2084.68" x2="4953" y2="2109"/><line class="cls-1" x1="4989" y1="2084.68" x2="4989" y2="2109"/><line class="cls-1" x1="5025" y1="2109" x2="5016" y2="2109"/><line class="cls-1" x1="4998" y1="2109" x2="4980" y2="2109"/><line class="cls-1" x1="4953" y1="2109" x2="4962" y2="2109"/><line class="cls-1" x1="4890" y1="1632" x2="4890" y2="1641"/><line class="cls-1" x1="4890" y1="2028" x2="4890" y2="2019"/><line class="cls-1" x1="4827" y1="462" x2="4701" y2="462"/><line class="cls-1" x1="4791" y1="525" x2="4791" y2="498"/><line class="cls-1" x1="4791" y1="462" x2="4791" y2="480"/></g></g></g></svg>